<svg width="89" height="82" viewBox="0 0 89 82" fill="none" xmlns="http://www.w3.org/2000/svg">
<g id="Clip path group">
<mask id="mask0_1_517" style="mask-type:luminance" maskUnits="userSpaceOnUse" x="0" y="0" width="89" height="82">
<g id="__lottie_element_81">
<path id="Vector" d="M88.38 0.901855H0.22998V81.6974H88.38V0.901855Z" fill="white"/>
</g>
</mask>
<g mask="url(#mask0_1_517)">
<g id="Group">
<g id="Clip path group_2">
<mask id="mask1_1_517" style="mask-type:luminance" maskUnits="userSpaceOnUse" x="0" y="0" width="89" height="82">
<g id="__lottie_element_83">
<path id="Vector_2" d="M0.22998 0.901855H88.38V81.6974H0.22998V0.901855Z" fill="white"/>
</g>
</mask>
<g mask="url(#mask1_1_517)">
<g id="Group_2">
<g id="Group_3">
<g id="Group_4">
<path id="Vector_3" d="M25.7297 33.6673L25.688 76.9234C25.688 79.0814 23.9382 80.831 21.7801 80.831H5.49679C3.33861 80.831 1.58881 79.0814 1.58881 76.9234L1.63049 33.6673C1.63049 31.5094 3.38029 29.7598 5.53848 29.7598H21.8217C23.9799 29.7598 25.7297 31.5094 25.7297 33.6673Z" fill="#E6F4E3"/>
</g>
</g>
<g id="Group_5">
<g id="Group_6">
<path id="Vector_4" d="M56.5198 11.6312L56.4996 76.9227C56.4996 79.0807 54.7498 80.8303 52.5916 80.8303H36.3083C34.1501 80.8303 32.4003 79.0807 32.4003 76.9227L32.4205 11.6312C32.4205 9.47325 34.1703 7.72363 36.3285 7.72363H52.6118C54.77 7.72363 56.5198 9.47325 56.5198 11.6312Z" fill="#E6F4E3"/>
</g>
</g>
<g id="Group_7">
<g id="Group_8">
<path id="Vector_5" d="M87.5235 53.6205L87.4938 76.9226C87.4938 79.0805 85.744 80.8301 83.5858 80.8301H67.3026C65.1444 80.8301 63.3946 79.0805 63.3946 76.9226L63.4242 53.6205C63.4242 51.4625 65.174 49.7129 67.3322 49.7129H83.6155C85.7737 49.7129 87.5235 51.4625 87.5235 53.6205Z" fill="#E6F4E3"/>
</g>
</g>
</g>
</g>
</g>
</g>
</g>
</g>
</svg>
