<svg width="212" height="60" viewBox="0 0 212 60" fill="none" xmlns="http://www.w3.org/2000/svg">
<path fill-rule="evenodd" clip-rule="evenodd" d="M27.0181 28.39C27.009 13.72 15.1132 1.83061 0.441407 1.83062L0.441406 0.15625L211.052 0.159979V1.83059C196.375 1.83059 184.476 13.7291 184.476 28.4068V43.3987C184.476 52.4311 177.154 59.7536 168.121 59.7536H43.3729C34.3401 59.7536 27.0181 52.4311 27.0181 43.3987V28.39Z" fill="#26292B"/>
<path d="M73.2246 30.1211L71.0469 23.7832L68.7324 30.1211H73.2246ZM70.0312 21.6543H72.2285L77.4336 36H75.3047L73.8496 31.7031H68.1758L66.623 36H64.6309L70.0312 21.6543ZM78.8301 21.6055H80.5391V26.8105C80.9232 26.3092 81.3822 25.9284 81.916 25.668C82.4499 25.401 83.0293 25.2676 83.6543 25.2676C84.9564 25.2676 86.0111 25.7168 86.8184 26.6152C87.6322 27.5072 88.0391 28.8255 88.0391 30.5703C88.0391 32.224 87.6387 33.5977 86.8379 34.6914C86.0371 35.7852 84.9271 36.332 83.5078 36.332C82.7135 36.332 82.043 36.14 81.4961 35.7559C81.1706 35.528 80.8223 35.1634 80.4512 34.6621V36H78.8301V21.6055ZM83.4004 34.7793C84.3509 34.7793 85.0605 34.4017 85.5293 33.6465C86.0046 32.8913 86.2422 31.8952 86.2422 30.6582C86.2422 29.5579 86.0046 28.6465 85.5293 27.9238C85.0605 27.2012 84.3672 26.8398 83.4492 26.8398C82.6484 26.8398 81.9453 27.1361 81.3398 27.7285C80.7409 28.321 80.4414 29.2975 80.4414 30.6582C80.4414 31.6413 80.5651 32.4388 80.8125 33.0508C81.2747 34.2031 82.1374 34.7793 83.4004 34.7793ZM94.25 34.8672C95.4154 34.8672 96.2129 34.4277 96.6426 33.5488C97.0788 32.6634 97.2969 31.6803 97.2969 30.5996C97.2969 29.623 97.1406 28.8288 96.8281 28.2168C96.3333 27.2533 95.4805 26.7715 94.2695 26.7715C93.1953 26.7715 92.4141 27.1816 91.9258 28.002C91.4375 28.8223 91.1934 29.8118 91.1934 30.9707C91.1934 32.084 91.4375 33.0117 91.9258 33.7539C92.4141 34.4961 93.1888 34.8672 94.25 34.8672ZM94.3184 25.2383C95.666 25.2383 96.8053 25.6875 97.7363 26.5859C98.6673 27.4844 99.1328 28.806 99.1328 30.5508C99.1328 32.237 98.7227 33.6302 97.9023 34.7305C97.082 35.8307 95.8092 36.3809 94.084 36.3809C92.6452 36.3809 91.5026 35.8958 90.6562 34.9258C89.8099 33.9492 89.3867 32.6406 89.3867 31C89.3867 29.2422 89.8327 27.8424 90.7246 26.8008C91.6165 25.7591 92.8145 25.2383 94.3184 25.2383ZM102.99 25.541V32.4844C102.99 33.0182 103.075 33.4544 103.244 33.793C103.557 34.418 104.139 34.7305 104.992 34.7305C106.216 34.7305 107.049 34.1836 107.492 33.0898C107.733 32.5039 107.854 31.6999 107.854 30.6777V25.541H109.611V36H107.951L107.971 34.457C107.743 34.8542 107.46 35.1895 107.121 35.4629C106.451 36.0098 105.637 36.2832 104.68 36.2832C103.189 36.2832 102.173 35.7852 101.633 34.7891C101.34 34.2552 101.193 33.5423 101.193 32.6504V25.541H102.99ZM112.717 22.6211H114.494V25.541H116.164V26.9766H114.494V33.8027C114.494 34.1673 114.618 34.4115 114.865 34.5352C115.002 34.6068 115.23 34.6426 115.549 34.6426C115.633 34.6426 115.725 34.6426 115.822 34.6426C115.92 34.6361 116.034 34.6263 116.164 34.6133V36C115.962 36.0586 115.751 36.1009 115.529 36.127C115.314 36.153 115.08 36.166 114.826 36.166C114.006 36.166 113.449 35.9577 113.156 35.541C112.863 35.1178 112.717 34.571 112.717 33.9004V26.9766H111.301V25.541H112.717V22.6211ZM125.842 21.6543V30.5215C125.842 31.5632 126.037 32.429 126.428 33.1191C127.007 34.1608 127.984 34.6816 129.357 34.6816C131.005 34.6816 132.124 34.1185 132.717 32.9922C133.036 32.3802 133.195 31.5566 133.195 30.5215V21.6543H135.168V29.7109C135.168 31.4753 134.93 32.8327 134.455 33.7832C133.583 35.515 131.936 36.3809 129.514 36.3809C127.092 36.3809 125.448 35.515 124.582 33.7832C124.107 32.8327 123.869 31.4753 123.869 29.7109V21.6543H125.842ZM138.996 32.7188C139.048 33.3047 139.195 33.7539 139.436 34.0664C139.878 34.6328 140.646 34.916 141.74 34.916C142.391 34.916 142.964 34.776 143.459 34.4961C143.954 34.2096 144.201 33.7702 144.201 33.1777C144.201 32.7285 144.003 32.3867 143.605 32.1523C143.352 32.0091 142.85 31.8431 142.102 31.6543L140.705 31.3027C139.813 31.0814 139.156 30.834 138.732 30.5605C137.977 30.0853 137.6 29.4277 137.6 28.5879C137.6 27.5983 137.954 26.7975 138.664 26.1855C139.38 25.5736 140.34 25.2676 141.545 25.2676C143.12 25.2676 144.257 25.7298 144.953 26.6543C145.389 27.2402 145.601 27.8717 145.588 28.5488H143.928C143.895 28.1517 143.755 27.7904 143.508 27.4648C143.104 27.0026 142.404 26.7715 141.408 26.7715C140.744 26.7715 140.24 26.8984 139.895 27.1523C139.556 27.4062 139.387 27.7415 139.387 28.1582C139.387 28.6139 139.611 28.9785 140.061 29.252C140.321 29.4147 140.705 29.5579 141.213 29.6816L142.375 29.9648C143.638 30.2708 144.484 30.5671 144.914 30.8535C145.598 31.3027 145.939 32.0091 145.939 32.9727C145.939 33.9036 145.585 34.7077 144.875 35.3848C144.172 36.0618 143.098 36.4004 141.652 36.4004C140.096 36.4004 138.993 36.0488 138.342 35.3457C137.697 34.6361 137.352 33.7604 137.307 32.7188H138.996Z" fill="#9CA0A4"/>
</svg>
