<svg width="266" height="64" viewBox="0 0 266 64" fill="none" xmlns="http://www.w3.org/2000/svg">
<path fill-rule="evenodd" clip-rule="evenodd" d="M237.083 33.7399C237.093 49.4028 249.793 62.0968 265.458 62.0968V63.8845L0.5625 63.8805V62.0968C16.2336 62.0968 28.9376 49.393 28.9376 33.722V17.7155C28.9376 8.07174 36.7553 0.253906 46.3992 0.253906L219.621 0.253908C229.265 0.253909 237.083 8.07174 237.083 17.7155V33.7399Z" fill="#26292B"/>
<path opacity="0.8" d="M55.7841 30.946V32.5085H49.4205V30.946H55.7841ZM65.1822 39H63.3356L68.6765 24.4545H70.4947L75.8356 39H73.989L69.6424 26.7557H69.5288L65.1822 39ZM65.864 33.3182H73.3072V34.8807H65.864V33.3182ZM79.4364 35.0227L79.408 32.9489H79.7489L84.5217 28.0909H86.5955L81.5103 33.233H81.3683L79.4364 35.0227ZM77.8739 39V24.4545H79.5501V39H77.8739ZM84.8058 39L80.5444 33.6023L81.7376 32.4375L86.9364 39H84.8058ZM96.4801 30.5341L94.9744 30.9602C94.8797 30.7093 94.7401 30.4654 94.5554 30.2287C94.3755 29.9872 94.1293 29.7884 93.8168 29.6321C93.5043 29.4759 93.1042 29.3977 92.6165 29.3977C91.9489 29.3977 91.3925 29.5516 90.9474 29.8594C90.5071 30.1624 90.2869 30.5483 90.2869 31.017C90.2869 31.4337 90.4384 31.7628 90.7415 32.0043C91.0445 32.2457 91.518 32.447 92.1619 32.608L93.7812 33.0057C94.7566 33.2424 95.4834 33.6046 95.9616 34.0923C96.4399 34.5753 96.679 35.1979 96.679 35.9602C96.679 36.5852 96.4991 37.1439 96.1392 37.6364C95.7841 38.1288 95.2869 38.517 94.6477 38.8011C94.0085 39.0852 93.2652 39.2273 92.4176 39.2273C91.3049 39.2273 90.384 38.9858 89.6548 38.5028C88.9257 38.0199 88.464 37.3144 88.2699 36.3864L89.8608 35.9886C90.0123 36.5758 90.2988 37.0161 90.7202 37.3097C91.1463 37.6032 91.7027 37.75 92.3892 37.75C93.1705 37.75 93.7907 37.5843 94.25 37.2528C94.714 36.9167 94.946 36.5142 94.946 36.0455C94.946 35.6667 94.8134 35.3494 94.5483 35.0938C94.2831 34.8333 93.8759 34.6392 93.3267 34.5114L91.5085 34.0852C90.5095 33.8485 89.7756 33.4815 89.3068 32.9844C88.8428 32.4825 88.6108 31.8551 88.6108 31.1023C88.6108 30.4867 88.7836 29.9422 89.1293 29.4688C89.4796 28.9953 89.9555 28.6236 90.5568 28.3537C91.1629 28.0838 91.8494 27.9489 92.6165 27.9489C93.696 27.9489 94.5436 28.1856 95.1591 28.6591C95.7794 29.1326 96.2197 29.7576 96.4801 30.5341ZM100.878 32.4375V39H99.2021V24.4545H100.878V29.7955H101.02C101.276 29.232 101.659 28.7846 102.171 28.4531C102.687 28.117 103.373 27.9489 104.23 27.9489C104.974 27.9489 105.625 28.098 106.184 28.3963C106.742 28.6899 107.176 29.142 107.483 29.7528C107.796 30.3589 107.952 31.1307 107.952 32.0682V39H106.276V32.1818C106.276 31.3153 106.051 30.6454 105.601 30.1719C105.156 29.6937 104.538 29.4545 103.748 29.4545C103.198 29.4545 102.706 29.5705 102.27 29.8026C101.839 30.0346 101.498 30.3731 101.248 30.8182C101.001 31.2633 100.878 31.803 100.878 32.4375ZM111.018 39V28.0909H112.695V39H111.018ZM111.871 26.2727C111.544 26.2727 111.262 26.1615 111.026 25.9389C110.794 25.7164 110.678 25.4489 110.678 25.1364C110.678 24.8239 110.794 24.5563 111.026 24.3338C111.262 24.1113 111.544 24 111.871 24C112.197 24 112.477 24.1113 112.709 24.3338C112.946 24.5563 113.064 24.8239 113.064 25.1364C113.064 25.4489 112.946 25.7164 112.709 25.9389C112.477 26.1615 112.197 26.2727 111.871 26.2727ZM120.509 28.0909V29.5114H114.855V28.0909H120.509ZM116.503 25.4773H118.179V35.875C118.179 36.3485 118.248 36.7036 118.385 36.9403C118.527 37.1723 118.707 37.3286 118.925 37.4091C119.148 37.4848 119.382 37.5227 119.628 37.5227C119.813 37.5227 119.964 37.5133 120.083 37.4943C120.201 37.4706 120.296 37.4517 120.367 37.4375L120.708 38.9432C120.594 38.9858 120.435 39.0284 120.232 39.071C120.028 39.1184 119.77 39.142 119.458 39.142C118.984 39.142 118.52 39.0402 118.066 38.8366C117.616 38.633 117.242 38.3229 116.944 37.9062C116.65 37.4896 116.503 36.964 116.503 36.3295V25.4773ZM126.24 39.2557C125.549 39.2557 124.922 39.1255 124.358 38.8651C123.795 38.5999 123.347 38.2188 123.016 37.7216C122.685 37.2197 122.519 36.6136 122.519 35.9034C122.519 35.2784 122.642 34.7718 122.888 34.3835C123.134 33.9905 123.463 33.6828 123.875 33.4602C124.287 33.2377 124.742 33.072 125.239 32.9631C125.741 32.8494 126.245 32.7595 126.752 32.6932C127.415 32.608 127.952 32.544 128.364 32.5014C128.781 32.4541 129.084 32.3759 129.273 32.267C129.467 32.1581 129.564 31.9687 129.564 31.6989V31.642C129.564 30.9413 129.373 30.3968 128.989 30.0085C128.61 29.6203 128.035 29.4261 127.263 29.4261C126.463 29.4261 125.836 29.6013 125.381 29.9517C124.926 30.3021 124.607 30.6761 124.422 31.0739L122.831 30.5057C123.115 29.8428 123.494 29.3267 123.968 28.9574C124.446 28.5833 124.967 28.3229 125.53 28.1761C126.098 28.0246 126.657 27.9489 127.206 27.9489C127.557 27.9489 127.959 27.9915 128.414 28.0767C128.873 28.1572 129.316 28.3253 129.742 28.581C130.173 28.8366 130.53 29.2225 130.814 29.7386C131.098 30.2547 131.24 30.946 131.24 31.8125V39H129.564V37.5227H129.479C129.365 37.7595 129.176 38.0128 128.911 38.2827C128.646 38.5526 128.293 38.7822 127.853 38.9716C127.412 39.161 126.875 39.2557 126.24 39.2557ZM126.496 37.75C127.159 37.75 127.718 37.6198 128.172 37.3594C128.632 37.099 128.977 36.7628 129.209 36.3509C129.446 35.9389 129.564 35.5057 129.564 35.0511V33.517C129.493 33.6023 129.337 33.6804 129.096 33.7514C128.859 33.8177 128.584 33.8769 128.272 33.929C127.964 33.9763 127.663 34.0189 127.37 34.0568C127.081 34.09 126.846 34.1184 126.667 34.142C126.231 34.1989 125.824 34.2912 125.445 34.419C125.071 34.5421 124.768 34.7292 124.536 34.9801C124.309 35.2263 124.195 35.5625 124.195 35.9886C124.195 36.571 124.41 37.0114 124.841 37.3097C125.277 37.6032 125.828 37.75 126.496 37.75ZM140.749 39H138.902L144.243 24.4545H146.061L151.402 39H149.555L145.209 26.7557H145.095L140.749 39ZM141.43 33.3182H148.874V34.8807H141.43V33.3182ZM157.844 43.3182C157.034 43.3182 156.338 43.214 155.756 43.0057C155.173 42.8021 154.688 42.5322 154.3 42.196C153.916 41.8646 153.611 41.5095 153.384 41.1307L154.719 40.1932C154.87 40.392 155.062 40.6193 155.294 40.875C155.526 41.1354 155.843 41.3603 156.246 41.5497C156.653 41.7438 157.186 41.8409 157.844 41.8409C158.724 41.8409 159.451 41.6278 160.024 41.2017C160.597 40.7756 160.884 40.108 160.884 39.1989V36.983H160.741C160.618 37.1818 160.443 37.428 160.216 37.7216C159.993 38.0104 159.671 38.2685 159.25 38.4957C158.833 38.7183 158.27 38.8295 157.56 38.8295C156.679 38.8295 155.888 38.6212 155.188 38.2045C154.491 37.7879 153.94 37.1818 153.533 36.3864C153.13 35.5909 152.929 34.625 152.929 33.4886C152.929 32.3712 153.125 31.3982 153.518 30.5696C153.911 29.7363 154.458 29.0923 155.159 28.6378C155.86 28.1785 156.67 27.9489 157.588 27.9489C158.298 27.9489 158.862 28.0672 159.278 28.304C159.7 28.536 160.022 28.8011 160.244 29.0994C160.472 29.393 160.647 29.6345 160.77 29.8239H160.94V28.0909H162.56V39.3125C162.56 40.25 162.347 41.0123 161.92 41.5994C161.499 42.1913 160.931 42.6245 160.216 42.8991C159.506 43.1785 158.715 43.3182 157.844 43.3182ZM157.787 37.3239C158.459 37.3239 159.027 37.17 159.491 36.8622C159.955 36.5545 160.308 36.1117 160.55 35.5341C160.791 34.9564 160.912 34.2652 160.912 33.4602C160.912 32.6742 160.794 31.9806 160.557 31.3793C160.32 30.7779 159.97 30.3068 159.506 29.9659C159.042 29.625 158.469 29.4545 157.787 29.4545C157.077 29.4545 156.485 29.6345 156.011 29.9943C155.543 30.3542 155.19 30.8371 154.953 31.4432C154.721 32.0492 154.605 32.7216 154.605 33.4602C154.605 34.2178 154.723 34.8878 154.96 35.4702C155.202 36.0478 155.557 36.5024 156.026 36.8338C156.499 37.1605 157.086 37.3239 157.787 37.3239ZM168.838 39.2557C168.147 39.2557 167.519 39.1255 166.956 38.8651C166.393 38.5999 165.945 38.2188 165.614 37.7216C165.282 37.2197 165.116 36.6136 165.116 35.9034C165.116 35.2784 165.24 34.7718 165.486 34.3835C165.732 33.9905 166.061 33.6828 166.473 33.4602C166.885 33.2377 167.339 33.072 167.837 32.9631C168.339 32.8494 168.843 32.7595 169.349 32.6932C170.012 32.608 170.55 32.544 170.962 32.5014C171.378 32.4541 171.681 32.3759 171.871 32.267C172.065 32.1581 172.162 31.9687 172.162 31.6989V31.642C172.162 30.9413 171.97 30.3968 171.587 30.0085C171.208 29.6203 170.633 29.4261 169.861 29.4261C169.061 29.4261 168.433 29.6013 167.979 29.9517C167.524 30.3021 167.205 30.6761 167.02 31.0739L165.429 30.5057C165.713 29.8428 166.092 29.3267 166.565 28.9574C167.044 28.5833 167.564 28.3229 168.128 28.1761C168.696 28.0246 169.255 27.9489 169.804 27.9489C170.154 27.9489 170.557 27.9915 171.011 28.0767C171.471 28.1572 171.913 28.3253 172.339 28.581C172.77 28.8366 173.128 29.2225 173.412 29.7386C173.696 30.2547 173.838 30.946 173.838 31.8125V39H172.162V37.5227H172.077C171.963 37.7595 171.774 38.0128 171.509 38.2827C171.243 38.5526 170.891 38.7822 170.45 38.9716C170.01 39.161 169.473 39.2557 168.838 39.2557ZM169.094 37.75C169.757 37.75 170.315 37.6198 170.77 37.3594C171.229 37.099 171.575 36.7628 171.807 36.3509C172.044 35.9389 172.162 35.5057 172.162 35.0511V33.517C172.091 33.6023 171.935 33.6804 171.693 33.7514C171.456 33.8177 171.182 33.8769 170.869 33.929C170.562 33.9763 170.261 34.0189 169.967 34.0568C169.679 34.09 169.444 34.1184 169.264 34.142C168.829 34.1989 168.421 34.2912 168.043 34.419C167.669 34.5421 167.366 34.7292 167.134 34.9801C166.906 35.2263 166.793 35.5625 166.793 35.9886C166.793 36.571 167.008 37.0114 167.439 37.3097C167.875 37.6032 168.426 37.75 169.094 37.75ZM176.897 39V28.0909H178.517V29.7386H178.63C178.829 29.1989 179.189 28.7609 179.71 28.4247C180.231 28.0885 180.818 27.9205 181.471 27.9205C181.594 27.9205 181.748 27.9228 181.933 27.9276C182.118 27.9323 182.257 27.9394 182.352 27.9489V29.6534C182.295 29.6392 182.165 29.6179 181.961 29.5895C181.762 29.5563 181.552 29.5398 181.329 29.5398C180.799 29.5398 180.325 29.651 179.909 29.8736C179.497 30.0914 179.17 30.3944 178.929 30.7827C178.692 31.1662 178.574 31.6042 178.574 32.0966V39H176.897ZM186.986 39L183.662 28.0909H185.424L187.782 36.4432H187.895L190.225 28.0909H192.015L194.316 36.4148H194.429L196.787 28.0909H198.549L195.225 39H193.577L191.191 30.6193H191.02L188.634 39H186.986ZM203.975 39.2557C203.283 39.2557 202.656 39.1255 202.093 38.8651C201.529 38.5999 201.082 38.2188 200.75 37.7216C200.419 37.2197 200.253 36.6136 200.253 35.9034C200.253 35.2784 200.376 34.7718 200.623 34.3835C200.869 33.9905 201.198 33.6828 201.61 33.4602C202.022 33.2377 202.476 33.072 202.973 32.9631C203.475 32.8494 203.98 32.7595 204.486 32.6932C205.149 32.608 205.686 32.544 206.098 32.5014C206.515 32.4541 206.818 32.3759 207.007 32.267C207.202 32.1581 207.299 31.9687 207.299 31.6989V31.642C207.299 30.9413 207.107 30.3968 206.723 30.0085C206.345 29.6203 205.769 29.4261 204.998 29.4261C204.197 29.4261 203.57 29.6013 203.115 29.9517C202.661 30.3021 202.341 30.6761 202.157 31.0739L200.566 30.5057C200.85 29.8428 201.229 29.3267 201.702 28.9574C202.18 28.5833 202.701 28.3229 203.265 28.1761C203.833 28.0246 204.391 27.9489 204.941 27.9489C205.291 27.9489 205.694 27.9915 206.148 28.0767C206.607 28.1572 207.05 28.3253 207.476 28.581C207.907 28.8366 208.265 29.2225 208.549 29.7386C208.833 30.2547 208.975 30.946 208.975 31.8125V39H207.299V37.5227H207.213C207.1 37.7595 206.91 38.0128 206.645 38.2827C206.38 38.5526 206.027 38.7822 205.587 38.9716C205.147 39.161 204.609 39.2557 203.975 39.2557ZM204.23 37.75C204.893 37.75 205.452 37.6198 205.907 37.3594C206.366 37.099 206.712 36.7628 206.944 36.3509C207.18 35.9389 207.299 35.5057 207.299 35.0511V33.517C207.228 33.6023 207.071 33.6804 206.83 33.7514C206.593 33.8177 206.319 33.8769 206.006 33.929C205.698 33.9763 205.398 34.0189 205.104 34.0568C204.815 34.09 204.581 34.1184 204.401 34.142C203.965 34.1989 203.558 34.2912 203.179 34.419C202.805 34.5421 202.502 34.7292 202.27 34.9801C202.043 35.2263 201.929 35.5625 201.929 35.9886C201.929 36.571 202.145 37.0114 202.576 37.3097C203.011 37.6032 203.563 37.75 204.23 37.75ZM213.71 24.4545V39H212.034V24.4545H213.71Z" fill="#9CA0A4"/>
</svg>
