<svg width="91" height="91" viewBox="0 0 91 91" fill="none" xmlns="http://www.w3.org/2000/svg">
<g id="SVG" clip-path="url(#clip0_1_101)">
<g id="Mask group">
<mask id="mask0_1_101" style="mask-type:alpha" maskUnits="userSpaceOnUse" x="0" y="9" width="90" height="74">
<g id="Group">
<path id="Vector" d="M0.724152 9.16309H89.8329V82.6517H0.724152V9.16309Z" fill="#8aabc4"/>
</g>
</mask>
<g mask="url(#mask0_1_101)">
<g id="Group_2">
<path id="Vector_2" opacity="0.2" fill-rule="evenodd" clip-rule="evenodd" d="M25.3036 35.8727C25.9966 36.0584 26.4078 36.7707 26.2221 37.4636C23.7862 46.5547 29.1812 55.8991 38.2722 58.3349C44.281 59.945 50.4028 58.1342 54.5662 54.0928H52.636C51.9187 54.0928 51.337 53.5113 51.337 52.7939C51.337 52.0765 51.9187 51.495 52.636 51.495H57.4243C58.1417 51.495 58.7233 52.0765 58.7233 52.7939V58.1715C58.7233 58.8888 58.1417 59.4705 57.4243 59.4705C56.7069 59.4705 56.1253 58.8888 56.1253 58.1715V56.1955C51.3366 60.682 44.4077 62.6686 37.5999 60.8444C27.1229 58.0372 20.9054 47.2681 23.7127 36.7912C23.8983 36.0982 24.6107 35.687 25.3036 35.8727Z" fill="#8aabc4"/>
<path id="Vector_3" opacity="0.2" fill-rule="evenodd" clip-rule="evenodd" d="M60.1754 46.909C59.4824 46.7233 59.0712 46.011 59.2569 45.3181C61.6928 36.227 56.2978 26.8826 47.2068 24.4467C41.198 22.8367 35.0762 24.6474 30.9128 28.6887H32.8429C33.5603 28.6887 34.142 29.2703 34.142 29.9877C34.142 30.7051 33.5603 31.2867 32.8429 31.2867H28.0547C27.3373 31.2867 26.7557 30.7051 26.7557 29.9877V24.6102C26.7557 23.8928 27.3373 23.3112 28.0547 23.3112C28.772 23.3112 29.3537 23.8928 29.3537 24.6102V26.5862C34.1424 22.0997 41.0713 20.1131 47.8791 21.9373C58.3561 24.7445 64.5736 35.5135 61.7663 45.9904C61.5806 46.6834 60.8683 47.0947 60.1754 46.909Z" fill="#8aabc4"/>
<path id="Vector_4" fill-rule="evenodd" clip-rule="evenodd" d="M71.7943 13.8735H13.7143C7.97487 13.8735 3.32217 18.5262 3.32217 24.2656V59.4709C3.32217 65.2102 7.97487 69.8629 13.7143 69.8629H71.7943C77.5336 69.8629 82.1863 65.2102 82.1863 59.4709V24.2656C82.1863 18.5262 77.5336 13.8735 71.7943 13.8735ZM13.7143 11.2755C6.54002 11.2755 0.724152 17.0914 0.724152 24.2656V59.4709C0.724152 66.645 6.54002 72.4609 13.7143 72.4609H71.7943C78.9685 72.4609 84.7843 66.6451 84.7843 59.4709V24.2656C84.7843 17.0914 78.9685 11.2755 71.7943 11.2755H13.7143Z" fill="#8aabc4"/>
<path id="Vector_5" fill-rule="evenodd" clip-rule="evenodd" d="M29.1989 80.2544C29.1989 79.537 29.7804 78.9554 30.4978 78.9554H55.3914C56.1088 78.9554 56.6905 79.537 56.6905 80.2544C56.6905 80.9718 56.1088 81.5533 55.3914 81.5533H30.4978C29.7804 81.5533 29.1989 80.9718 29.1989 80.2544Z" fill="#8aabc4"/>
<path id="Vector_6" fill-rule="evenodd" clip-rule="evenodd" d="M44.1532 31.9482V33.5178C44.3548 33.5519 44.5545 33.5941 44.7525 33.6436C45.3441 33.7914 45.8372 33.9723 46.2316 34.1858C46.6096 34.3995 46.9547 34.6131 47.2505 34.8432C47.3298 34.9049 47.4043 34.9618 47.4735 35.0147C47.6625 35.1591 47.8117 35.273 47.908 35.3692L48.1545 35.6157L46.4617 37.3085C46.3631 37.177 46.2316 37.0126 46.0673 36.8318C45.9029 36.6511 45.5085 36.4045 44.9004 36.0923C44.2759 35.78 43.6185 35.6322 42.9283 35.6322C42.0243 35.6322 41.3012 35.8622 40.7425 36.3388C40.1836 36.7989 39.9043 37.3578 39.9043 37.9823C39.9043 38.6233 40.2001 39.1492 40.8082 39.5436C41.3998 39.938 42.1394 40.2502 42.994 40.4803C43.8486 40.7105 44.7032 40.9898 45.5577 41.2856C46.4124 41.5815 47.1355 42.0745 47.7436 42.7648C48.3353 43.4551 48.6475 44.3261 48.6475 45.3943C48.6475 46.7749 48.1052 47.9418 47.0533 48.8621C46.2774 49.5306 45.3106 49.9649 44.1532 50.1526V51.7885H41.5552V50.1727C41.2245 50.1237 40.9044 50.0539 40.5945 49.9632C39.9206 49.766 39.3619 49.5194 38.9346 49.2565C38.4908 48.9771 38.1129 48.6977 37.7842 48.4183C37.4555 48.139 37.2254 47.9089 37.0775 47.7117L36.8639 47.3994L38.5567 45.723C38.5895 45.7887 38.6553 45.8709 38.7374 45.9696C38.8031 46.0682 38.9839 46.2654 39.2469 46.5283C39.5098 46.7913 39.8057 47.0378 40.118 47.2514C40.4138 47.4651 40.8082 47.6623 41.3012 47.8267C41.7778 47.991 42.2709 48.0732 42.7639 48.0732C43.8979 48.0732 44.7689 47.8103 45.377 47.3172C45.9851 46.8077 46.2973 46.1668 46.2973 45.3943C46.2973 44.7205 45.9851 44.1782 45.377 43.7509C44.7689 43.3236 44.0458 42.9949 43.1912 42.7483C42.3366 42.5019 41.4984 42.2224 40.6439 41.9266C39.7892 41.6308 39.0497 41.1542 38.4416 40.4968C37.8334 39.8394 37.5376 39.0012 37.5376 37.9658C37.5376 36.7497 38.0471 35.6979 39.0661 34.7775C39.7671 34.1557 40.6004 33.7438 41.5552 33.5474V31.9482H44.1532Z" fill="#8aabc4"/>
</g>
</g>
</g>
</g>
<defs>
<clipPath id="clip0_1_101">
<rect width="89.94" height="89.94" fill="white" transform="translate(0.47995 0.859985)"/>
</clipPath>
</defs>
</svg>
