<svg width="201" height="77" viewBox="0 0 201 77" fill="none" xmlns="http://www.w3.org/2000/svg">
<path fill-rule="evenodd" clip-rule="evenodd" d="M178 23C190.703 23 201 12.7025 201 0L201 23L178 23Z" fill="#26292B"/>
<path fill-rule="evenodd" clip-rule="evenodd" d="M0 77C12.7025 77 23 66.7025 23 54L23 77L0 77Z" fill="#26292B"/>
<path d="M22 46C22 32.7452 32.7452 22 46 22H201V77H22V46Z" fill="#26292B"/>
<path fill-rule="evenodd" clip-rule="evenodd" d="M113.296 57.2884L120.81 49.7741L122.004 50.9682L113.048 59.9238C112.718 60.2536 112.184 60.2536 111.854 59.9238L102.898 50.9682L104.093 49.7741L111.607 57.2884V41.6504L113.296 41.6504V57.2884Z" fill="#9CA0A4"/>
</svg>
