<svg version="1.1" id="Layer_1" xmlns="http://www.w3.org/2000/svg" xmlns:xlink="http://www.w3.org/1999/xlink" x="0px" y="0px"
	 width="100%" viewBox="0 0 2174 1048" enable-background="new 0 0 2174 1048" xml:space="preserve">
<path fill="#FFFFFF" opacity="1.000000" stroke="none" 
	d="
M1988.000000,1049.000000 
	C1326.833496,1049.000000 666.167053,1048.996338 5.500604,1049.092651 
	C1.753074,1049.093262 0.905734,1048.251221 0.906820,1044.500610 
	C1.007089,698.167358 1.007073,351.834137 0.907093,5.500930 
	C0.906012,1.754034 1.747862,0.906645 5.499106,0.907145 
	C727.165588,1.003415 1448.832031,1.003393 2170.498535,0.907583 
	C2174.243652,0.907086 2175.094482,1.745638 2175.093262,5.498473 
	C2174.992920,351.831696 2174.993164,698.164917 2175.093018,1044.498169 
	C2175.093994,1048.242676 2174.257080,1049.105103 2170.501709,1049.096680 
	C2109.834717,1048.960083 2049.167236,1049.000000 1988.000000,1049.000000 
z"/>
<path fill="#5CB6FA" opacity="1.000000" stroke="none" 
	d="
M333.330444,462.643127 
	C334.101379,460.722137 335.231720,461.325775 336.677917,462.036987 
	C337.896057,462.831726 338.053009,464.110718 339.404480,464.681580 
	C340.352264,462.271851 341.662140,463.841217 343.034210,464.311401 
	C343.622314,466.399658 344.691284,466.885590 346.732361,465.984985 
	C347.912964,466.029419 348.792084,466.176392 349.855072,466.604736 
	C353.421112,469.030090 356.947357,470.835449 361.279907,471.585754 
	C364.886230,471.357178 367.605621,473.166199 370.919952,474.153015 
	C371.272736,475.013489 371.613495,475.809692 372.189117,475.927734 
	C376.753601,476.863556 376.177063,479.453491 374.227234,482.797302 
	C372.920319,484.331329 371.799530,485.552338 370.395996,486.906616 
	C365.904205,491.628784 365.871338,491.661469 369.948456,495.760834 
	C377.409760,503.262848 384.841003,510.796417 392.417847,518.181091 
	C395.959320,521.632812 398.323761,521.589600 401.778809,518.184326 
	C420.071442,499.675964 438.183960,481.462402 456.593079,463.103882 
	C459.717316,461.596741 463.102081,461.050934 464.790466,457.436890 
	C467.476044,457.205383 469.951508,457.248169 472.713867,457.582825 
	C474.035309,463.677002 478.339813,467.180695 482.196045,471.016693 
	C490.447784,479.225220 498.617828,487.516174 506.912994,495.680481 
	C511.047180,499.749451 512.433105,499.488953 515.777771,494.185699 
	C526.737976,483.009430 537.517151,472.129181 548.592896,461.104004 
	C550.634521,459.604492 553.427246,460.077942 554.791870,457.429199 
	C557.327026,457.163971 559.653687,457.165405 562.367554,457.369873 
	C562.190796,461.248840 564.836853,463.444397 566.928284,465.576111 
	C584.259094,483.240631 601.816895,500.681000 619.370483,518.124207 
	C622.913452,521.644897 625.292786,521.583496 628.777344,518.187012 
	C637.337708,509.394226 645.494141,500.661560 654.196045,492.511139 
	C658.116821,488.838837 658.134949,486.413391 653.984131,483.461517 
	C653.319946,482.989136 652.817505,482.289276 652.093628,481.396973 
	C651.283020,477.958466 653.557312,477.022003 655.770508,476.231873 
	C669.981995,471.158264 684.183777,466.057861 698.400146,460.998230 
	C700.542480,460.235748 702.990295,459.041718 704.981323,460.962677 
	C707.004150,462.914337 705.790955,465.375000 705.029175,467.508057 
	C700.010254,481.561188 695.028503,495.628540 689.691956,509.566132 
	C688.910278,511.607697 688.149353,513.646240 685.291748,514.142090 
	C677.676880,507.823212 677.677246,507.823578 670.847412,514.652466 
	C658.719482,526.778564 646.591858,538.904968 634.462524,551.029724 
	C628.849304,556.640808 624.169250,556.636292 618.390381,550.870972 
	C600.237488,532.760620 582.118347,514.616516 563.986084,496.485504 
	C557.999939,490.499756 557.996521,490.496124 551.846619,496.655060 
	C545.611511,502.899323 539.384338,509.151520 532.994385,515.701172 
	C530.539673,518.742798 531.340515,521.139954 533.610901,523.422241 
	C542.474609,532.332275 551.402954,541.177856 560.242493,550.111450 
	C562.164368,552.053772 564.042053,552.583313 566.702759,550.956177 
	C568.472229,553.271851 569.509338,555.734863 568.414490,558.817139 
	C566.584534,560.164490 566.102051,561.922241 565.215698,563.826050 
	C549.911865,579.351746 534.883484,594.695007 519.594604,609.774170 
	C514.776550,614.526123 509.595917,614.058105 504.740417,609.217407 
	C488.225891,592.753296 471.787476,576.212524 455.215607,559.806396 
	C453.090729,557.702820 452.813324,556.494080 455.118408,554.275818 
	C464.114227,545.618774 472.905060,536.748779 482.081940,527.880493 
	C483.812866,527.619629 485.369476,526.718872 486.568176,528.154480 
	C491.004059,533.466675 497.181396,537.204346 500.473297,543.547058 
	C500.934601,544.435913 501.347992,545.330872 501.161896,546.734497 
	C498.085205,550.201355 495.118713,553.302002 491.993622,556.703674 
	C489.755768,559.997009 490.526825,562.462219 493.011810,564.866760 
	C497.397278,569.110352 501.609863,573.533081 505.994415,577.778259 
	C510.100983,581.754272 511.463745,581.502686 514.776733,576.186523 
	C521.562073,569.796082 528.165039,563.702698 534.851257,557.532471 
	C512.909241,535.183655 492.008514,513.971252 471.228424,492.641327 
	C468.393890,489.731842 467.263885,492.269501 465.766785,493.762970 
	C447.010773,512.472656 428.096130,531.029541 409.660431,550.050476 
	C403.675720,556.225159 397.334717,556.942871 390.555145,550.084717 
	C378.256073,537.643250 365.666199,525.484497 353.556854,512.863159 
	C349.901001,509.052734 347.475708,508.728821 344.478882,512.998718 
	C344.009186,513.667908 343.302002,514.170471 342.407562,514.895508 
	C341.095184,515.659302 340.034973,515.927917 338.521179,515.227661 
	C332.101715,497.941559 326.040680,480.883759 319.936462,463.435730 
	C320.717285,460.674713 322.100159,459.100525 325.312073,459.601471 
	C325.730347,459.665741 325.482971,459.436737 325.597961,459.313477 
	C326.408630,459.688660 327.149231,460.118134 328.286377,460.646759 
	C328.710052,460.704224 328.513275,460.349670 328.679443,460.233490 
	C329.974792,461.327911 331.686127,461.580627 333.330444,462.643127 
z"/>
<path fill="#5CB6FA" opacity="1.000000" stroke="none" 
	d="
M628.655396,518.037109 
	C628.013733,522.577148 623.699219,523.851807 619.909363,520.329102 
	C615.654663,516.374268 611.650696,512.149658 607.540344,508.039734 
	C594.152161,494.653076 580.743774,481.286560 567.401489,467.854309 
	C565.429504,465.869019 563.769348,463.573395 561.971558,461.415833 
	C561.002625,460.253052 560.708191,459.089661 562.391479,457.765808 
	C565.521851,458.407532 567.662415,460.106812 569.690125,462.143768 
	C587.639038,480.174438 605.625061,498.168488 623.686890,516.085876 
	C624.840942,517.230713 625.635132,520.137695 628.655396,518.037109 
z"/>
<path fill="#5CB6FA" opacity="1.000000" stroke="none" 
	d="
M685.057068,514.358521 
	C687.859985,512.937134 688.232239,510.011658 689.112061,507.619232 
	C694.208923,493.759186 699.154053,479.843323 704.139404,465.942352 
	C704.633118,464.565582 705.649597,463.039001 704.443237,461.729401 
	C702.999817,460.162323 701.308655,461.412842 699.820801,461.939484 
	C685.043213,467.170563 670.293823,472.481384 655.501648,477.670288 
	C653.947083,478.215637 652.885254,478.986328 652.095337,480.766724 
	C650.555298,480.000122 648.362549,479.044006 648.660156,477.187378 
	C648.936890,475.460999 651.422913,475.701752 652.882568,475.167450 
	C670.410156,468.751617 687.983276,462.458069 705.596619,456.281494 
	C707.042786,455.774384 708.947815,454.154846 710.169189,455.373199 
	C711.526794,456.727509 709.921814,458.634430 709.358154,460.200623 
	C702.927551,478.069458 696.391663,495.900543 690.004333,513.784729 
	C688.761292,517.264954 687.401001,517.566284 685.057068,514.358521 
z"/>
<path fill="#5CB6FA" opacity="1.000000" stroke="none" 
	d="
M515.673340,494.029388 
	C516.011475,496.339417 515.518921,498.727234 513.094116,499.735229 
	C510.362335,500.870880 508.488708,499.040955 506.655487,497.193298 
	C496.496490,486.954590 486.346497,476.704712 476.024994,466.631195 
	C473.651703,464.314941 472.579315,461.907074 473.000366,458.298279 
	C475.500397,457.626862 476.871155,459.357605 478.397919,460.887787 
	C489.199951,471.713684 500.016541,482.525146 510.845703,493.323975 
	C512.132019,494.606720 513.314514,496.914001 515.673340,494.029388 
z"/>
<path fill="#5CB6FA" opacity="1.000000" stroke="none" 
	d="
M566.900818,550.597351 
	C565.148621,554.428467 563.098083,554.735657 560.162598,551.736084 
	C550.884888,542.255859 541.383606,532.994446 532.103333,523.516724 
	C529.917236,521.284119 527.788879,518.533875 532.453857,516.016846 
	C544.141907,527.435181 555.448853,538.868347 566.900818,550.597351 
z"/>
<path fill="#5CB6FA" opacity="1.000000" stroke="none" 
	d="
M401.655334,518.037048 
	C401.075531,522.285645 396.695435,523.923584 393.308716,520.662598 
	C384.114166,511.809265 375.013794,502.840454 366.264191,493.551849 
	C362.962738,490.047028 366.971344,488.603851 369.752747,487.058655 
	C369.651367,488.888763 370.575012,490.113647 371.822968,491.352173 
	C380.483734,499.947052 389.088196,508.598663 397.731537,517.211182 
	C398.715515,518.191650 399.625061,519.809143 401.655334,518.037048 
z"/>
<path fill="#5CB6FA" opacity="1.000000" stroke="none" 
	d="
M514.673462,576.029236 
	C515.011780,578.335327 514.521118,580.719971 512.102783,581.731140 
	C509.377899,582.870422 507.488037,581.070374 505.668884,579.207703 
	C500.810699,574.233276 495.829559,569.379211 490.950165,564.425171 
	C488.549438,561.987793 487.517426,559.466064 491.477509,557.058533 
	C498.197113,563.471680 504.617950,569.882629 510.880066,576.444946 
	C512.446838,578.086792 513.309082,577.372070 514.673462,576.029236 
z"/>
<path fill="#5CB6FA" opacity="1.000000" stroke="none" 
	d="
M501.347168,546.952698 
	C496.871185,539.061035 490.501373,533.056641 482.800842,527.856079 
	C486.638702,522.140869 486.563538,522.219055 491.660278,527.117676 
	C496.669800,531.932434 501.215271,537.151245 506.175842,543.066589 
	C504.708954,544.276184 503.175812,545.540405 501.347168,546.952698 
z"/>
<path fill="#5CB6FA" opacity="1.000000" stroke="none" 
	d="
M325.727814,459.275574 
	C323.502441,459.840729 322.124939,461.452240 320.222107,462.888672 
	C318.185944,460.859924 316.259796,456.580139 317.520660,456.000061 
	C320.086731,454.819550 323.562378,456.175537 325.727814,459.275574 
z"/>
<path fill="#5CB6FA" opacity="1.000000" stroke="none" 
	d="
M374.344666,482.955200 
	C373.871216,480.740540 376.418182,477.153931 371.293549,476.933563 
	C371.210999,476.930023 371.178986,475.750793 371.191986,474.706238 
	C371.894348,474.447113 372.552643,474.537140 373.158020,474.766693 
	C380.157135,477.421021 380.155029,477.426605 374.344666,482.955200 
z"/>
<path fill="#5CB6FA" opacity="1.000000" stroke="none" 
	d="
M361.434326,471.323669 
	C356.455963,474.033203 353.585052,469.944916 350.072144,467.234131 
	C353.966156,467.746185 357.889343,468.617157 361.434326,471.323669 
z"/>
<path fill="#5CB6FA" opacity="1.000000" stroke="none" 
	d="
M464.663818,457.218811 
	C464.921783,462.042206 461.900330,463.239929 457.303345,462.971436 
	C458.577240,460.028534 461.493469,458.705780 464.663818,457.218811 
z"/>
<path fill="#5CB6FA" opacity="1.000000" stroke="none" 
	d="
M554.661987,457.220276 
	C555.207947,461.160797 552.480835,461.099640 549.301880,460.971558 
	C549.932678,458.597961 552.278687,458.160126 554.661987,457.220276 
z"/>
<path fill="#5CB6FA" opacity="1.000000" stroke="none" 
	d="
M346.830536,465.589294 
	C346.791962,468.265350 345.071045,468.213379 343.449646,467.844086 
	C341.615417,467.426331 342.542267,466.196564 343.128479,464.827271 
	C344.417664,464.738190 345.522430,465.017151 346.830536,465.589294 
z"/>
<path fill="#5CB6FA" opacity="1.000000" stroke="none" 
	d="
M333.730164,462.296814 
	C331.916443,462.835236 329.819977,463.837402 328.905396,460.610046 
	C331.234619,458.638580 332.534027,460.133118 333.730164,462.296814 
z"/>
<path fill="#5CB6FA" opacity="1.000000" stroke="none" 
	d="
M565.350098,563.950012 
	C565.076111,562.099243 564.498352,559.805298 567.733521,559.066895 
	C568.287720,561.135498 567.216919,562.588196 565.350098,563.950012 
z"/>
<path fill="#5CB6FA" opacity="1.000000" stroke="none" 
	d="
M338.211304,515.316162 
	C339.214874,515.004761 340.266968,515.010254 341.714783,515.028320 
	C341.066681,516.797546 339.909241,517.814819 338.211304,515.316162 
z"/>
<path fill="#5CB6FA" opacity="1.000000" stroke="none" 
	d="
M339.745300,464.319763 
	C338.208160,465.065002 337.144501,464.729401 337.014404,462.548218 
	C338.536194,461.807037 339.249512,462.720001 339.745300,464.319763 
z"/>
<path fill="#5CB6FA" opacity="1.000000" stroke="none" 
	d="
M328.688232,460.318726 
	C327.746857,460.894318 326.831909,460.891052 325.918335,459.624573 
	C327.132629,457.707886 327.912354,458.769470 328.688232,460.318726 
z"/>
</svg>