<?xml version="1.0" encoding="UTF-8"?>
<svg version="1.1" xmlns="http://www.w3.org/2000/svg" width="512" height="512">
<path d="M0 0 C32.67 0 65.34 0 99 0 C95.52736775 53.24702788 95.52736775 53.24702788 93.9921875 74.30859375 C93.81943367 76.69230107 93.64675721 79.076014 93.47415161 81.45973206 C93.12078555 86.33415929 92.76618163 91.20849433 92.41064453 96.08276367 C91.95617069 102.31556265 91.50558599 108.54863664 91.0559063 114.7817831 C90.70416482 119.65031795 90.35017416 124.51868728 89.99551773 129.38701057 C89.82810947 131.68939793 89.66145704 133.99184039 89.49560165 136.29434013 C89.2661675 139.47561747 89.03363104 142.65665344 88.80029297 145.83764648 C88.70054672 147.23436584 88.70054672 147.23436584 88.5987854 148.65930176 C88.24175225 153.47894196 87.74997082 158.22523665 87 163 C88.18924072 162.50822266 89.37848145 162.01644531 90.60375977 161.50976562 C112.11412092 152.61568732 133.62712105 143.72855637 155.16876221 134.91046143 C164.44857508 131.1112629 173.71937803 127.29154372 182.9765625 123.4375 C183.89505478 123.05538361 184.81354706 122.67326721 185.75987244 122.27957153 C190.17517727 120.44243855 194.58928734 118.60253914 199.0012207 116.75732422 C208.92448808 112.61860182 218.90301642 108.69522943 229 105 C239.02130887 134.32608876 249.0175481 163.66066283 259 193 C256.09854025 194.9343065 254.15481392 195.64673686 250.83610535 196.54232788 C249.76678772 196.83379196 248.69747009 197.12525604 247.5957489 197.42555237 C246.42228409 197.73935349 245.24881927 198.0531546 244.03979492 198.37646484 C242.80363434 198.7117067 241.56747375 199.04694855 240.29385376 199.39234924 C236.89988464 200.31267245 233.50411615 201.22618966 230.10800719 202.13857985 C226.54333994 203.0975588 222.98041528 204.06296783 219.41731262 205.02774048 C212.65310158 206.85825957 205.88742745 208.68330744 199.12117416 210.50626147 C189.23866614 213.16904006 179.35830566 215.83976545 169.47800922 218.51073647 C168.01051192 218.9074383 166.5430141 219.30413822 165.07551575 219.70083618 C164.35775367 219.89487522 163.63999159 220.08891425 162.90047914 220.28883326 C158.67233566 221.43166716 154.44376167 222.57288999 150.2147783 223.71261191 C148.20572527 224.25414616 146.19679068 224.79611749 144.18789673 225.33824158 C141.7571733 225.99410852 139.32624918 226.64923242 136.89506531 227.3033905 C129.8947823 229.1935502 122.93006371 231.17601163 115.98260975 233.2528019 C113 234 113 234 109 234 C111.78068497 238.33631292 114.81474098 242.29053965 118.1875 246.1875 C119.16868636 247.33402168 120.14914452 248.48116691 121.12890625 249.62890625 C121.8561792 250.4799292 121.8561792 250.4799292 122.59814453 251.34814453 C126.87329675 256.38570634 131.00455533 261.54517238 135.171875 266.671875 C139.25276429 271.67892357 143.3780369 276.64205438 147.5625 281.5625 C151.43112303 286.11155415 155.19777962 290.72506608 158.90625 295.40625 C161.38811041 298.48079349 163.93848513 301.49179044 166.5 304.5 C170.39498709 309.07422189 174.18773515 313.7116004 177.91796875 318.421875 C180.33084683 321.40967901 182.81821465 324.3303394 185.3125 327.25 C193.23665631 336.54577785 200.73468564 346.18200762 208 356 C200.2843807 361.73401216 192.55484493 367.38639041 184.51953125 372.66796875 C179.85097449 375.74462419 175.24202923 378.909309 170.625 382.0625 C169.69026855 382.70074707 168.75553711 383.33899414 167.79248047 383.99658203 C165.85392953 385.32036635 163.91545425 386.64426148 161.97705078 387.96826172 C158.96429773 390.02436561 155.94930046 392.07713737 152.93359375 394.12890625 C151.94987793 394.79849365 150.96616211 395.46808105 149.95263672 396.15795898 C148.0757438 397.43538138 146.19848602 398.71226792 144.32080078 399.98852539 C143.46341309 400.57239014 142.60602539 401.15625488 141.72265625 401.7578125 C140.91328613 402.30598633 140.10391602 402.85416016 139.27001953 403.41894531 C137.16674272 404.88386472 135.14993017 406.42706973 133.12109375 407.9921875 C130 410 130 410 127.96704102 409.86328125 C125.41666653 408.74399067 124.77785581 407.60325481 123.40625 405.1953125 C122.93968994 404.39424072 122.47312988 403.59316895 121.99243164 402.76782227 C121.4999292 401.89569092 121.00742676 401.02355957 120.5 400.125 C119.42778574 398.28138485 118.35351607 396.43896377 117.27734375 394.59765625 C116.73190918 393.65937988 116.18647461 392.72110352 115.62451172 391.75439453 C113.19355145 387.63264916 110.63674275 383.59577929 108.0625 379.5625 C103.89367102 373.00565482 99.76920401 366.42395524 95.6875 359.8125 C90.98237332 352.19315718 86.25102202 344.5908112 81.5 337 C76.8138868 329.51190562 72.14404439 322.01425718 67.5 314.5 C65.33445173 310.99930676 63.16767468 307.49937693 61 304 C60.34338379 302.93990723 59.68676758 301.87981445 59.01025391 300.78759766 C56.94740132 297.46064988 54.88045322 294.13627922 52.8125 290.8125 C52.16410156 289.76578125 51.51570312 288.7190625 50.84765625 287.640625 C50.244375 286.67253906 49.64109375 285.70445312 49.01953125 284.70703125 C48.48432861 283.8456958 47.94912598 282.98436035 47.39770508 282.09692383 C46.03553458 279.90473779 46.03553458 279.90473779 44 278 C36.21872787 289.59286592 28.58837621 301.28014858 21 313 C20.51354004 313.75104004 20.02708008 314.50208008 19.52587891 315.27587891 C16.79632675 319.49050369 14.06899411 323.70655951 11.34277344 327.92333984 C9.06276071 331.44948316 6.78129794 334.97468809 4.5 338.5 C3.58332659 339.9166623 2.66665992 341.33332897 1.75 342.75 C-0.08333333 345.58333333 -1.91666667 348.41666667 -3.75 351.25 C-4.20358887 351.9510083 -4.65717773 352.6520166 -5.12451172 353.37426758 C-6.042779 354.79339311 -6.96107335 356.21250114 -7.87939453 357.6315918 C-10.14679201 361.13549597 -12.41374501 364.63968595 -14.6796875 368.14453125 C-15.57809743 369.533872 -16.476535 370.92319486 -17.375 372.3125 C-17.81779297 372.99731445 -18.26058594 373.68212891 -18.71679688 374.38769531 C-21.29706307 378.37588136 -23.88393407 382.35968163 -26.4765625 386.33984375 C-27.06260254 387.23985107 -27.64864258 388.1398584 -28.25244141 389.06713867 C-29.39194835 390.81651585 -30.53221175 392.56540058 -31.67333984 394.3137207 C-34.18541183 398.1705175 -36.67411886 402.02661972 -39 406 C-42.98481736 404.57120636 -46.22732616 402.66180487 -49.7265625 400.2890625 C-50.26737457 399.92481171 -50.80818665 399.56056091 -51.36538696 399.18527222 C-52.52177277 398.40609931 -53.67684008 397.62496659 -54.83068848 396.84204102 C-57.86701108 394.78257191 -60.91373069 392.7386299 -63.9609375 390.6953125 C-64.56647461 390.28899597 -65.17201172 389.88267944 -65.79589844 389.46405029 C-70.89181551 386.05335769 -76.04937205 382.74889239 -81.25 379.5 C-88.63224528 374.88355029 -95.90299333 370.12658095 -103.12353516 365.26171875 C-106.55410204 362.95503521 -109.99671922 360.66640664 -113.4375 358.375 C-114.7070791 357.52871761 -115.97661503 356.68237046 -117.24609375 355.8359375 C-118.15488281 355.23007812 -119.06367187 354.62421875 -120 354 C-117.0919924 349.43422085 -113.87767615 345.37917152 -110.3125 341.3125 C-106.64800656 337.08765926 -103.02162276 332.84569536 -99.5 328.5 C-95.5662143 323.65403211 -91.51552241 318.91901472 -87.44140625 314.19140625 C-84.41041716 310.66682097 -81.43007419 307.10951168 -78.5 303.5 C-75.06791987 299.2720752 -71.55448829 295.1247211 -68 291 C-63.67827137 285.98408311 -59.44520804 280.90824701 -55.26953125 275.76953125 C-50.45311061 269.89200589 -45.505057 264.12388086 -40.58398438 258.33398438 C-35.01822469 251.78286198 -29.49331482 245.2056553 -24.0703125 238.53515625 C-21.73318851 235.67328178 -19.36698947 232.83721838 -17 230 C-28.62048558 226.27520979 -40.31325579 222.9057936 -52.08203125 219.68359375 C-53.90678561 219.181666 -55.73146537 218.67946701 -57.55607605 218.17701721 C-62.34410395 216.85917664 -67.13299016 215.54448459 -71.92211914 214.23065186 C-76.64054823 212.93586374 -81.35838174 211.63891089 -86.07617188 210.34179688 C-87.0048451 210.08649012 -87.93351833 209.83118336 -88.89033318 209.56814003 C-96.38633412 207.50699503 -103.88138105 205.44239662 -111.37582588 203.37560081 C-116.29766093 202.01863248 -121.22034962 200.66487614 -126.14447021 199.31622314 C-131.20050153 197.93136703 -136.25472307 196.54008045 -141.3077755 195.14439583 C-143.22410339 194.61635009 -145.14108192 194.09065951 -147.05872536 193.56741142 C-149.70325055 192.84546534 -152.3453681 192.11528891 -154.98706055 191.38305664 C-155.77374052 191.17040979 -156.56042049 190.95776295 -157.37093925 190.73867226 C-162.77190342 189.22809658 -162.77190342 189.22809658 -165 187 C-162.12469605 178.59152713 -159.24692324 170.18390416 -156.36620235 161.77728558 C-155.02788793 157.87153181 -153.69034935 153.96551634 -152.35473633 150.05883789 C-141.00838962 116.87413107 -141.00838962 116.87413107 -135 101 C-131.66521201 101.59133829 -128.68379987 102.40905445 -125.55322266 103.69555664 C-124.69694275 104.04487747 -123.84066284 104.3941983 -122.95843506 104.75410461 C-122.03629211 105.13560165 -121.11414917 105.51709869 -120.1640625 105.91015625 C-118.70253754 106.50856575 -118.70253754 106.50856575 -117.21148682 107.11906433 C-114.01424446 108.42933012 -110.81963329 109.7458872 -107.625 111.0625 C-105.39616315 111.97729515 -103.16715752 112.89167917 -100.93798828 113.80566406 C-96.42574692 115.6565672 -91.91454523 117.50996834 -87.40429688 119.36572266 C-81.75577244 121.68978725 -76.10509729 124.00855362 -70.453125 126.32421875 C-64.13301929 128.9140056 -57.81399642 131.50640588 -51.49609375 134.1015625 C-45.69644341 136.48377155 -39.89543086 138.86261936 -34.09289551 141.23779297 C-30.55790187 142.68479678 -27.02324119 144.132613 -23.48858643 145.58044434 C-21.82187797 146.26288682 -20.15501449 146.94495084 -18.48797607 147.62658691 C-16.16733488 148.57553116 -13.84728778 149.52591534 -11.52734375 150.4765625 C-10.54206444 150.87879532 -10.54206444 150.87879532 -9.53688049 151.28915405 C-2.65683487 154.11152818 4.16916815 157.06110154 11 160 C10.93105026 159.18387741 10.86210052 158.36775482 10.7910614 157.52690125 C8.41276315 129.19447257 6.36138611 100.84019977 4.35571289 72.47924805 C3.89881027 66.02068639 3.43687198 59.56249495 2.97377491 53.10437489 C2.61361883 48.07129359 2.25667462 43.03798828 1.90064049 38.00461388 C1.73152871 35.62083617 1.56129462 33.23713778 1.3898716 30.85352516 C1.15214099 27.54295912 0.918906 24.23210482 0.68676758 20.92114258 C0.58162842 19.47731453 0.58162842 19.47731453 0.47436523 18.00431824 C0.41138748 17.0932431 0.34840973 16.18216797 0.28352356 15.2434845 C0.22842526 14.46745786 0.17332697 13.69143122 0.11655903 12.89188862 C-0.05651222 8.59790322 0 4.29747184 0 0 Z " fill="#2096F3" transform="translate(209,51)"/>
</svg>
