<svg width="108" height="108" viewBox="0 0 108 108" fill="none" xmlns="http://www.w3.org/2000/svg">
<path d="M27 33.75H54V40.5H27V33.75ZM27 20.25H67.5V27H27V20.25ZM27 6.75H67.5V13.5H27V6.75Z" fill="#61717E"/>
<path d="M15.8996 94.5L34.9043 60.7635L59.994 82.6672C60.7524 83.3421 61.6533 83.8372 62.6296 84.1157C63.6059 84.3942 64.6324 84.4489 65.6328 84.2757C66.6331 84.1024 67.5815 83.7058 68.4073 83.1153C69.2332 82.5248 69.9151 81.7556 70.4025 80.865L93.9262 45.7549L88.3204 41.9951L64.6954 77.2571L64.4591 77.6047L39.366 55.701C38.6078 55.03 37.7086 54.5378 36.7347 54.2609C35.7608 53.9839 34.7371 53.9293 33.7393 54.101C32.7414 54.2727 31.7949 54.6664 30.9696 55.2529C30.1443 55.8394 29.4613 56.6039 28.971 57.4898L13.5 84.9926V6.75H6.75V94.5C6.75179 96.2897 7.46352 98.0055 8.729 99.271C9.99449 100.536 11.7103 101.248 13.5 101.25H101.25V94.5H15.8996Z" fill="#8AABC4"/>
</svg>
