<svg width="116" height="116" viewBox="0 0 116 116" fill="none" xmlns="http://www.w3.org/2000/svg">
<g clip-path="url(#clip0_531_315)">
<path d="M36.25 47.125H43.5V54.375H36.25V47.125ZM50.75 47.125H79.75V54.375H50.75V47.125ZM36.25 65.25H43.5V72.5H36.25V65.25ZM36.25 83.375H43.5V90.625H36.25V83.375Z" fill="#8AABC4"/>
<path d="M25.375 101.5V25.375H36.25V36.25H79.75V25.375H90.625V54.375H97.875V25.375C97.875 23.4522 97.1112 21.6081 95.7515 20.2485C94.3919 18.8888 92.5478 18.125 90.625 18.125H79.75V14.5C79.75 12.5772 78.9862 10.7331 77.6265 9.37348C76.2669 8.01384 74.4228 7.25 72.5 7.25H43.5C41.5772 7.25 39.7331 8.01384 38.3735 9.37348C37.0138 10.7331 36.25 12.5772 36.25 14.5V18.125H25.375C23.4522 18.125 21.6081 18.8888 20.2485 20.2485C18.8888 21.6081 18.125 23.4522 18.125 25.375V101.5C18.125 103.423 18.8888 105.267 20.2485 106.627C21.6081 107.986 23.4522 108.75 25.375 108.75H58V101.5H25.375ZM43.5 14.5H72.5V29H43.5V14.5Z" fill="#8AABC4"/>
<path d="M65.25 68.8753V77.6224C67.5268 73.8156 70.7623 70.6725 74.6335 68.507C78.5047 66.3414 82.8762 65.2291 87.3117 65.281C91.7471 65.333 96.0913 66.5474 99.9108 68.803C103.73 71.0586 106.891 74.2766 109.078 78.1356C111.265 81.9947 112.402 86.36 112.375 90.7956C112.347 95.2313 111.157 99.5822 108.923 103.414C106.689 107.246 103.488 110.425 99.6414 112.633C95.7946 114.842 91.4357 116.003 87 116V108.75C90.2687 108.755 93.4778 107.875 96.2874 106.204C99.097 104.534 101.402 102.134 102.96 99.2602C104.517 96.3862 105.268 93.1446 105.133 89.8786C104.999 86.6126 103.983 83.4438 102.195 80.7078C100.406 77.9718 97.911 75.7704 94.9734 74.3367C92.0359 72.903 88.7653 72.2904 85.5079 72.5638C82.2506 72.8372 79.1279 73.9864 76.4704 75.8896C73.8129 77.7929 71.7195 80.3794 70.412 83.3753H79.75V90.6253H58V68.8753H65.25Z" fill="#61717E"/>
</g>
<defs>
<clipPath id="clip0_531_315">
<rect width="116" height="116" fill="white"/>
</clipPath>
</defs>
</svg>
