<svg width="118" height="118" viewBox="0 0 118 118" fill="none" xmlns="http://www.w3.org/2000/svg">
<path d="M55.3125 22.125H103.25V29.5H55.3125V22.125ZM55.3125 88.5H103.25V95.875H55.3125V88.5ZM14.75 55.3125H62.6875V62.6875H14.75V55.3125ZM25.8125 40.5625C22.8952 40.5625 20.0435 39.6974 17.6178 38.0767C15.1922 36.4559 13.3017 34.1523 12.1853 31.4571C11.0689 28.7619 10.7768 25.7961 11.3459 22.9349C11.9151 20.0737 13.3199 17.4455 15.3827 15.3827C17.4455 13.3199 20.0737 11.9151 22.9349 11.3459C25.7961 10.7768 28.7619 11.0689 31.4571 12.1853C34.1523 13.3017 36.4559 15.1922 38.0767 17.6178C39.6974 20.0435 40.5625 22.8952 40.5625 25.8125C40.5625 29.7245 39.0085 33.4762 36.2423 36.2423C33.4762 39.0085 29.7245 40.5625 25.8125 40.5625ZM25.8125 18.4375C24.3539 18.4375 22.928 18.87 21.7152 19.6804C20.5024 20.4908 19.5571 21.6426 18.9989 22.9902C18.4407 24.3378 18.2946 25.8207 18.5792 27.2513C18.8638 28.6819 19.5662 29.996 20.5976 31.0274C21.629 32.0588 22.9431 32.7612 24.3737 33.0458C25.8043 33.3304 27.2872 33.1843 28.6348 32.6261C29.9824 32.0679 31.1342 31.1226 31.9446 29.9098C32.755 28.697 33.1875 27.2711 33.1875 25.8125C33.1875 23.8565 32.4105 21.9807 31.0274 20.5976C29.6443 19.2145 27.7685 18.4375 25.8125 18.4375ZM25.8125 106.938C22.8952 106.938 20.0435 106.072 17.6178 104.452C15.1922 102.831 13.3017 100.527 12.1853 97.8321C11.0689 95.1369 10.7768 92.1711 11.3459 89.3099C11.9151 86.4487 13.3199 83.8205 15.3827 81.7577C17.4455 79.6949 20.0737 78.2901 22.9349 77.7209C25.7961 77.1518 28.7619 77.4439 31.4571 78.5603C34.1523 79.6767 36.4559 81.5672 38.0767 83.9928C39.6974 86.4185 40.5625 89.2702 40.5625 92.1875C40.5625 96.0995 39.0085 99.8512 36.2423 102.617C33.4762 105.383 29.7245 106.938 25.8125 106.938ZM25.8125 84.8125C24.3539 84.8125 22.928 85.245 21.7152 86.0554C20.5024 86.8658 19.5571 88.0176 18.9989 89.3652C18.4407 90.7128 18.2946 92.1957 18.5792 93.6263C18.8638 95.0569 19.5662 96.371 20.5976 97.4024C21.629 98.4338 22.9431 99.1362 24.3737 99.4208C25.8043 99.7054 27.2872 99.5593 28.6348 99.0011C29.9824 98.4429 31.1342 97.4977 31.9446 96.2848C32.755 95.072 33.1875 93.6461 33.1875 92.1875C33.1875 90.2315 32.4105 88.3557 31.0274 86.9726C29.6443 85.5895 27.7685 84.8125 25.8125 84.8125ZM92.1875 73.75C89.2702 73.75 86.4185 72.8849 83.9928 71.2642C81.5672 69.6434 79.6767 67.3398 78.5603 64.6446C77.4439 61.9494 77.1518 58.9836 77.7209 56.1224C78.2901 53.2612 79.6949 50.633 81.7577 48.5702C83.8205 46.5074 86.4487 45.1026 89.3099 44.5334C92.1711 43.9643 95.1369 44.2564 97.8321 45.3728C100.527 46.4892 102.831 48.3797 104.452 50.8053C106.072 53.231 106.938 56.0827 106.938 59C106.938 62.912 105.383 66.6637 102.617 69.4298C99.8512 72.196 96.0995 73.75 92.1875 73.75ZM92.1875 51.625C90.7289 51.625 89.303 52.0575 88.0902 52.8679C86.8774 53.6783 85.9321 54.8301 85.3739 56.1777C84.8157 57.5253 84.6696 59.0082 84.9542 60.4388C85.2388 61.8694 85.9412 63.1835 86.9726 64.2149C88.004 65.2463 89.3181 65.9487 90.7487 66.2333C92.1793 66.5179 93.6622 66.3718 95.0098 65.8136C96.3574 65.2554 97.5092 64.3102 98.3196 63.0973C99.13 61.8845 99.5625 60.4586 99.5625 59C99.5625 57.044 98.7855 55.1682 97.4024 53.7851C96.0193 52.402 94.1435 51.625 92.1875 51.625Z" fill="#8AABC4"/>
</svg>
