<svg width="211" height="60" viewBox="0 0 211 60" fill="none" xmlns="http://www.w3.org/2000/svg">
<path fill-rule="evenodd" clip-rule="evenodd" d="M26.5767 28.2337C26.5676 13.5637 14.6718 1.67436 5.42738e-07 1.67437L0 0L210.611 0.00372902V1.67434C195.933 1.67434 184.034 13.5729 184.034 28.2506V43.2424C184.034 52.2749 176.712 59.5974 167.679 59.5974H42.9314C33.8987 59.5974 26.5767 52.2749 26.5767 43.2424V28.2337Z" fill="#26292B"/>
<path d="M63.0664 21.2637C64.8828 21.2637 66.2923 21.7422 67.2949 22.6992C68.2975 23.6562 68.8542 24.7435 68.9648 25.9609H67.0703C66.8555 25.0365 66.4258 24.304 65.7812 23.7637C65.1432 23.2233 64.2448 22.9531 63.0859 22.9531C61.6732 22.9531 60.5306 23.4512 59.6582 24.4473C58.7923 25.4368 58.3594 26.957 58.3594 29.0078C58.3594 30.6875 58.75 32.0514 59.5312 33.0996C60.319 34.1413 61.4909 34.6621 63.0469 34.6621C64.4792 34.6621 65.5697 34.112 66.3184 33.0117C66.7155 32.4323 67.0117 31.6706 67.207 30.7266H69.1016C68.9323 32.237 68.3724 33.5033 67.4219 34.5254C66.2826 35.7559 64.7461 36.3711 62.8125 36.3711C61.1458 36.3711 59.7461 35.8665 58.6133 34.8574C57.1224 33.5228 56.377 31.4622 56.377 28.6758C56.377 26.5599 56.9368 24.8249 58.0566 23.4707C59.2676 21.9993 60.9375 21.2637 63.0664 21.2637ZM75.3906 34.8672C76.556 34.8672 77.3535 34.4277 77.7832 33.5488C78.2194 32.6634 78.4375 31.6803 78.4375 30.5996C78.4375 29.623 78.2812 28.8288 77.9688 28.2168C77.474 27.2533 76.6211 26.7715 75.4102 26.7715C74.3359 26.7715 73.5547 27.1816 73.0664 28.002C72.5781 28.8223 72.334 29.8118 72.334 30.9707C72.334 32.084 72.5781 33.0117 73.0664 33.7539C73.5547 34.4961 74.3294 34.8672 75.3906 34.8672ZM75.459 25.2383C76.8066 25.2383 77.946 25.6875 78.877 26.5859C79.8079 27.4844 80.2734 28.806 80.2734 30.5508C80.2734 32.237 79.8633 33.6302 79.043 34.7305C78.2227 35.8307 76.9499 36.3809 75.2246 36.3809C73.7858 36.3809 72.6432 35.8958 71.7969 34.9258C70.9505 33.9492 70.5273 32.6406 70.5273 31C70.5273 29.2422 70.9733 27.8424 71.8652 26.8008C72.7572 25.7591 73.9551 25.2383 75.459 25.2383ZM82.373 25.541H84.043V27.0254C84.5378 26.4134 85.0618 25.974 85.6152 25.707C86.1686 25.4401 86.7839 25.3066 87.4609 25.3066C88.9453 25.3066 89.9479 25.8242 90.4688 26.8594C90.7552 27.4258 90.8984 28.2363 90.8984 29.291V36H89.1113V29.4082C89.1113 28.7702 89.0169 28.2559 88.8281 27.8652C88.5156 27.2142 87.9492 26.8887 87.1289 26.8887C86.7122 26.8887 86.3704 26.931 86.1035 27.0156C85.6217 27.1589 85.1986 27.4453 84.834 27.875C84.541 28.2201 84.349 28.5781 84.2578 28.9492C84.1732 29.3138 84.1309 29.8379 84.1309 30.5215V36H82.373V25.541ZM93.8574 22.6211H95.6348V25.541H97.3047V26.9766H95.6348V33.8027C95.6348 34.1673 95.7585 34.4115 96.0059 34.5352C96.1426 34.6068 96.3704 34.6426 96.6895 34.6426C96.7741 34.6426 96.8652 34.6426 96.9629 34.6426C97.0605 34.6361 97.1745 34.6263 97.3047 34.6133V36C97.1029 36.0586 96.8913 36.1009 96.6699 36.127C96.4551 36.153 96.2207 36.166 95.9668 36.166C95.1465 36.166 94.5898 35.9577 94.2969 35.541C94.0039 35.1178 93.8574 34.571 93.8574 33.9004V26.9766H92.4414V25.541H93.8574V22.6211ZM100.42 33.2168C100.42 33.7246 100.605 34.125 100.977 34.418C101.348 34.7109 101.787 34.8574 102.295 34.8574C102.913 34.8574 103.512 34.7142 104.092 34.4277C105.068 33.9525 105.557 33.1745 105.557 32.0938V30.6777C105.342 30.8145 105.065 30.9284 104.727 31.0195C104.388 31.1107 104.056 31.1758 103.73 31.2148L102.666 31.3516C102.028 31.4362 101.549 31.5697 101.23 31.752C100.69 32.0579 100.42 32.5462 100.42 33.2168ZM104.678 29.6621C105.081 29.61 105.352 29.4408 105.488 29.1543C105.566 28.998 105.605 28.7734 105.605 28.4805C105.605 27.8815 105.391 27.4486 104.961 27.1816C104.538 26.9082 103.929 26.7715 103.135 26.7715C102.217 26.7715 101.566 27.0189 101.182 27.5137C100.967 27.7871 100.827 28.194 100.762 28.7344H99.1211C99.1536 27.4453 99.5703 26.5501 100.371 26.0488C101.178 25.541 102.113 25.2871 103.174 25.2871C104.404 25.2871 105.404 25.5215 106.172 25.9902C106.934 26.459 107.314 27.1882 107.314 28.1777V34.2031C107.314 34.3854 107.35 34.5319 107.422 34.6426C107.5 34.7533 107.66 34.8086 107.9 34.8086C107.979 34.8086 108.066 34.8053 108.164 34.7988C108.262 34.7858 108.366 34.7695 108.477 34.75V36.0488C108.203 36.127 107.995 36.1758 107.852 36.1953C107.708 36.2148 107.513 36.2246 107.266 36.2246C106.66 36.2246 106.221 36.0098 105.947 35.5801C105.804 35.3522 105.703 35.0299 105.645 34.6133C105.286 35.082 104.772 35.4889 104.102 35.834C103.431 36.179 102.692 36.3516 101.885 36.3516C100.915 36.3516 100.12 36.0586 99.502 35.4727C98.89 34.8802 98.584 34.1413 98.584 33.2559C98.584 32.2858 98.8867 31.5339 99.4922 31C100.098 30.4661 100.892 30.1374 101.875 30.0137L104.678 29.6621ZM114.238 25.2383C115.417 25.2383 116.374 25.5247 117.109 26.0977C117.852 26.6706 118.298 27.6569 118.447 29.0566H116.738C116.634 28.4121 116.396 27.8783 116.025 27.4551C115.654 27.0254 115.059 26.8105 114.238 26.8105C113.118 26.8105 112.318 27.3574 111.836 28.4512C111.523 29.1608 111.367 30.0365 111.367 31.0781C111.367 32.1263 111.589 33.0085 112.031 33.7246C112.474 34.4408 113.171 34.7988 114.121 34.7988C114.85 34.7988 115.426 34.5775 115.85 34.1348C116.279 33.6855 116.576 33.0736 116.738 32.2988H118.447C118.252 33.6855 117.764 34.7012 116.982 35.3457C116.201 35.9837 115.202 36.3027 113.984 36.3027C112.617 36.3027 111.527 35.8047 110.713 34.8086C109.899 33.806 109.492 32.556 109.492 31.0586C109.492 29.2227 109.938 27.7936 110.83 26.7715C111.722 25.7493 112.858 25.2383 114.238 25.2383ZM120.557 22.6211H122.334V25.541H124.004V26.9766H122.334V33.8027C122.334 34.1673 122.458 34.4115 122.705 34.5352C122.842 34.6068 123.07 34.6426 123.389 34.6426C123.473 34.6426 123.564 34.6426 123.662 34.6426C123.76 34.6361 123.874 34.6263 124.004 34.6133V36C123.802 36.0586 123.59 36.1009 123.369 36.127C123.154 36.153 122.92 36.166 122.666 36.166C121.846 36.166 121.289 35.9577 120.996 35.541C120.703 35.1178 120.557 34.571 120.557 33.9004V26.9766H119.141V25.541H120.557V22.6211ZM133.682 21.6543V30.5215C133.682 31.5632 133.877 32.429 134.268 33.1191C134.847 34.1608 135.824 34.6816 137.197 34.6816C138.844 34.6816 139.964 34.1185 140.557 32.9922C140.876 32.3802 141.035 31.5566 141.035 30.5215V21.6543H143.008V29.7109C143.008 31.4753 142.77 32.8327 142.295 33.7832C141.423 35.515 139.775 36.3809 137.354 36.3809C134.932 36.3809 133.288 35.515 132.422 33.7832C131.947 32.8327 131.709 31.4753 131.709 29.7109V21.6543H133.682ZM146.836 32.7188C146.888 33.3047 147.035 33.7539 147.275 34.0664C147.718 34.6328 148.486 34.916 149.58 34.916C150.231 34.916 150.804 34.776 151.299 34.4961C151.794 34.2096 152.041 33.7702 152.041 33.1777C152.041 32.7285 151.842 32.3867 151.445 32.1523C151.191 32.0091 150.69 31.8431 149.941 31.6543L148.545 31.3027C147.653 31.0814 146.995 30.834 146.572 30.5605C145.817 30.0853 145.439 29.4277 145.439 28.5879C145.439 27.5983 145.794 26.7975 146.504 26.1855C147.22 25.5736 148.18 25.2676 149.385 25.2676C150.96 25.2676 152.096 25.7298 152.793 26.6543C153.229 27.2402 153.441 27.8717 153.428 28.5488H151.768C151.735 28.1517 151.595 27.7904 151.348 27.4648C150.944 27.0026 150.244 26.7715 149.248 26.7715C148.584 26.7715 148.079 26.8984 147.734 27.1523C147.396 27.4062 147.227 27.7415 147.227 28.1582C147.227 28.6139 147.451 28.9785 147.9 29.252C148.161 29.4147 148.545 29.5579 149.053 29.6816L150.215 29.9648C151.478 30.2708 152.324 30.5671 152.754 30.8535C153.438 31.3027 153.779 32.0091 153.779 32.9727C153.779 33.9036 153.424 34.7077 152.715 35.3848C152.012 36.0618 150.938 36.4004 149.492 36.4004C147.936 36.4004 146.833 36.0488 146.182 35.3457C145.537 34.6361 145.192 33.7604 145.146 32.7188H146.836Z" fill="#9CA0A4"/>
</svg>
