<svg xmlns="http://www.w3.org/2000/svg" width="27" height="29" viewBox="0 0 27 29" fill="none">
  <g clip-path="url(#clip0_2_160)">
    <path opacity="0.4" fill-rule="evenodd" clip-rule="evenodd" d="M22.5173 9.50569H18.3845V7.82812H22.5173C24.3044 7.82812 25.753 9.27662 25.753 11.0634V25.0196C25.753 26.8065 24.3044 28.2549 22.5173 28.2549H11.238C9.45093 28.2549 8.00224 26.8065 8.00224 25.0196V20.6456H9.68003V25.0196C9.68003 25.88 10.3775 26.5774 11.238 26.5774H22.5173C23.3778 26.5774 24.0752 25.88 24.0752 25.0196V11.0634C24.0752 10.2031 23.3778 9.50569 22.5173 9.50569Z" fill="#DCEFD8" fill-opacity="0.4"/>
    <path fill-rule="evenodd" clip-rule="evenodd" d="M1.30535 4.36811C1.30535 2.5813 2.75405 1.13281 4.5411 1.13281H15.8204C17.6074 1.13281 19.0562 2.58131 19.0562 4.36811V18.3244C19.0562 20.1111 17.6074 21.5597 15.8204 21.5597H4.5411C2.75405 21.5597 1.30535 20.1111 1.30535 18.3244V4.36811ZM4.5411 2.81037C3.68067 2.81037 2.98315 3.5078 2.98315 4.36811V18.3244C2.98315 19.1846 3.68067 19.8821 4.5411 19.8821H15.8204C16.6808 19.8821 17.3784 19.1846 17.3784 18.3244V4.36811C17.3784 3.5078 16.6808 2.81037 15.8204 2.81037H4.5411Z" fill="#DCEFD8" fill-opacity="0.4"/>
  </g>
  <defs>
    <clipPath id="clip0_2_160">
      <rect width="25.19" height="27.56" fill="white" transform="translate(0.934105 0.773438)"/>
    </clipPath>
  </defs>
</svg>