<svg width="91" height="91" viewBox="0 0 91 91" fill="none" xmlns="http://www.w3.org/2000/svg">
<path d="M87.208 15.168V37.918H64.458" stroke="#8AABC4" stroke-opacity="0.5" stroke-width="4" stroke-linecap="round" stroke-linejoin="round"/>
<path d="M3.79199 75.832V53.082H26.542" stroke="#8AABC4" stroke-opacity="0.5" stroke-width="4" stroke-linecap="round" stroke-linejoin="round"/>
<path d="M13.3091 34.1238C15.2321 28.6896 18.5004 23.831 22.809 20.0015C27.1176 16.1719 32.3261 13.4963 37.9484 12.2242C43.5708 10.952 49.4238 11.1249 54.9613 12.7266C60.4987 14.3283 65.5402 17.3067 69.6153 21.3838L87.2087 37.9155M3.79199 53.0822L21.3853 69.6138C25.4604 73.691 30.5019 76.6693 36.0394 78.2711C41.5769 79.8728 47.4299 80.0457 53.0522 78.7735C58.6746 77.5014 63.8831 74.8257 68.1917 70.9962C72.5003 67.1667 75.7686 62.3081 77.6916 56.8738" stroke="#8AABC4" stroke-width="4" stroke-linecap="round" stroke-linejoin="round"/>
</svg>
