<svg width="1639" height="1716" viewBox="0 0 1639 1716" fill="none" xmlns="http://www.w3.org/2000/svg">
<g clip-path="url(#clip0_487_963)">
<rect width="1066.66" height="1349.27" transform="translate(884.301 1715.06) rotate(-146)" fill="#26292b"/>
<g filter="url(#filter0_f_487_963)">
<rect x="907.383" y="1774.54" width="1193.36" height="1512.07" transform="rotate(-146 907.383 1774.54)" fill="url(#paint0_linear_487_963)" fill-opacity="0.2"/>
</g>
<g filter="url(#filter1_f_487_963)">
<path d="M1334 747.001C1209.5 767.001 943.551 674.042 794 695.001C644.45 715.96 389 1180.5 311 1084C327.466 970.368 400.09 724.323 453 589C530.232 391.471 601.218 317.353 689.968 304.915C752.989 296.083 821.42 312.349 887 358.5C940.292 396.004 1013.29 451.34 1089.5 502C1148.46 541.19 1325.89 689.166 1334 747.001Z" fill="url(#paint1_linear_487_963)"/>
</g>
</g>
<defs>
<filter id="filter0_f_487_963" x="-141.957" y="-206.335" width="1954.88" height="2040.88" filterUnits="userSpaceOnUse" color-interpolation-filters="sRGB">
<feFlood flood-opacity="0" result="BackgroundImageFix"/>
<feBlend mode="normal" in="SourceGraphic" in2="BackgroundImageFix" result="shape"/>
<feGaussianBlur stdDeviation="30" result="effect1_foregroundBlur_487_963"/>
</filter>
<filter id="filter1_f_487_963" x="261" y="252.609" width="1123" height="894.566" filterUnits="userSpaceOnUse" color-interpolation-filters="sRGB">
<feFlood flood-opacity="0" result="BackgroundImageFix"/>
<feBlend mode="normal" in="SourceGraphic" in2="BackgroundImageFix" result="shape"/>
<feGaussianBlur stdDeviation="25" result="effect1_foregroundBlur_487_963"/>
</filter>
<linearGradient id="paint0_linear_487_963" x1="1598.36" y1="2217.45" x2="1273.36" y2="4344.96" gradientUnits="userSpaceOnUse">
<stop stop-color="#C5E9FF"/>
<stop offset="1" stop-color="#DAF1FF" stop-opacity="0"/>
</linearGradient>
<linearGradient id="paint1_linear_487_963" x1="677" y1="269" x2="412.257" y2="1367.24" gradientUnits="userSpaceOnUse">
<stop stop-color="#CFE9FF"/>
<stop offset="1" stop-color="#5CB6F4" stop-opacity="0"/>
</linearGradient>
<clipPath id="clip0_487_963">
<rect width="1066.66" height="1349.27" fill="white" transform="translate(884.301 1715.06) rotate(-146)"/>
</clipPath>
</defs>
</svg>
