<svg width="178" height="49" viewBox="0 0 178 49" fill="none" xmlns="http://www.w3.org/2000/svg">
<path fill-rule="evenodd" clip-rule="evenodd" d="M0 49C9.94112 49 18 40.9411 18 31V49H0Z" fill="white"/>
<path fill-rule="evenodd" clip-rule="evenodd" d="M178 49C168.059 49 160 40.9411 160 31V49H178Z" fill="white"/>
<path d="M17 16C17 7.16345 24.1634 0 33 0H145C153.837 0 161 7.16344 161 16V49H17V16Z" fill="white"/>
<rect x="52" y="21.3301" width="18.42" height="2" fill="#9CA0A4"/>
<rect x="55.6797" y="27.3301" width="11.05" height="2" fill="#9CA0A4"/>
<path opacity="0.8" d="M85.4462 31V18.3693H93.2787V20.0098H87.3519V23.8582H92.7175V25.4926H87.3519V31H85.4462ZM95.4743 31V21.527H97.3183V31H95.4743ZM96.4056 20.0653C96.0849 20.0653 95.8094 19.9584 95.5792 19.7446C95.353 19.5267 95.24 19.2677 95.24 18.9675C95.24 18.6633 95.353 18.4043 95.5792 18.1905C95.8094 17.9726 96.0849 17.8636 96.4056 17.8636C96.7263 17.8636 96.9997 17.9726 97.2258 18.1905C97.4561 18.4043 97.5712 18.6633 97.5712 18.9675C97.5712 19.2677 97.4561 19.5267 97.2258 19.7446C96.9997 19.9584 96.7263 20.0653 96.4056 20.0653ZM101.643 18.3693V31H99.7991V18.3693H101.643ZM108.546 21.527V23.0071H103.372V21.527H108.546ZM104.759 19.2574H106.603V28.2185C106.603 28.5762 106.657 28.8455 106.764 29.0265C106.871 29.2033 107.008 29.3245 107.177 29.3903C107.349 29.452 107.537 29.4828 107.738 29.4828C107.886 29.4828 108.016 29.4726 108.127 29.452C108.238 29.4314 108.324 29.415 108.386 29.4027L108.719 30.926C108.612 30.9671 108.46 31.0082 108.262 31.0493C108.065 31.0946 107.818 31.1192 107.522 31.1233C107.037 31.1316 106.585 31.0452 106.165 30.8643C105.746 30.6834 105.407 30.4038 105.148 30.0256C104.889 29.6473 104.759 29.1724 104.759 28.6009V19.2574ZM114.567 31.1912C113.633 31.1912 112.83 30.9918 112.155 30.593C111.485 30.19 110.967 29.6247 110.601 28.8969C110.239 28.1651 110.058 27.3078 110.058 26.3252C110.058 25.3548 110.239 24.4996 110.601 23.7596C110.967 23.0195 111.477 22.4418 112.131 22.0265C112.789 21.6113 113.557 21.4036 114.437 21.4036C114.972 21.4036 115.49 21.492 115.991 21.6688C116.493 21.8456 116.943 22.1232 117.342 22.5014C117.741 22.8797 118.055 23.371 118.286 23.9754C118.516 24.5757 118.631 25.3055 118.631 26.1648V26.8186H111.101V25.4371H116.824C116.824 24.9519 116.725 24.5223 116.528 24.1481C116.331 23.7698 116.053 23.4718 115.695 23.2538C115.342 23.0359 114.927 22.927 114.45 22.927C113.932 22.927 113.479 23.0544 113.093 23.3093C112.71 23.5601 112.414 23.8891 112.205 24.2961C111.999 24.699 111.896 25.1369 111.896 25.6098V26.689C111.896 27.3222 112.007 27.8608 112.229 28.3049C112.456 28.7489 112.77 29.0881 113.173 29.3225C113.576 29.5527 114.047 29.6679 114.585 29.6679C114.935 29.6679 115.253 29.6185 115.541 29.5198C115.829 29.4171 116.078 29.2649 116.287 29.0635C116.497 28.862 116.658 28.6132 116.769 28.3172L118.514 28.6317C118.374 29.1457 118.123 29.5959 117.761 29.9824C117.404 30.3648 116.954 30.6629 116.411 30.8767C115.872 31.0863 115.258 31.1912 114.567 31.1912ZM120.677 31V21.527H122.459V23.0318H122.558C122.731 22.522 123.035 22.1211 123.471 21.8292C123.911 21.5332 124.408 21.3851 124.963 21.3851C125.079 21.3851 125.214 21.3893 125.37 21.3975C125.531 21.4057 125.656 21.416 125.747 21.4283V23.1922C125.673 23.1716 125.541 23.149 125.352 23.1243C125.163 23.0955 124.974 23.0812 124.785 23.0812C124.349 23.0812 123.96 23.1737 123.619 23.3587C123.282 23.5396 123.015 23.7925 122.817 24.1173C122.62 24.438 122.521 24.8039 122.521 25.215V31H120.677Z" fill="#9CA0A4"/>
</svg>
