<svg xmlns="http://www.w3.org/2000/svg" width="27" height="30" viewBox="0 0 27 30" fill="none">
  <mask id="mask0_2_110" style="mask-type:alpha" maskUnits="userSpaceOnUse" x="0" y="2" width="26" height="26">
    <path d="M25.8532 2.31445H0.717773V27.4656H25.8532V2.31445Z" fill="#8aabc4" fill-opacity="0.8"/>
  </mask>
  <g mask="url(#mask0_2_110)">
    <path d="M21.436 25.1448C19.8397 25.1465 18.2435 25.1465 16.648 25.1448C16.648 21.6191 16.648 18.0924 16.6473 14.5658C15.1217 14.5649 13.5961 14.5666 12.0707 14.5658C12.0707 18.0908 12.0682 21.6158 12.0723 25.1407C10.4621 25.1456 8.85102 25.153 7.24243 25.1374C7.25148 21.6124 7.24326 18.0891 7.24655 14.5641C6.33781 14.5674 5.42908 14.5649 4.52034 14.5658C4.51787 13.261 4.51952 11.9563 4.51952 10.6508C5.42826 10.65 6.33781 10.6516 7.24655 10.65C7.25724 9.83953 7.19145 9.01596 7.38306 8.21867C7.65281 6.96896 8.44805 5.84323 9.54016 5.17485C10.5287 4.54588 11.7096 4.27328 12.8717 4.24207C14.1274 4.23633 15.3832 4.24865 16.639 4.23633C16.6596 5.54188 16.6415 6.84907 16.648 8.15544C15.6809 8.15873 14.7138 8.15134 13.7475 8.15873C13.1611 8.17022 12.5362 8.43052 12.2491 8.96587C11.9663 9.48317 12.1011 10.0891 12.0698 10.65C15.1916 10.6516 18.3134 10.6491 21.436 10.6516C21.436 15.4829 21.4343 20.3135 21.436 25.1448Z" fill="#8aabc4" fill-opacity="0.8"/>
  </g>
</svg>