<svg width="110" height="110" viewBox="0 0 110 110" fill="none" xmlns="http://www.w3.org/2000/svg">
<path d="M57.75 66C59.9381 66 62.0365 66.8692 63.5837 68.4164C65.1308 69.9636 66 72.062 66 74.25V77C66 87.8405 55.77 99 38.5 99C21.23 99 11 87.8405 11 77V74.25C11 72.062 11.8692 69.9636 13.4164 68.4164C14.9635 66.8692 17.062 66 19.25 66H57.75ZM57.75 71.5H19.25C18.5207 71.5 17.8212 71.7898 17.3055 72.3055C16.7897 72.8212 16.5 73.5207 16.5 74.25V77C16.5 84.909 24.376 93.5 38.5 93.5C52.624 93.5 60.5 84.909 60.5 77V74.25C60.5 73.5207 60.2103 72.8212 59.6946 72.3055C59.1788 71.7898 58.4794 71.5 57.75 71.5ZM38.5 30.25C42.5114 30.25 46.3585 31.8435 49.195 34.68C52.0315 37.5165 53.625 41.3636 53.625 45.375C53.625 49.3864 52.0315 53.2335 49.195 56.07C46.3585 58.9065 42.5114 60.5 38.5 60.5C34.4886 60.5 30.6415 58.9065 27.805 56.07C24.9685 53.2335 23.375 49.3864 23.375 45.375C23.375 41.3636 24.9685 37.5165 27.805 34.68C30.6415 31.8435 34.4886 30.25 38.5 30.25ZM88 11C90.7743 11.0005 93.4458 12.0492 95.4796 13.9361C97.5133 15.823 98.759 18.4086 98.967 21.175L99 22V33C99.0009 35.7752 97.9528 38.4481 96.0658 40.483C94.1788 42.5179 91.5924 43.7644 88.825 43.9725L88 44H79.7445L73.1555 52.8C70.2405 56.683 64.3335 55.11 63.382 50.732L63.2885 50.1215L63.25 49.5V43.6425L62.821 43.5325C60.8441 42.9336 59.0754 41.7909 57.7168 40.2348C56.3581 38.6788 55.4644 36.7722 55.1375 34.7325L55.0275 33.8195L55 33V22C54.9991 19.2248 56.0473 16.5519 57.9343 14.517C59.8213 12.4821 62.4077 11.2356 65.175 11.0275L66 11H88ZM38.5 35.75C37.236 35.75 35.9844 35.999 34.8167 36.4827C33.6489 36.9664 32.5879 37.6753 31.6941 38.5691C30.8003 39.4629 30.0914 40.5239 29.6077 41.6917C29.124 42.8594 28.875 44.111 28.875 45.375C28.875 46.639 29.124 47.8906 29.6077 49.0583C30.0914 50.2261 30.8003 51.2872 31.6941 52.1809C32.5879 53.0747 33.6489 53.7837 34.8167 54.2674C35.9844 54.7511 37.236 55 38.5 55C41.0527 55 43.5009 53.986 45.3059 52.1809C47.111 50.3759 48.125 47.9277 48.125 45.375C48.125 42.8223 47.111 40.3741 45.3059 38.5691C43.5009 36.7641 41.0527 35.75 38.5 35.75ZM88 16.5H66C64.6529 16.5002 63.3527 16.9948 62.346 17.8899C61.3393 18.7851 60.6961 20.0186 60.5385 21.3565L60.5 22V33C60.5002 34.3471 60.9948 35.6474 61.89 36.6541C62.7851 37.6607 64.0186 38.3039 65.3565 38.4615L66 38.5H68.75V49.5L77 38.5H88C89.3472 38.4998 90.6474 38.0053 91.6541 37.1101C92.6608 36.2149 93.3039 34.9814 93.4615 33.6435L93.5 33V22C93.4999 20.6529 93.0053 19.3526 92.1101 18.346C91.2149 17.3393 89.9814 16.6961 88.6435 16.5385L88 16.5Z" fill="#8AABC4"/>
</svg>
