<svg xmlns="http://www.w3.org/2000/svg" width="19" height="18" viewBox="0 0 19 18" fill="none">
  <g clip-path="url(#clip0_1_205)">
    <path d="M5.29223 16.3553L0.798775 11.5278C0.62325 11.377 0.55304 11.1506 0.55304 10.8867C0.55304 10.6604 0.62325 10.4341 0.798775 10.2833L5.29223 5.45589C5.60818 5.07875 6.13475 5.07875 6.45071 5.45589C6.80176 5.79531 6.80176 6.36103 6.45071 6.70044L3.39657 9.98155H16.8418V2.13707C16.8418 1.64678 17.193 1.23193 17.6843 1.23193C18.1407 1.23193 18.5269 1.64678 18.5269 2.13707V10.8867C18.5269 11.4147 18.1407 11.7918 17.6843 11.7918H3.39657L6.45071 15.1106C6.80176 15.45 6.80176 16.0158 6.45071 16.3553C6.13475 16.7323 5.60818 16.7323 5.29223 16.3553Z" fill="#8aabc4"/>
  </g>
  <defs>
    <clipPath id="clip0_1_205">
      <rect width="17.9738" height="16.69" fill="white" transform="translate(0.55304 0.589966)"/>
    </clipPath>
  </defs>
</svg>