<svg width="55" height="120" viewBox="0 0 55 120" fill="none" xmlns="http://www.w3.org/2000/svg">
<g clip-path="url(#clip0_494_266)">
<g clip-path="url(#clip1_494_266)">
<g clip-path="url(#clip2_494_266)">
<path fill-rule="evenodd" clip-rule="evenodd" d="M28.6818 24.308C42.0974 24.2997 52.9705 13.4215 52.9705 0.00390625H54.5014L54.498 119.655H52.9705C52.9705 106.232 42.0891 95.3507 28.6664 95.3507H14.9564C6.69621 95.3507 0 88.6546 0 80.3944V39.2644C0 31.0042 6.69621 24.308 14.9564 24.308H28.6818Z" fill="#17244A"/>
</g>
</g>
</g>
<g clip-path="url(#clip3_494_266)">
<g clip-path="url(#clip4_494_266)">
<g clip-path="url(#clip5_494_266)">
<path fill-rule="evenodd" clip-rule="evenodd" d="M26.483 66.2591L33.9973 58.7448L35.1913 59.9389L26.2357 68.8945C25.906 69.2244 25.3713 69.2244 25.0416 68.8945L16.0859 59.9389L17.28 58.7448L24.7943 66.2591V50.6211L26.483 50.6211V66.2591Z" fill="#CFE9FF"/>
</g>
</g>
</g>
<defs>
<clipPath id="clip0_494_266">
<rect width="54.85" height="119.66" fill="white"/>
</clipPath>
<clipPath id="clip1_494_266">
<rect width="54.85" height="119.66" fill="white"/>
</clipPath>
<clipPath id="clip2_494_266">
<rect width="54.84" height="119.651" fill="white" transform="translate(0 0.00390625)"/>
</clipPath>
<clipPath id="clip3_494_266">
<rect width="20.28" height="19.42" fill="white" transform="translate(15.2812 50.1309)"/>
</clipPath>
<clipPath id="clip4_494_266">
<rect width="20.28" height="19.42" fill="white" transform="translate(15.2812 50.1309)"/>
</clipPath>
<clipPath id="clip5_494_266">
<rect width="20.2643" height="19.42" fill="white" transform="translate(15.2891 50.1309)"/>
</clipPath>
</defs>
</svg>
