<svg width="90" height="91" viewBox="0 0 90 91" fill="none" xmlns="http://www.w3.org/2000/svg">
<g id="SVG">
<g id="Mask group">
<mask id="mask0_1_71" style="mask-type:alpha" maskUnits="userSpaceOnUse" x="1" y="8" width="89" height="74">
<g id="Group">
<path id="Vector" d="M89.0405 8.48358H1.01501V81.0868H89.0405V8.48358Z" fill="#97D28B"/>
</g>
</mask>
<g mask="url(#mask0_1_71)">
<g id="Group_2">
<path id="Vector_2" fill-rule="evenodd" clip-rule="evenodd" d="M50.5341 57.5143V55.347H70.1552C73.1471 55.347 75.5726 57.7727 75.5726 60.7651V74.9938C75.5726 77.9861 73.1471 80.4119 70.1552 80.4119H50.5341V78.2447H70.1552C71.9504 78.2447 73.4056 76.7893 73.4056 74.9938V60.7651C73.4056 58.9697 71.9504 57.5143 70.1552 57.5143H50.5341Z" fill="#97D28B"/>
<path id="Vector_3" fill-rule="evenodd" clip-rule="evenodd" d="M1.97147 67.4635C1.97147 64.4713 4.39694 62.0455 7.38894 62.0455H24.3948V64.2127H7.38894C5.59374 64.2127 4.13845 65.6682 4.13845 67.4635V74.9938C4.13845 76.7892 5.59374 78.2446 7.38894 78.2446H24.3948V80.4119H7.38894C4.39694 80.4119 1.97147 77.9861 1.97147 74.9938V67.4635Z" fill="#97D28B"/>
<path id="Vector_4" d="M35.7503 10.4239C36.4484 8.53702 39.1168 8.53702 39.8149 10.4239L42.154 16.7458C42.3735 17.339 42.8411 17.8067 43.4344 18.0263L49.7556 20.3656C51.6421 21.0638 51.6421 23.7325 49.7556 24.4307L43.4344 26.77C42.8411 26.9895 42.3735 27.4572 42.154 28.0505L39.8149 34.3724C39.1168 36.2593 36.4484 36.2593 35.7503 34.3724L33.4113 28.0505C33.1918 27.4572 32.7241 26.9895 32.1309 26.77L25.8097 24.4307C23.923 23.7325 23.923 21.0638 25.8097 20.3656L32.1309 18.0263C32.7241 17.8067 33.1918 17.339 33.4113 16.7458L35.7503 10.4239Z" fill="#97D28B" fill-opacity="0.1"/>
<path id="Vector_5" fill-rule="evenodd" clip-rule="evenodd" d="M40.2225 17.4432L37.7778 10.8357L35.333 17.4432C34.8742 18.6832 33.8967 19.6608 32.6568 20.1197L26.0501 22.5647L32.6568 25.0096C33.8967 25.4684 34.8742 26.4461 35.333 27.6861L37.7778 34.2936L40.2225 27.6861C40.6812 26.4461 41.6587 25.4684 42.8986 25.0096L49.5053 22.5647L42.8986 20.1197C41.6587 19.6608 40.6812 18.6832 40.2225 17.4432ZM39.9018 10.0496C39.1721 8.07761 36.3833 8.07761 35.6537 10.0496L33.2089 16.6571C32.9795 17.2771 32.4907 17.7659 31.8708 17.9953L25.2641 20.4403C23.2923 21.17 23.2923 23.9593 25.2641 24.689L31.8708 27.1339C32.4907 27.3633 32.9795 27.8522 33.2089 28.4722L35.6537 35.0797C36.3833 37.0516 39.1721 37.0516 39.9018 35.0797L42.3465 28.4722C42.5759 27.8522 43.0647 27.3633 43.6846 27.1339L50.2914 24.689C52.2631 23.9593 52.2631 21.17 50.2914 20.4403L43.6846 17.9953C43.0647 17.7659 42.5759 17.2771 42.3465 16.6571L39.9018 10.0496Z" fill="#97D28B"/>
<path id="Vector_6" fill-rule="evenodd" clip-rule="evenodd" d="M45.7117 44.9437H29.8376C27.4439 44.9437 25.5036 46.8842 25.5036 49.2781V78.2446H50.0457V49.2781C50.0457 46.8842 48.1053 44.9437 45.7117 44.9437ZM29.8376 42.7764C26.2472 42.7764 23.3366 45.6873 23.3366 49.2781V80.4119H52.2127V49.2781C52.2127 45.6873 49.3021 42.7764 45.7117 42.7764H29.8376Z" fill="#97D28B"/>
</g>
</g>
</g>
</g>
</svg>
