<svg width="91" height="91" viewBox="0 0 91 91" fill="none" xmlns="http://www.w3.org/2000/svg">
<path d="M64.4587 79.625V72.0417C64.4587 68.0192 62.8607 64.1615 60.0164 61.3172C57.1721 58.4729 53.3144 56.875 49.292 56.875H18.9587C14.9362 56.875 11.0785 58.4729 8.23421 61.3172C5.3899 64.1615 3.79199 68.0192 3.79199 72.0417V79.625" stroke="#8AABC4" stroke-width="4" stroke-linecap="round" stroke-linejoin="round"/>
<path d="M34.1247 41.7083C42.501 41.7083 49.2913 34.918 49.2913 26.5417C49.2913 18.1653 42.501 11.375 34.1247 11.375C25.7484 11.375 18.958 18.1653 18.958 26.5417C18.958 34.918 25.7484 41.7083 34.1247 41.7083Z" stroke="#8AABC4" stroke-width="4" stroke-linecap="round" stroke-linejoin="round"/>
<path d="M87.208 79.6243V72.0409C87.2055 68.6805 86.087 65.416 84.0282 62.7601C81.9693 60.1042 79.0867 58.2073 75.833 57.3672" stroke="#8AABC4" stroke-opacity="0.5" stroke-width="4" stroke-linecap="round" stroke-linejoin="round"/>
<path d="M60.667 11.8672C63.9294 12.7025 66.821 14.5998 68.886 17.2601C70.9509 19.9204 72.0717 23.1923 72.0717 26.5599C72.0717 29.9275 70.9509 33.1994 68.886 35.8597C66.821 38.5199 63.9294 40.4173 60.667 41.2526" stroke="#8AABC4" stroke-opacity="0.5" stroke-width="4" stroke-linecap="round" stroke-linejoin="round"/>
</svg>
