<svg width="110" height="111" viewBox="0 0 110 111" fill="none" xmlns="http://www.w3.org/2000/svg">
<path d="M18.0469 10.3965L16.1116 12.2218L11.2784 17.0549L9.45312 18.9902L10.8487 21.2452L18.0469 33.2765L19.0128 34.9952H29.1156L42.8656 48.6387C30.58 60.9793 14.9497 76.6612 14.3997 77.2146C9.01313 82.5977 9.00281 91.4184 14.5028 96.5505C19.8756 101.851 28.6309 101.989 33.7356 96.5505L33.8387 96.4405L55 75.1727L76.2713 96.5471L76.5909 96.7637C81.9878 101.851 90.5713 101.92 95.6072 96.5471V96.444H95.7103C100.977 91.0574 101.032 82.3021 95.6072 77.2112L95.4972 77.108L77.5603 59.2743C89.6294 58.1468 99.0825 47.9546 99.2578 35.6415H99.3644C99.3781 35.5727 99.3644 35.4937 99.3644 35.4249V35.3184C99.7012 31.3446 98.8419 27.5427 96.7862 24.253L94.4281 20.6059L78.4197 36.6109L73.5866 31.5612L89.9147 15.233L85.1881 13.3012C82.1731 11.9748 78.9188 11.2788 75.625 11.2559C62.4113 11.2559 51.5625 22.1046 51.5625 35.3184C51.5625 36.7552 51.8719 38.003 52.0988 39.2921C50.5966 40.7977 49.4691 42.0318 47.6953 43.8055L34.0519 30.1621V19.9562L32.3331 18.9902L20.3019 11.7921L18.0469 10.3965ZM75.625 18.1309C76.1063 18.1309 76.4431 18.4127 76.9141 18.454L63.9169 31.4512L66.2784 33.9227L75.9481 43.9121L78.3097 46.3837L91.9531 32.7402C92.0219 33.5309 92.5856 34.1084 92.4894 34.9952V35.3184C92.4894 44.7852 84.7688 52.5059 75.3019 52.5059C74.0403 52.5059 72.5106 52.2102 70.7919 51.8596L68.9631 51.5399L67.6741 52.829L28.8991 91.714H28.7891V91.824C26.3484 94.4949 22.0756 94.5602 19.2294 91.714V91.6074H19.1194C16.4484 89.1668 16.3831 84.894 19.2294 82.0477C20.5322 80.7415 45.76 55.2971 58.1144 42.9462L59.5134 41.5505L58.9738 39.6152C58.6475 38.2052 58.4678 36.7653 58.4375 35.3184C58.4375 25.8515 66.1581 18.1309 75.625 18.1309ZM19.1194 18.9902L27.1769 23.9334V27.3709L26.4275 28.1202H22.99L18.0469 20.0662L19.1194 18.9902ZM69.3928 60.7765L90.7741 82.0477V82.1543H90.8772C93.5516 84.5949 93.6169 88.8677 90.7741 91.714H90.6641V91.824C88.2234 94.4949 83.9506 94.5602 81.1044 91.714L59.8331 70.3396L69.3928 60.7765Z" fill="#8AABC4"/>
</svg>
