<svg xmlns="http://www.w3.org/2000/svg" width="30" height="30" viewBox="0 0 30 30" fill="none">
  <mask id="mask0_2_120" style="mask-type:alpha" maskUnits="userSpaceOnUse" x="0" y="0" width="29" height="29">
    <path d="M28.8274 0.472656H0.53418V28.7756H28.8274V0.472656Z" fill="#8aabc4" fill-opacity="0.8"/>
  </mask>
  <g mask="url(#mask0_2_120)">
    <path d="M8.57644 25.6415H3.99828V10.9174H8.57644V25.6415ZM6.26275 8.94761C4.83515 8.94761 3.65369 7.7165 3.65369 6.23916C3.65369 4.22014 5.8197 2.93978 7.59189 3.97391C8.42875 4.41712 8.92104 5.30351 8.92104 6.23916C8.92104 7.7165 7.73957 8.94761 6.26275 8.94761ZM25.6584 25.6415H21.1294V18.501C21.1294 16.7775 21.0802 14.6107 18.7173 14.6107C16.3544 14.6107 16.0098 16.4328 16.0098 18.3533V25.6415H11.4316V10.9174H15.8129V12.9364H15.8621C16.5021 11.8037 17.9789 10.5727 20.1941 10.5727C24.8216 10.5727 25.7076 13.6258 25.7076 17.5654V25.6415H25.6584Z" fill="#8aabc4" fill-opacity="0.8"/>
  </g>
</svg>