


<svg xmlns="http://www.w3.org/2000/svg" width="98" height="90" viewBox="0 0 98 90" fill="none">
  <mask id="mask0_1_544" style="mask-type:luminance" maskUnits="userSpaceOnUse" x="0" y="0" width="98" height="90">
    <path d="M97.38 0.34375H0.22998V89.3855H97.38V0.34375Z" fill="white"/>
  </mask>
  <g mask="url(#mask0_1_544)">
    <mask id="mask1_1_544" style="mask-type:luminance" maskUnits="userSpaceOnUse" x="-28" y="-32" width="153" height="153">
      <path d="M-27.0705 -31.0005H124.681V120.73H-27.0705V-31.0005Z" fill="white"/>
    </mask>
    <g mask="url(#mask1_1_544)">
      <path d="M91.438 44.8644C91.438 68.3944 72.3597 87.4701 48.8264 87.4701C25.2931 87.4701 6.21484 68.3944 6.21484 44.8644C6.21484 21.3344 25.2931 2.25879 48.8264 2.25879C72.3597 2.25879 91.438 21.3344 91.438 44.8644ZM31.2462 44.8644C31.2462 54.5724 39.1171 62.4422 48.8264 62.4422C58.5357 62.4422 66.4067 54.5724 66.4067 44.8644C66.4067 35.1564 58.5357 27.2866 48.8264 27.2866C39.1171 27.2866 31.2462 35.1564 31.2462 44.8644Z" fill="#26292b"/>
      <mask id="mask2_1_544" style="mask-type:alpha" maskUnits="userSpaceOnUse" x="6" y="2" width="86" height="86">
        <path d="M91.438 44.8644C91.438 68.3944 72.3597 87.4701 48.8264 87.4701C25.2931 87.4701 6.21484 68.3944 6.21484 44.8644C6.21484 21.3344 25.2931 2.25879 48.8264 2.25879C72.3597 2.25879 91.438 21.3344 91.438 44.8644ZM31.2462 44.8644C31.2462 54.5724 39.1171 62.4422 48.8264 62.4422C58.5357 62.4422 66.4067 54.5724 66.4067 44.8644C66.4067 35.1564 58.5357 27.2866 48.8264 27.2866C39.1171 27.2866 31.2462 35.1564 31.2462 44.8644Z" fill="#26292b"/>
      </mask>
      <g mask="url(#mask2_1_544)">
        <path d="M25.934 -6.72364C24.0913 -6.61526 -2.46513 -2.17173 -2.46513 -2.17173L-21.2172 8.55776L-24.5775 44.8646L4.36368 105.665L48.9135 44.4311V-2.38849C48.9135 -2.38849 27.7767 -6.83201 25.934 -6.72364Z" fill="#E6F4E2"/>
      </g>
    </g>
  </g>
</svg>