<svg width="197" height="86" viewBox="0 0 197 86" fill="none" xmlns="http://www.w3.org/2000/svg">
<path fill-rule="evenodd" clip-rule="evenodd" d="M166.16 30.47C182.988 30.47 196.63 16.828 196.63 0V30.47H166.16Z" fill="#26292B"/>
<path fill-rule="evenodd" clip-rule="evenodd" d="M0 85.0808C10.0958 85.0808 18.28 76.8965 18.28 66.8008V85.0808H0Z" fill="#26292B"/>
<path d="M17.2812 53.4707C17.2812 40.2159 28.0264 29.4707 41.2812 29.4707H196.621V85.0807H17.2812V53.4707Z" fill="#26292B"/>
<path opacity="0.8" d="M53.8086 60.1504V58.6738H57.6406V54.8154H59.1436V58.6738H62.9756V60.1504H59.1436V64H57.6406V60.1504H53.8086ZM79.9121 51.0889H81.6611V62.4619H88.2002V64H79.9121V51.0889ZM93.4561 62.9805C94.5049 62.9805 95.2227 62.585 95.6094 61.7939C96.002 60.9971 96.1982 60.1123 96.1982 59.1396C96.1982 58.2607 96.0576 57.5459 95.7764 56.9951C95.3311 56.1279 94.5635 55.6943 93.4736 55.6943C92.5068 55.6943 91.8037 56.0635 91.3643 56.8018C90.9248 57.54 90.7051 58.4307 90.7051 59.4736C90.7051 60.4756 90.9248 61.3105 91.3643 61.9785C91.8037 62.6465 92.501 62.9805 93.4561 62.9805ZM93.5176 54.3145C94.7305 54.3145 95.7559 54.7188 96.5938 55.5273C97.4316 56.3359 97.8506 57.5254 97.8506 59.0957C97.8506 60.6133 97.4814 61.8672 96.7432 62.8574C96.0049 63.8477 94.8594 64.3428 93.3066 64.3428C92.0117 64.3428 90.9834 63.9062 90.2217 63.0332C89.46 62.1543 89.0791 60.9766 89.0791 59.5C89.0791 57.918 89.4805 56.6582 90.2832 55.7207C91.0859 54.7832 92.1641 54.3145 93.5176 54.3145ZM100.953 61.4951C100.953 61.9521 101.12 62.3125 101.454 62.5762C101.788 62.8398 102.184 62.9717 102.641 62.9717C103.197 62.9717 103.736 62.8428 104.258 62.585C105.137 62.1572 105.576 61.457 105.576 60.4844V59.21C105.383 59.333 105.134 59.4355 104.829 59.5176C104.524 59.5996 104.226 59.6582 103.933 59.6934L102.975 59.8164C102.4 59.8926 101.97 60.0127 101.683 60.1768C101.196 60.4521 100.953 60.8916 100.953 61.4951ZM104.785 58.2959C105.148 58.249 105.392 58.0967 105.515 57.8389C105.585 57.6982 105.62 57.4961 105.62 57.2324C105.62 56.6934 105.427 56.3037 105.04 56.0635C104.659 55.8174 104.111 55.6943 103.396 55.6943C102.57 55.6943 101.984 55.917 101.639 56.3623C101.445 56.6084 101.319 56.9746 101.261 57.4609H99.7842C99.8135 56.3008 100.188 55.4951 100.909 55.0439C101.636 54.5869 102.477 54.3584 103.432 54.3584C104.539 54.3584 105.438 54.5693 106.13 54.9912C106.815 55.4131 107.158 56.0693 107.158 56.96V62.3828C107.158 62.5469 107.19 62.6787 107.255 62.7783C107.325 62.8779 107.469 62.9277 107.686 62.9277C107.756 62.9277 107.835 62.9248 107.923 62.9189C108.011 62.9072 108.104 62.8926 108.204 62.875V64.0439C107.958 64.1143 107.771 64.1582 107.642 64.1758C107.513 64.1934 107.337 64.2021 107.114 64.2021C106.569 64.2021 106.174 64.0088 105.928 63.6221C105.799 63.417 105.708 63.127 105.655 62.752C105.333 63.1738 104.87 63.54 104.267 63.8506C103.663 64.1611 102.998 64.3164 102.271 64.3164C101.398 64.3164 100.684 64.0527 100.127 63.5254C99.5762 62.9922 99.3008 62.3271 99.3008 61.5303C99.3008 60.6572 99.5732 59.9805 100.118 59.5C100.663 59.0195 101.378 58.7236 102.263 58.6123L104.785 58.2959ZM110.762 59.4033C110.762 60.4111 110.976 61.2549 111.403 61.9346C111.831 62.6143 112.517 62.9541 113.46 62.9541C114.192 62.9541 114.793 62.6406 115.262 62.0137C115.736 61.3809 115.974 60.4756 115.974 59.2979C115.974 58.1084 115.73 57.2295 115.244 56.6611C114.758 56.0869 114.157 55.7998 113.442 55.7998C112.646 55.7998 111.998 56.1045 111.5 56.7139C111.008 57.3232 110.762 58.2197 110.762 59.4033ZM113.144 54.4199C113.864 54.4199 114.468 54.5723 114.954 54.877C115.235 55.0527 115.555 55.3604 115.912 55.7998V51.0449H117.433V64H116.009V62.6904C115.64 63.2705 115.203 63.6895 114.699 63.9473C114.195 64.2051 113.618 64.334 112.968 64.334C111.919 64.334 111.011 63.8945 110.243 63.0156C109.476 62.1309 109.092 60.9561 109.092 59.4912C109.092 58.1201 109.44 56.9336 110.138 55.9316C110.841 54.9238 111.843 54.4199 113.144 54.4199ZM124.789 54.5869H126.354V55.9229C126.729 55.46 127.068 55.123 127.373 54.9121C127.895 54.5547 128.486 54.376 129.148 54.376C129.898 54.376 130.502 54.5605 130.959 54.9297C131.217 55.1406 131.451 55.4512 131.662 55.8613C132.014 55.3574 132.427 54.9854 132.901 54.7451C133.376 54.499 133.909 54.376 134.501 54.376C135.767 54.376 136.628 54.833 137.085 55.7471C137.331 56.2393 137.454 56.9014 137.454 57.7334V64H135.811V57.4609C135.811 56.834 135.652 56.4033 135.336 56.1689C135.025 55.9346 134.645 55.8174 134.193 55.8174C133.572 55.8174 133.036 56.0254 132.585 56.4414C132.14 56.8574 131.917 57.5518 131.917 58.5244V64H130.309V57.8564C130.309 57.2178 130.232 56.752 130.08 56.459C129.84 56.0195 129.392 55.7998 128.735 55.7998C128.138 55.7998 127.593 56.0312 127.101 56.4941C126.614 56.957 126.371 57.7949 126.371 59.0078V64H124.789V54.5869ZM143.519 62.9805C144.567 62.9805 145.285 62.585 145.672 61.7939C146.064 60.9971 146.261 60.1123 146.261 59.1396C146.261 58.2607 146.12 57.5459 145.839 56.9951C145.394 56.1279 144.626 55.6943 143.536 55.6943C142.569 55.6943 141.866 56.0635 141.427 56.8018C140.987 57.54 140.768 58.4307 140.768 59.4736C140.768 60.4756 140.987 61.3105 141.427 61.9785C141.866 62.6465 142.563 62.9805 143.519 62.9805ZM143.58 54.3145C144.793 54.3145 145.818 54.7188 146.656 55.5273C147.494 56.3359 147.913 57.5254 147.913 59.0957C147.913 60.6133 147.544 61.8672 146.806 62.8574C146.067 63.8477 144.922 64.3428 143.369 64.3428C142.074 64.3428 141.046 63.9062 140.284 63.0332C139.522 62.1543 139.142 60.9766 139.142 59.5C139.142 57.918 139.543 56.6582 140.346 55.7207C141.148 54.7832 142.227 54.3145 143.58 54.3145ZM149.847 54.5869H151.35V56.2129C151.473 55.8965 151.774 55.5127 152.255 55.0615C152.735 54.6045 153.289 54.376 153.916 54.376C153.945 54.376 153.995 54.3789 154.065 54.3848C154.136 54.3906 154.256 54.4023 154.426 54.4199V56.0898C154.332 56.0723 154.244 56.0605 154.162 56.0547C154.086 56.0488 154.001 56.0459 153.907 56.0459C153.11 56.0459 152.498 56.3037 152.07 56.8193C151.643 57.3291 151.429 57.918 151.429 58.5859V64H149.847V54.5869ZM159.717 54.376C160.385 54.376 161.032 54.5342 161.659 54.8506C162.286 55.1611 162.764 55.5654 163.092 56.0635C163.408 56.5381 163.619 57.0918 163.725 57.7246C163.818 58.1582 163.865 58.8496 163.865 59.7988H156.966C156.995 60.7539 157.221 61.5215 157.643 62.1016C158.064 62.6758 158.718 62.9629 159.603 62.9629C160.429 62.9629 161.088 62.6904 161.58 62.1455C161.861 61.8291 162.061 61.4629 162.178 61.0469H163.733C163.692 61.3926 163.555 61.7793 163.32 62.207C163.092 62.6289 162.834 62.9746 162.547 63.2441C162.066 63.7129 161.472 64.0293 160.763 64.1934C160.382 64.2871 159.951 64.334 159.471 64.334C158.299 64.334 157.306 63.9092 156.491 63.0596C155.677 62.2041 155.27 61.0088 155.27 59.4736C155.27 57.9619 155.68 56.7344 156.5 55.791C157.32 54.8477 158.393 54.376 159.717 54.376ZM162.239 58.542C162.175 57.8564 162.025 57.3086 161.791 56.8984C161.357 56.1367 160.634 55.7559 159.62 55.7559C158.894 55.7559 158.284 56.0195 157.792 56.5469C157.3 57.0684 157.039 57.7334 157.01 58.542H162.239Z" fill="#9CA0A4"/>
</svg>
