<svg width="199" height="87" viewBox="0 0 199 87" fill="none" xmlns="http://www.w3.org/2000/svg">
<path d="M19 55C19 41.7452 29.7452 31 43 31H198.34V86.61H19V55Z" fill="#17244A"/>
<rect x="56.0781" y="51.1895" width="2" height="15.23" fill="#CFE9FF"/>
<rect x="49.4688" y="57.7988" width="15.23" height="2" fill="#CFE9FF"/>
<path opacity="0.8" d="M81.3125 52.3682H83.0615V63.7412H89.6006V65.2793H81.3125V52.3682ZM94.8564 64.2598C95.9053 64.2598 96.623 63.8643 97.0098 63.0732C97.4023 62.2764 97.5986 61.3916 97.5986 60.4189C97.5986 59.54 97.458 58.8252 97.1768 58.2744C96.7314 57.4072 95.9639 56.9736 94.874 56.9736C93.9072 56.9736 93.2041 57.3428 92.7646 58.0811C92.3252 58.8193 92.1055 59.71 92.1055 60.7529C92.1055 61.7549 92.3252 62.5898 92.7646 63.2578C93.2041 63.9258 93.9014 64.2598 94.8564 64.2598ZM94.918 55.5938C96.1309 55.5938 97.1562 55.998 97.9941 56.8066C98.832 57.6152 99.251 58.8047 99.251 60.375C99.251 61.8926 98.8818 63.1465 98.1436 64.1367C97.4053 65.127 96.2598 65.6221 94.707 65.6221C93.4121 65.6221 92.3838 65.1855 91.6221 64.3125C90.8604 63.4336 90.4795 62.2559 90.4795 60.7793C90.4795 59.1973 90.8809 57.9375 91.6836 57C92.4863 56.0625 93.5645 55.5938 94.918 55.5938ZM102.354 62.7744C102.354 63.2314 102.521 63.5918 102.854 63.8555C103.188 64.1191 103.584 64.251 104.041 64.251C104.598 64.251 105.137 64.1221 105.658 63.8643C106.537 63.4365 106.977 62.7363 106.977 61.7637V60.4893C106.783 60.6123 106.534 60.7148 106.229 60.7969C105.925 60.8789 105.626 60.9375 105.333 60.9727L104.375 61.0957C103.801 61.1719 103.37 61.292 103.083 61.4561C102.597 61.7314 102.354 62.1709 102.354 62.7744ZM106.186 59.5752C106.549 59.5283 106.792 59.376 106.915 59.1182C106.985 58.9775 107.021 58.7754 107.021 58.5117C107.021 57.9727 106.827 57.583 106.44 57.3428C106.06 57.0967 105.512 56.9736 104.797 56.9736C103.971 56.9736 103.385 57.1963 103.039 57.6416C102.846 57.8877 102.72 58.2539 102.661 58.7402H101.185C101.214 57.5801 101.589 56.7744 102.31 56.3232C103.036 55.8662 103.877 55.6377 104.832 55.6377C105.939 55.6377 106.839 55.8486 107.53 56.2705C108.216 56.6924 108.559 57.3486 108.559 58.2393V63.6621C108.559 63.8262 108.591 63.958 108.655 64.0576C108.726 64.1572 108.869 64.207 109.086 64.207C109.156 64.207 109.235 64.2041 109.323 64.1982C109.411 64.1865 109.505 64.1719 109.604 64.1543V65.3232C109.358 65.3936 109.171 65.4375 109.042 65.4551C108.913 65.4727 108.737 65.4814 108.515 65.4814C107.97 65.4814 107.574 65.2881 107.328 64.9014C107.199 64.6963 107.108 64.4062 107.056 64.0312C106.733 64.4531 106.271 64.8193 105.667 65.1299C105.063 65.4404 104.398 65.5957 103.672 65.5957C102.799 65.5957 102.084 65.332 101.527 64.8047C100.977 64.2715 100.701 63.6064 100.701 62.8096C100.701 61.9365 100.974 61.2598 101.519 60.7793C102.063 60.2988 102.778 60.0029 103.663 59.8916L106.186 59.5752ZM112.162 60.6826C112.162 61.6904 112.376 62.5342 112.804 63.2139C113.231 63.8936 113.917 64.2334 114.86 64.2334C115.593 64.2334 116.193 63.9199 116.662 63.293C117.137 62.6602 117.374 61.7549 117.374 60.5771C117.374 59.3877 117.131 58.5088 116.645 57.9404C116.158 57.3662 115.558 57.0791 114.843 57.0791C114.046 57.0791 113.398 57.3838 112.9 57.9932C112.408 58.6025 112.162 59.499 112.162 60.6826ZM114.544 55.6992C115.265 55.6992 115.868 55.8516 116.354 56.1562C116.636 56.332 116.955 56.6396 117.312 57.0791V52.3242H118.833V65.2793H117.409V63.9697C117.04 64.5498 116.604 64.9688 116.1 65.2266C115.596 65.4844 115.019 65.6133 114.368 65.6133C113.319 65.6133 112.411 65.1738 111.644 64.2949C110.876 63.4102 110.492 62.2354 110.492 60.7705C110.492 59.3994 110.841 58.2129 111.538 57.2109C112.241 56.2031 113.243 55.6992 114.544 55.6992ZM126.189 55.8662H127.754V57.2021C128.129 56.7393 128.469 56.4023 128.773 56.1914C129.295 55.834 129.887 55.6553 130.549 55.6553C131.299 55.6553 131.902 55.8398 132.359 56.209C132.617 56.4199 132.852 56.7305 133.062 57.1406C133.414 56.6367 133.827 56.2646 134.302 56.0244C134.776 55.7783 135.31 55.6553 135.901 55.6553C137.167 55.6553 138.028 56.1123 138.485 57.0264C138.731 57.5186 138.854 58.1807 138.854 59.0127V65.2793H137.211V58.7402C137.211 58.1133 137.053 57.6826 136.736 57.4482C136.426 57.2139 136.045 57.0967 135.594 57.0967C134.973 57.0967 134.437 57.3047 133.985 57.7207C133.54 58.1367 133.317 58.8311 133.317 59.8037V65.2793H131.709V59.1357C131.709 58.4971 131.633 58.0312 131.48 57.7383C131.24 57.2988 130.792 57.0791 130.136 57.0791C129.538 57.0791 128.993 57.3105 128.501 57.7734C128.015 58.2363 127.771 59.0742 127.771 60.2871V65.2793H126.189V55.8662ZM144.919 64.2598C145.968 64.2598 146.686 63.8643 147.072 63.0732C147.465 62.2764 147.661 61.3916 147.661 60.4189C147.661 59.54 147.521 58.8252 147.239 58.2744C146.794 57.4072 146.026 56.9736 144.937 56.9736C143.97 56.9736 143.267 57.3428 142.827 58.0811C142.388 58.8193 142.168 59.71 142.168 60.7529C142.168 61.7549 142.388 62.5898 142.827 63.2578C143.267 63.9258 143.964 64.2598 144.919 64.2598ZM144.98 55.5938C146.193 55.5938 147.219 55.998 148.057 56.8066C148.895 57.6152 149.313 58.8047 149.313 60.375C149.313 61.8926 148.944 63.1465 148.206 64.1367C147.468 65.127 146.322 65.6221 144.77 65.6221C143.475 65.6221 142.446 65.1855 141.685 64.3125C140.923 63.4336 140.542 62.2559 140.542 60.7793C140.542 59.1973 140.943 57.9375 141.746 57C142.549 56.0625 143.627 55.5938 144.98 55.5938ZM151.247 55.8662H152.75V57.4922C152.873 57.1758 153.175 56.792 153.655 56.3408C154.136 55.8838 154.689 55.6553 155.316 55.6553C155.346 55.6553 155.396 55.6582 155.466 55.6641C155.536 55.6699 155.656 55.6816 155.826 55.6992V57.3691C155.732 57.3516 155.645 57.3398 155.562 57.334C155.486 57.3281 155.401 57.3252 155.308 57.3252C154.511 57.3252 153.898 57.583 153.471 58.0986C153.043 58.6084 152.829 59.1973 152.829 59.8652V65.2793H151.247V55.8662ZM161.117 55.6553C161.785 55.6553 162.433 55.8135 163.06 56.1299C163.687 56.4404 164.164 56.8447 164.492 57.3428C164.809 57.8174 165.02 58.3711 165.125 59.0039C165.219 59.4375 165.266 60.1289 165.266 61.0781H158.366C158.396 62.0332 158.621 62.8008 159.043 63.3809C159.465 63.9551 160.118 64.2422 161.003 64.2422C161.829 64.2422 162.488 63.9697 162.98 63.4248C163.262 63.1084 163.461 62.7422 163.578 62.3262H165.134C165.093 62.6719 164.955 63.0586 164.721 63.4863C164.492 63.9082 164.234 64.2539 163.947 64.5234C163.467 64.9922 162.872 65.3086 162.163 65.4727C161.782 65.5664 161.352 65.6133 160.871 65.6133C159.699 65.6133 158.706 65.1885 157.892 64.3389C157.077 63.4834 156.67 62.2881 156.67 60.7529C156.67 59.2412 157.08 58.0137 157.9 57.0703C158.721 56.127 159.793 55.6553 161.117 55.6553ZM163.64 59.8213C163.575 59.1357 163.426 58.5879 163.191 58.1777C162.758 57.416 162.034 57.0352 161.021 57.0352C160.294 57.0352 159.685 57.2988 159.192 57.8262C158.7 58.3477 158.439 59.0127 158.41 59.8213H163.64Z" fill="#CFE9FF"/>
<g clip-path="url(#clip0_494_265)">
<g clip-path="url(#clip1_494_265)">
<g clip-path="url(#clip2_494_265)">
<path fill-rule="evenodd" clip-rule="evenodd" d="M167.879 30.9993C184.707 30.9993 198.349 17.3573 198.349 0.529297V30.9993H167.879Z" fill="#17244A"/>
</g>
</g>
</g>
<g clip-path="url(#clip3_494_265)">
<g clip-path="url(#clip4_494_265)">
<g clip-path="url(#clip5_494_265)">
<path fill-rule="evenodd" clip-rule="evenodd" d="M0.71875 86.6101C10.8145 86.6101 18.9987 78.4258 18.9987 68.3301V86.6101H0.71875Z" fill="#17244A"/>
</g>
</g>
</g>
<defs>
<clipPath id="clip0_494_265">
<rect width="30.47" height="30.47" fill="white" transform="translate(167.879 0.529297)"/>
</clipPath>
<clipPath id="clip1_494_265">
<rect width="30.47" height="30.47" fill="white" transform="translate(167.879 0.529297)"/>
</clipPath>
<clipPath id="clip2_494_265">
<rect width="30.47" height="30.47" fill="white" transform="translate(167.879 0.529297)"/>
</clipPath>
<clipPath id="clip3_494_265">
<rect width="18.28" height="18.28" fill="white" transform="translate(0.71875 68.3301)"/>
</clipPath>
<clipPath id="clip4_494_265">
<rect width="18.28" height="18.28" fill="white" transform="translate(0.71875 68.3301)"/>
</clipPath>
<clipPath id="clip5_494_265">
<rect width="18.28" height="18.28" fill="white" transform="translate(0.71875 68.3301)"/>
</clipPath>
</defs>
</svg>
