<svg width="91" height="91" viewBox="0 0 91 91" fill="none" xmlns="http://www.w3.org/2000/svg">
<path d="M75.833 26.543H15.1663C10.9782 26.543 7.58301 29.9381 7.58301 34.1263V72.043C7.58301 76.2311 10.9782 79.6263 15.1663 79.6263H75.833C80.0212 79.6263 83.4163 76.2311 83.4163 72.043V34.1263C83.4163 29.9381 80.0212 26.543 75.833 26.543Z" stroke="#8AABC4" stroke-width="4" stroke-linecap="round" stroke-linejoin="round"/>
<path d="M60.6663 79.625V18.9583C60.6663 16.9471 59.8674 15.0183 58.4452 13.5961C57.0231 12.174 55.0942 11.375 53.083 11.375H37.9163C35.9051 11.375 33.9763 12.174 32.5541 13.5961C31.132 15.0183 30.333 16.9471 30.333 18.9583V79.625" stroke="#8AABC4" stroke-opacity="0.5" stroke-width="4" stroke-linecap="round" stroke-linejoin="round"/>
</svg>
