<?xml version="1.0" encoding="UTF-8"?>
<svg version="1.1" viewBox="0 0 1600 768" width="1280" height="1280" xmlns="http://www.w3.org/2000/svg">
<path transform="translate(233,333)" d="m0 0c7.91 1.49 15.2 4.14 22.7 7 2.38 0.9 4.76 1.79 7.13 2.69 1.05 0.39 2.09 0.79 3.16 1.2 2.99 1.1 5.99 2.12 9.02 3.11 0.81 2.19 0.81 2.19 1 5l-5 5 22 22c3.67-1.84 5.46-3.22 8.28-6.07l2.53-2.53c1.33-1.36 1.33-1.36 2.7-2.75 1.41-1.41 2.81-2.83 4.22-4.25 1.97-1.98 3.93-3.96 5.9-5.95 3.44-3.48 6.89-6.96 10.3-10.4 1.84-1.85 3.67-3.7 5.5-5.55 0.83-0.84 1.66-1.67 2.51-2.53 0.73-0.74 1.46-1.48 2.21-2.24 2.42-2.27 3.61-2.67 6.93-3.2 5.69 0.73 7.92 3.52 11.9 7.5 1.28 1.25 2.56 2.49 3.84 3.73 1.39 1.36 2.78 2.72 4.16 4.08 0.68 0.67 1.37 1.34 2.07 2.03l1.93 1.93c0.58 0.57 1.15 1.15 1.75 1.74 1.25 1.49 1.25 1.49 1.25 3.49 1.31 0.7 2.65 1.36 4 2 0.64 0.31 1.28 0.62 1.94 0.94 2.29 0.3 2.29 0.3 4.31-1.88 0.92-1.02 1.84-2.04 2.75-3.06 1.33-1.34 2.66-2.67 4-4l9-9c0.66-0.68 1.33-1.35 2.01-2.05 0.72-0.72 1.44-1.45 2.18-2.2 0.67-0.69 1.35-1.37 2.04-2.08 2.43-2.29 3.59-2.64 6.96-3.11 4.94 0.57 7.61 2.69 10.8 6.44v2c0.56 0.23 1.11 0.45 1.69 0.69 3.99 2.27 6.85 4.93 8.31 9.31l4 2 1 3 4 2 1 3 4 2 1 3 4 2 1 3c0.58 0.29 1.15 0.58 1.75 0.88 2.99 1.49 4.9 3.77 7.25 6.12 2.25 0.23 2.25 0.23 4.14-2.01 0.95-1 1.91-1.99 2.86-2.99 1.25-1.26 2.51-2.52 3.77-3.77l11.2-11.2c-1.23-4.07-2.76-7.4-5-11 5.92-2.17 11.8-4.32 17.8-6.46 2.02-0.73 4.03-1.47 6.05-2.21 2.89-1.06 5.79-2.1 8.69-3.15 0.9-0.33 1.81-0.66 2.74-1.01 0.84-0.3 1.68-0.6 2.54-0.91 0.74-0.27 1.48-0.53 2.24-0.81 1.96-0.45 1.96-0.45 4.96 0.55-0.41 1.07-0.83 2.14-1.25 3.25-1.71 4.53-3.2 9.12-4.69 13.7-0.97 2.77-2.09 5.43-3.26 8.12-1.49 3.56-2.72 7.21-3.99 10.8-0.27 0.78-0.54 1.56-0.82 2.36-0.67 1.9-1.33 3.8-1.99 5.7l-8-6c-0.62 0.66-1.24 1.32-1.88 2-2.12 2-2.12 2-4.12 2-0.21 0.53-0.43 1.07-0.65 1.62-1.86 3.27-4.37 5.79-6.99 8.46-0.55 0.57-1.11 1.14-1.69 1.73-1.18 1.2-2.36 2.4-3.54 3.6-1.81 1.83-3.59 3.69-5.37 5.54-1.15 1.17-2.3 2.34-3.46 3.5-0.53 0.56-1.05 1.12-1.59 1.69-2.69 2.65-4.3 3.81-8.09 4.27-4.38-0.5-5.59-1.52-8.64-4.63l-2.79-2.79c-0.98-1.02-1.96-2.04-2.94-3.05-1.02-1.04-2.04-2.07-3.06-3.1-2.68-2.7-5.34-5.43-7.99-8.16-2.72-2.79-5.46-5.56-8.19-8.33-5.36-5.43-10.7-10.9-16-16.4-2.86 1.3-4.33 2.33-6.62 4.62l-2.38 2.38h-2c-0.23 0.56-0.45 1.11-0.69 1.69-1.67 2.94-3.89 4.95-6.31 7.31l-2 3c0.57 0.24 1.14 0.49 1.72 0.74 4.66 2.58 8.17 6.83 11.9 10.6 0.88 0.86 1.75 1.71 2.65 2.59 0.83 0.84 1.66 1.67 2.52 2.53 0.76 0.75 1.52 1.51 2.3 2.29 2.88 3.44 3.8 6.36 4.35 10.8-0.56 4.43-1.99 5.79-5.44 8.5h-2c-0.21 0.72-0.41 1.44-0.62 2.19-1.86 3.78-3.98 5.33-7.38 7.81h-2c-0.25 0.58-0.51 1.15-0.77 1.74-2.34 4.3-6.02 7.54-9.42 11-0.74 0.79-1.48 1.59-2.25 2.4-5.59 5.69-5.59 5.69-10.4 6.48-3.73-0.75-5.41-1.99-8.12-4.63-0.6-0.54-1.2-1.07-1.81-1.62-1.19-1.38-1.19-1.38-1.19-3.38h-2c-1.37-1.43-1.37-1.43-2.88-3.31-2.19-2.67-4.33-4.65-7.12-6.69v-2c-0.88-0.39-0.88-0.39-1.77-0.79-2.37-1.29-3.96-2.68-5.87-4.58l-1.99-1.99c-0.68-0.69-1.36-1.37-2.06-2.08-1.03-1.02-1.03-1.02-2.09-2.06-0.65-0.66-1.31-1.32-1.98-2l-1.81-1.81c-1.43-1.69-1.43-1.69-2.43-4.69 3.35-5.23 8.38-9.3 13.1-13.3 2.43-2.2 4.41-4.64 6.39-7.25 1.96-1.9 3.96-2.6 6.52-3.48 1.51 1.57 3.01 3.16 4.5 4.75 0.84 0.88 1.67 1.76 2.53 2.67 1.97 2.58 1.97 2.58 1.97 6.58h2c-1.44 3.24-3.26 5.62-5.62 8.25-0.64 0.71-1.27 1.41-1.92 2.14-0.48 0.53-0.96 1.06-1.46 1.61 0.54 0.21 1.08 0.43 1.64 0.65 3.2 1.83 5.57 4.35 8.11 6.97 0.51 0.52 1.01 1.04 1.54 1.57 1.24 1.26 2.47 2.54 3.71 3.81 5.29-4.41 10.2-9.08 15-14-2.65-4.2-5.39-7.62-8.96-11.1-0.46-0.46-0.93-0.92-1.41-1.39-1.48-1.46-2.96-2.91-4.44-4.37-11.6-11.4-11.6-11.4-16.8-17.5-2-2.33-4.18-4.46-6.38-6.61-0.57-0.63-1.14-1.25-1.72-1.89-0.61-0.66-1.22-1.31-1.84-1.99-0.84-0.92-0.84-0.92-1.69-1.86-1.64-1.46-1.64-1.46-3.55-1.13-3.1 1.23-4.8 3.17-7.11 5.56-0.69 0.7-0.69 0.7-1.39 1.41-1.45 1.48-2.89 2.97-4.32 4.46-1.91 1.97-3.82 3.93-5.73 5.88-0.85 0.87-1.69 1.75-2.56 2.65-2.09 1.91-2.09 1.91-4.09 1.91-0.27 0.64-0.54 1.28-0.81 1.94-1.19 2.06-1.19 2.06-4.19 3.06-0.4 0.84-0.4 0.84-0.81 1.69-1.72 3.35-4.28 5.93-7.19 8.31h-2c-0.23 0.56-0.45 1.11-0.69 1.69-1.74 3.06-3.58 5.07-6.31 7.31-4.14 0.58-5.48 0.35-9-2v-2c-0.64-0.27-1.28-0.54-1.94-0.81-2.06-1.19-2.06-1.19-3.06-4.19-0.99-0.5-0.99-0.5-2-1-2-1-2-1-3-4-0.99-0.5-0.99-0.5-2-1-2-1-2-1-3-4-0.55-0.27-1.1-0.53-1.67-0.8-3.48-1.79-5.88-4.54-8.58-7.32-0.55-0.57-1.11-1.13-1.68-1.71-1.36-1.39-2.72-2.78-4.07-4.17-2.47 1.15-4.05 2.05-6 4h-3c-1.5-3.37-2-5.2-2-9h-2c-0.27-0.82-0.54-1.65-0.81-2.5-1.05-3.08-2.18-6.11-3.33-9.15-1.39-3.81-2.64-7.67-3.9-11.5-0.92-2.82-0.92-2.82-2.08-5.44-0.88-2.39-0.88-2.39-0.88-6.39z" fill="#BFD9EF"/>
<path transform="translate(617 369)" d="m0 0c2.15 1.02 2.15 1.02 5.34 3.21 0.49 1.48 0.49 1.48 1 3 3 1.71 3 1.71 6 3 0.21-0.56 0.41-1.12 0.62-1.69 2.44-4.09 5.89-6.82 10.4-8.31 8.27-0.64 15-0.79 22 4 0.49 1.48 0.49 1.48 1 3 0.99 0.49 0.99 0.49 2 1 4.44 6.9 4.53 12.8 4.39 20.8-0.01 1.21-0.01 2.42-0.02 3.66-0.02 3.85-0.07 7.69-0.12 11.5-0.02 2.61-0.04 5.22-0.05 7.84-0.05 6.38-0.12 12.8-0.2 19.2h-16c-3.59-10.8-2.31-24-2.56-35.2-0.05-1.83-0.09-3.65-0.13-5.48-0.11-4.42-0.21-8.85-0.31-13.3-5.2-1.46-11.9-1.97-17 0-1.32 2.39-1.32 2.39-2 5l-1 2c-1.3 9.66-1.34 19.4-1.56 29.1-0.05 1.74-0.09 3.48-0.13 5.21-0.11 4.22-0.21 8.45-0.31 12.7h-16c-1.23-2.47-1.16-4.16-1.21-6.91-0.03-1.53-0.03-1.53-0.06-3.1-0.01-1.1-0.03-2.21-0.05-3.34s-0.04-2.26-0.06-3.43c-0.07-3.61-0.12-7.23-0.18-10.8-0.05-2.45-0.09-4.89-0.13-7.34-0.11-6.01-0.21-12-0.31-18-3.35-1.4-5.92-2.28-9.56-2.25-0.75-0.01-1.49-0.01-2.26-0.02-3.63 0.44-5.57 1.71-8.27 4.16-2.83 4.6-2.51 8.79-2.52 14.1-0.02 1.05-0.03 2.11-0.05 3.2-0.05 3.37-0.07 6.75-0.09 10.1l-0.09 6.87c-0.07 5.6-0.12 11.2-0.16 16.8h-16c-1.39-2.78-1.13-5.04-1.13-8.15 0-1.29-0.01-2.58-0.01-3.91 0-1.42 0-2.84 0.01-4.25 0-1.45 0-2.9-0.01-4.34 0-3.04 0-6.07 0.01-9.11 0.01-3.89 0-7.78 0-11.7-0.01-2.99-0.01-5.97 0-8.96 0-1.44 0-2.87-0.01-4.31 0-2.01 0.01-4.01 0.01-6.02v-3.46c0.13-2.81 0.13-2.81 1.13-5.81h16v6c3.9-0.58 6.01-2.54 9-5 5.73-3.66 14.4-3.09 20.7-1.21zm35.3 21.2v34h1v-34h-1zm-41 1 1 3z" fill="#C3DDF4"/>
<path transform="translate(1074 372)" d="m0 0c1.21 0.96 1.21 0.96 2.44 1.94v2c0.93 0.34 0.93 0.34 1.87 0.68 2.81 1.74 3.07 3.22 4.13 6.32 0.51 0.99 1.03 1.98 1.56 3 3.67 7.65 2.44 14.1 2.44 23h-49l1 8c1.68 1.38 1.68 1.38 4 2 0.86 0.68 1.73 1.36 2.62 2.06 5.13 2.94 10.1 3.57 15.9 2.46 4.68-1.39 4.68-1.39 8.24-4.62 3.28-2.76 6.44-2.34 10.5-2.15 0.74 0.02 1.49 0.03 2.26 0.05 1.83 0.05 3.66 0.12 5.49 0.2-2.17 8.57-6.19 14.5-13.6 19.4-10 5.44-21.6 5.51-32.4 2.56-7.61-2.75-13.5-8.35-18-15-0.75-3.32-0.75-3.32-1-6h-2c-3.32-9.96-2.51-23.4 1.94-32.9 4.82-8.13 11-14.2 20.1-17.1 10.8-2.62 22-1.85 31.6 4.06zm-31.6 13.9c-1.74 2.29-2.79 4.34-4 7l1 2h29l1-4c-2.95-4.33-4.94-6.4-10-8-6.09-0.68-12-0.82-17 3zm27 7 1 2z" fill="#C1DBF1"/>
<path transform="translate(1152 373)" d="m0 0c1.98 1.68 2.71 3.15 3.77 5.49l2 2c0.89 1.6 1.74 3.23 2.56 4.88 0.43 0.86 0.87 1.72 1.31 2.61 3.34 7.46 2.13 12.3 2.13 21.5h-49l1 8h2c0.72 0.79 1.44 1.57 2.18 2.38 3.93 3.66 7.14 4.59 12.5 4.65 5.93-0.32 9.8-1.11 14.3-5.03 0.49-0.99 0.49-0.99 1-2h17c-2.75 8.23-7.52 15.3-15 20-5.94 2.67-10.8 3.52-17.3 3.44-0.83-0.01-1.66-0.01-2.52-0.02-9.42-0.25-17.5-2.42-24.2-9.42-8.49-10.8-10.9-20.3-9.75-33.8 1.41-10.4 6.5-17.8 14.5-24.5 11.7-8.5 29.6-8.11 41.5-0.12zm-35.2 16.5c-0.68 0.99-1.36 1.98-2.06 3l1 3h30c-1.04-6.2-1.46-7.21-6-11-8.44-2.81-16.9-1.65-22.9 5zm-20.1 20 1 3z" fill="#C0DAF1"/>
<path transform="translate(940 372)" d="m0 0c1.21 0.96 1.21 0.96 2.44 1.94v2c0.93 0.34 0.93 0.34 1.87 0.68 2.81 1.74 3.07 3.22 4.13 6.32 0.49 0.88 0.99 1.77 1.5 2.68 3.53 7.8 3.5 14.7 3.5 23.3h-50l1 8c1.92 1.59 1.92 1.59 4 2v2c7.18 2.75 13.4 3.78 21 2 3.2-1.47 5.51-3.51 8-6 2.74-0.15 5.38-0.19 8.12-0.13 0.76 0.01 1.51 0.02 2.29 0.03 1.86 0.02 3.72 0.06 5.59 0.1-2.25 8.89-6.34 14.7-14.2 19.5-9.01 5.11-21 4.88-31 2.85-9.19-3.36-14.9-9.78-19.8-18-1.03-2.33-1.03-2.33-1.03-6.33h-2c-1.5-25.6-1.5-25.6 7-36 12.2-13.4 31.9-16.7 47.6-6.94zm-34.5 16.9c-1.38 2.21-1.38 2.21-1.06 6h31l1-2c-0.88-1.3-1.78-2.59-2.69-3.88-0.5-0.72-1-1.44-1.51-2.18-2.77-2.98-5.47-3.77-9.45-4.28-7.44-0.11-12 0.83-17.3 6.34z" fill="#C1DBF1"/>
<path transform="translate(735 372)" d="m0 0c2.54 2.05 3.4 3.1 4.56 6.06 0.52 0.83 1.03 1.65 1.56 2.5 2.72 4.73 2.58 9.2 2.54 14.6v2.34c-0.01 2.45-0.02 4.91-0.04 7.36 0 1.67 0 3.34-0.01 5.01-0.01 4.08-0.03 8.16-0.05 12.2l10 2-1 15c-14.5 0.45-14.5 0.45-19-3-2.25-3.12-2.25-3.12-4-6-0.99-0.49-0.99-0.49-2-1-0.2 0.72-0.41 1.45-0.62 2.19-2.1 4.3-4.97 6.84-9.35 8.61-9.33 2.52-18.6 1.27-27-3.41-4.67-3.15-6.73-7.39-9.06-12.4h-1c-0.74-7.32-0.24-12.1 4.31-18.1 5.81-6.65 12-9.49 20.8-10.2 3.2-0.05 6.38-0.02 9.57 0.06 1.65 0.02 1.65 0.02 3.33 0.04 2.68 0.03 5.36 0.08 8.04 0.14-0.18-1.28-0.37-2.56-0.56-3.87-0.56-3.88-0.56-3.88 0.56-6.13h-2v-2c-6.65-1.61-13.6-3.24-20 0-1.11 1.86-1.11 1.86-2 4-0.97 1.35-1.97 2.69-3 4-10.6-3.07-10.6-3.07-15-5 1.02-6.6 5.82-11.4 10.8-15.4 11.5-7.93 28-6.18 39.7 0.39zm-34.4 40.1c-1.53 2.12-1.97 3.91-2.62 6.44 0.75 3.1 1.5 3.57 4.06 5.38 4.56 2.54 8.43 3.16 13.6 2.18 3.87-1.33 6.97-3.06 10-5.81 1.44-3.13 1.26-5.79 1-9.19-2.28-2.28-7.69-1.18-10.8-1.18-0.91-0.02-1.81-0.03-2.75-0.04-6.49-0.05-6.49-0.05-12.5 2.22zm-19 1 1 3z" fill="#BFD9EF"/>
<path transform="translate(817,340)" d="m0 0h17v53c5.58-1.12 6.31-1.93 9.88-6.06 1.29-1.49 1.29-1.49 2.62-3.01 0.82-0.97 1.65-1.93 2.5-2.93 1.31-1.48 2.62-2.96 3.94-4.44 1.62-1.84 3.05-3.54 4.32-5.65 1.74-1.91 1.74-1.91 4.19-2.36 0.95 0.02 1.9 0.04 2.87 0.06 1.55 0.02 1.55 0.02 3.12 0.04 1.07 0.03 2.14 0.07 3.25 0.1 1.08 0.02 2.16 0.04 3.28 0.05 2.68 0.05 5.35 0.12 8.03 0.2-2.29 4.29-5.27 7.47-8.75 10.8-4.05 3.97-7.93 7.97-11.6 12.3-2.56 2.88-5.41 5.44-8.26 8.02-1.66 1.76-1.66 1.76-1.25 4.03 0.7 2.02 0.7 2.02 2.84 2.83 1.16 1.12 2.31 2.25 3.43 3.41 1.19 1.2 2.39 2.38 3.61 3.56 0.71 0.69 1.42 1.38 2.15 2.09 0.67 0.65 1.35 1.3 2.04 1.98 1.77 1.96 1.77 1.96 2.69 3.93 1.97 3.71 5.65 6 8.87 8.62 2.6 2.83 2.94 4.63 3.21 8.41-16.6 2.06-16.6 2.06-21.9-1.16-3.47-3.16-6.04-6.98-8.65-10.8-2.42-3.39-5.3-6.35-8.17-9.37-1.02-1.09-2.03-2.18-3.05-3.27-0.72-0.77-1.45-1.55-2.2-2.35-1.49 0.5-1.49 0.5-3 1l-1 26h-16c-1.67-3.35-1.14-7.12-1.13-10.8v-2.76c-0.01-3.03-0.01-6.06 0-9.08 0-2.1 0-4.2-0.01-6.29 0-4.41 0-8.81 0.01-13.2 0.01-5.64 0-11.3 0-16.9-0.01-4.33-0.01-8.67 0-13 0-2.08 0-4.16-0.01-6.25 0-2.9 0.01-5.81 0.01-8.72 0-0.87 0-1.73-0.01-2.62 0.02-3.36 0.07-6.11 1.14-9.32z" fill="#C1DBF2"/>
<path transform="translate(1276 373)" d="m0 0c1.88 1.94 1.88 1.94 1.88 3.94 0.99 0.33 1.98 0.66 3 1 1.62 3.25 2.32 6.45 3 10-2.13 0.67-4.25 1.33-6.38 2-1.18 0.37-2.37 0.74-3.59 1.12-3.03 0.88-3.03 0.88-5.03 0.88-0.46-1.12-0.91-2.23-1.38-3.38-1.41-2.47-2.24-3.45-4.87-4.6-5.47-1.24-9.6-1.28-14.8 0.98-2.28 2.81-2.28 2.81-2 6 6.07 2.8 12.1 4.57 18.6 6 14.9 3.37 14.9 3.37 19.3 10 2.63 4.56 3.2 8.38 3.19 13.6 0 1.44 0 1.44 0.01 2.92-0.13 2.46-0.13 2.46-1.13 4.46h-2c-0.08 0.76-0.16 1.52-0.25 2.3-0.95 3.38-1.92 4.07-4.88 5.88-10.4 5.76-22.6 5.76-33.9 2.82-7.14-2.22-11.7-7.06-16-13-1.63-3.38-1.63-3.38-2-6 2.39-3.59 3.37-3.67 7.43-4.69 0.97-0.25 1.94-0.5 2.94-0.76 2.63-0.55 2.63-0.55 5.63-0.55 0.12 0.78 0.24 1.56 0.37 2.37 0.42 2.77 0.42 2.77 2.63 4.63 0.32 0.66 0.66 1.32 1 2 4.3 1.8 8.03 2.27 12.7 2.25 1.68 0.01 1.68 0.01 3.39 0.01 3.12-0.05 3.12-0.05 5.93-2.26 0.25-3.59 0.25-3.59 0-7-4.71-2.62-9.05-3.82-14.3-4.88-9.66-2.14-18-4.62-23.7-13.1-0.44-0.62-0.87-1.24-1.32-1.88-1.75-5.42-1.03-11 1.15-16.2 3.2-5.38 8-8.85 13.8-10.9 10.6-2.62 22.2-2.11 31.4 4z" fill="#BDD7ED"/>
<path transform="translate(976,347)" d="m0 0h16c0.5 10.4 0.5 10.4 1 21l19 1-1 15h-18l-1 38c3.85 0.96 7.3 1.31 11.2 1.56 2.23 0.15 4.46 0.29 6.75 0.44l-1 15c-3.35 0.08-6.71 0.14-10.1 0.19-0.95 0.02-1.89 0.05-2.86 0.07-5.84 0.06-9.94-0.41-15.1-3.26-3.44-3.63-5.89-6.92-6.16-12 0.03-1.2 0.06-2.4 0.1-3.64 0.13-7.81-0.12-15.6-0.44-23.4-0.05-1.18-0.1-2.35-0.14-3.56-0.12-2.82-0.24-5.63-0.36-8.44-1.06-0.04-2.12-0.07-3.21-0.11-1.39-0.07-2.78-0.14-4.17-0.2-0.69-0.03-1.39-0.05-2.11-0.07-2.03-0.11-2.03-0.11-5.51-0.62-2.1-3.15-2.25-3.91-2.19-7.5 0.01-1.16 0.01-1.16 0.02-2.34 0.17-2.16 0.17-2.16 1.17-5.16h17c-0.01-1.34-0.02-2.67-0.04-4.05 0-1.75-0.01-3.51-0.02-5.26-0.01-0.88-0.02-1.76-0.03-2.67 0-1.27 0-1.27-0.01-2.57-0.01-1.17-0.01-1.17-0.01-2.37 0.11-2.08 0.11-2.08 1.11-5.08z" fill="#C0DAF1"/>
<path transform="translate(765,369)" d="m0 0h17v8c0.72-0.76 1.44-1.53 2.19-2.31 3.72-3.56 6.13-5.55 11.4-5.98 1.86 0.05 1.86 0.05 3.76 0.1 2.21 0.06 4.42 0.13 6.69 0.19l-1 16c-2.02 0.1-4.04 0.21-6.12 0.31-6.01 0.47-10.5 1.06-14.7 5.69-1.86 3.12-2.32 5.73-2.4 9.29-0.02 0.86-0.04 1.72-0.06 2.61-0.02 1.38-0.02 1.38-0.05 2.8-0.02 0.95-0.04 1.9-0.06 2.88-0.06 3.03-0.12 6.07-0.18 9.11-0.05 2.06-0.09 4.11-0.13 6.17-0.11 5.05-0.21 10.1-0.31 15.1h-16c-1.39-2.78-1.13-5.04-1.13-8.15 0-1.29-0.01-2.58-0.01-3.91 0-1.42 0-2.83 0.01-4.25 0-1.45 0-2.89-0.01-4.34 0-3.04 0-6.07 0.01-9.11 0.01-3.89 0-7.78 0-11.7-0.01-2.99-0.01-5.98 0-8.97 0-1.44 0-2.87-0.01-4.31 0-2 0.01-4.01 0.01-6.01v-3.47c0.13-2.81 0.13-2.81 1.13-5.81z" fill="#C2DCF2"/>
<path transform="translate(1178,369)" d="m0 0h17l-1 7c4.26-0.47 6.15-3 9-6 4.46-2.23 11.2-1.04 16-1l-1 16c-3.22 0.23-6.45 0.46-9.67 0.68-4.23 0.35-4.23 0.35-8.33 1.32-4.1 7.04-5.45 14.4-5.51 22.4-0.02 0.85-0.04 1.71-0.06 2.58-0.05 2.69-0.08 5.38-0.12 8.07-0.03 1.84-0.07 3.68-0.1 5.52-0.09 4.47-0.15 8.95-0.21 13.4h-16c-0.15-8.68-0.3-17.4-0.44-26-0.07-4.03-0.14-8.07-0.21-12.1-0.07-3.89-0.13-7.78-0.19-11.7-0.03-1.48-0.05-2.97-0.08-4.45-0.04-2.08-0.07-4.16-0.1-6.24-0.02-1.18-0.04-2.37-0.06-3.59 0.08-2.9 0.08-2.9 1.08-5.9z" fill="#C1DCF2"/>
<path transform="translate(1176,378)" d="m0 0h1v56h-1v-56z" fill="#C7E2F9"/>
<path transform="translate(815,347)" d="m0 0h1v38h-1v-38z" fill="#C7E2F9"/>
<path transform="translate(974,411)" d="m0 0h1v16h-1v-16z" fill="#C7E2F9"/>
<path transform="translate(884,401)" d="m0 0h1v8h-1v-8z" fill="#C7E2F9"/>
</svg>
