<svg width="120" height="120" viewBox="0 0 120 120" fill="none" xmlns="http://www.w3.org/2000/svg">
<path d="M23.075 100C20.775 100 18.855 99.23 17.315 97.69C15.7717 96.1467 15 94.225 15 91.925V43.075C15 40.775 15.7717 38.855 17.315 37.315C18.855 35.7717 20.775 35 23.075 35H45V28.075C45 25.775 45.7717 23.855 47.315 22.315C48.855 20.7717 50.775 20 53.075 20H66.925C69.225 20 71.1467 20.7717 72.69 22.315C74.23 23.855 75 25.775 75 28.075V35H96.925C99.225 35 101.145 35.7717 102.685 37.315C104.228 38.855 105 40.775 105 43.075V91.925C105 94.225 104.23 96.145 102.69 97.685C101.147 99.2284 99.225 100 96.925 100H23.075ZM50 35H70V28.075C70 27.3083 69.68 26.6033 69.04 25.96C68.3967 25.32 67.6917 25 66.925 25H53.075C52.3083 25 51.6033 25.32 50.96 25.96C50.32 26.6033 50 27.3083 50 28.075V35ZM100 72.5H70V80H50V72.5H20V91.925C20 92.6917 20.32 93.3967 20.96 94.04C21.6033 94.68 22.3083 95 23.075 95H96.925C97.6917 95 98.3967 94.68 99.04 94.04C99.68 93.3967 100 92.6917 100 91.925V72.5ZM55 75H65V65H55V75ZM20 67.5H50V60H70V67.5H100V43.075C100 42.3083 99.68 41.6033 99.04 40.96C98.3967 40.32 97.6917 40 96.925 40H23.075C22.3083 40 21.6033 40.32 20.96 40.96C20.32 41.6033 20 42.3083 20 43.075V67.5Z" fill="#8AABC4"/>
</svg>
