<svg width="136" height="136" viewBox="0 0 136 136" fill="none" xmlns="http://www.w3.org/2000/svg">
<path d="M19.8333 101.784C19.0287 101.784 18.3562 101.512 17.816 100.968C17.2758 100.424 17.0038 99.7478 17 98.9393C17 98.1347 17.272 97.4622 17.816 96.922C18.3562 96.3818 19.0287 96.1117 19.8333 96.1117H68.3287C69.1295 96.1117 69.802 96.3818 70.346 96.922C70.89 97.466 71.162 98.1404 71.162 98.945C71.162 99.7497 70.89 100.422 70.346 100.962C69.802 101.506 69.1295 101.778 68.3287 101.778L19.8333 101.784ZM19.8333 74.6464C19.0287 74.6464 18.3562 74.3744 17.816 73.8304C17.272 73.2864 17 72.612 17 71.8074C17 71.0065 17.272 70.334 17.816 69.79C18.3562 69.2498 19.0287 68.9797 19.8333 68.9797H39.4513C40.2522 68.9797 40.9247 69.2517 41.4687 69.7957C42.0127 70.3397 42.2847 71.014 42.2847 71.8187C42.2847 72.6233 42.0127 73.2958 41.4687 73.836C40.9247 74.3762 40.2522 74.6464 39.4513 74.6464H19.8333ZM19.8333 47.5144C19.0287 47.5144 18.3562 47.2424 17.816 46.6984C17.2758 46.1544 17.0038 45.48 17 44.6753C17 43.8707 17.272 43.1982 17.816 42.658C18.3562 42.1178 19.0287 41.8477 19.8333 41.8477H39.4513C40.2522 41.8477 40.9247 42.1197 41.4687 42.6637C42.0127 43.2077 42.2847 43.8801 42.2847 44.681C42.2847 45.4857 42.0127 46.1581 41.4687 46.6984C40.9247 47.2424 40.2522 47.5144 39.4513 47.5144H19.8333ZM78.897 85.107C72.5352 85.107 67.1141 82.9083 62.6337 78.511C58.1457 74.1099 55.9017 68.736 55.9017 62.3894C55.9017 56.0389 58.1475 50.6631 62.6393 46.262C67.1273 41.8647 72.556 39.666 78.9253 39.666C85.2909 39.666 90.712 41.8647 95.1887 46.262C99.654 50.6669 101.887 56.0238 101.887 62.3327C101.887 64.8525 101.467 67.3137 100.629 69.7164C99.79 72.1152 98.5679 74.3045 96.9623 76.284L116.988 95.9814C117.593 96.4876 117.895 97.1336 117.895 97.9194C117.895 98.7014 117.593 99.3927 116.988 99.9934C116.482 100.522 115.84 100.787 115.062 100.787C114.283 100.787 113.588 100.522 112.976 99.9934L92.9503 80.2903C90.9028 81.8241 88.6777 83.0104 86.275 83.849C83.8723 84.6877 81.4111 85.107 78.8913 85.107M78.8913 79.4404C83.7042 79.4404 87.7955 77.7876 91.1653 74.482C94.5351 71.1765 96.22 67.1456 96.22 62.3894C96.22 57.6294 94.5351 53.5966 91.1653 50.291C87.7993 46.9855 83.7099 45.3327 78.897 45.3327C74.0841 45.3327 69.9928 46.9855 66.623 50.291C63.2532 53.5966 61.5683 57.6294 61.5683 62.3894C61.5683 67.1494 63.2532 71.1802 66.623 74.482C69.9928 77.7876 74.0841 79.4404 78.897 79.4404" fill="#8AABC4"/>
</svg>
