<svg xmlns="http://www.w3.org/2000/svg" width="30" height="30" viewBox="0 0 30 30" fill="none">
  <mask id="mask0_2_130" style="mask-type:alpha" maskUnits="userSpaceOnUse" x="1" y="0" width="29" height="29">
    <path d="M29.7241 0.652344H1.43091V28.9552H29.7241V0.652344Z" fill="#DCEFD8" fill-opacity="0.8"/>
  </mask>
  <g mask="url(#mask0_2_130)">
    <path fill-rule="evenodd" clip-rule="evenodd" d="M22.4997 6.66921C22.4997 6.75191 22.4934 6.83314 22.4814 6.91246H23.0322C24.7967 6.91246 26.2271 8.30707 26.2271 10.0274V22.4871C26.2271 24.2075 24.7967 25.6021 23.0322 25.6021H8.12258C6.35809 25.6021 4.92767 24.2075 4.92767 22.4871V10.0274C4.92767 8.30707 6.35809 6.91246 8.12258 6.91246H8.6735C8.66139 6.83316 8.65511 6.75193 8.65511 6.66925V5.60391C8.65511 4.72136 9.37032 4.00591 10.2526 4.00591C11.1349 4.00591 11.8501 4.72136 11.8501 5.60391V6.66925C11.8501 6.75193 11.8437 6.83316 11.8316 6.91246H19.3232C19.3111 6.83314 19.3048 6.75191 19.3048 6.66921V5.60386C19.3048 4.72131 20.02 4.00586 20.9023 4.00586C21.7845 4.00586 22.4997 4.72131 22.4997 5.60386V6.66921ZM8.12258 8.98909H23.0322C23.6204 8.98909 24.0971 9.45396 24.0971 10.0274V11.996H7.05762V10.0274C7.05762 9.45396 7.53442 8.98909 8.12258 8.98909ZM7.05762 14.1266V22.4871C7.05762 23.0606 7.53442 23.5254 8.12258 23.5254H23.0322C23.6204 23.5254 24.0971 23.0606 24.0971 22.4871V14.1266H7.05762Z" fill="#DCEFD8" fill-opacity="0.8"/>
  </g>
</svg>