<svg width="91" height="91" viewBox="0 0 91 91" fill="none" xmlns="http://www.w3.org/2000/svg">
<path d="M45.5 56.875C51.7822 56.875 56.875 51.7822 56.875 45.5C56.875 39.2178 51.7822 34.125 45.5 34.125C39.2178 34.125 34.125 39.2178 34.125 45.5C34.125 51.7822 39.2178 56.875 45.5 56.875Z" stroke="#8AABC4" stroke-opacity="0.5" stroke-width="4" stroke-linecap="round" stroke-linejoin="round"/>
<path d="M73.5587 56.8763C73.0539 58.0199 72.9034 59.2885 73.1264 60.5185C73.3494 61.7485 73.9358 62.8835 74.8099 63.7771L75.0374 64.0046C75.7425 64.7089 76.3018 65.5453 76.6835 66.4659C77.0651 67.3865 77.2615 68.3733 77.2615 69.3698C77.2615 70.3664 77.0651 71.3532 76.6835 72.2738C76.3018 73.1944 75.7425 74.0308 75.0374 74.7351C74.3331 75.4401 73.4968 75.9995 72.5762 76.3811C71.6556 76.7627 70.6688 76.9591 69.6722 76.9591C68.6756 76.9591 67.6888 76.7627 66.7682 76.3811C65.8476 75.9995 65.0113 75.4401 64.307 74.7351L64.0795 74.5076C63.1859 73.6334 62.0509 73.0471 60.8209 72.824C59.5909 72.601 58.3223 72.7516 57.1787 73.2563C56.0572 73.7369 55.1008 74.535 54.4271 75.5523C53.7534 76.5696 53.3919 77.7616 53.387 78.9817V79.6263C53.387 81.6375 52.588 83.5664 51.1659 84.9885C49.7437 86.4107 47.8149 87.2096 45.8037 87.2096C43.7924 87.2096 41.8636 86.4107 40.4414 84.9885C39.0193 83.5664 38.2203 81.6375 38.2203 79.6263V79.2851C38.191 78.03 37.7847 76.8129 37.0544 75.7918C36.3241 74.7707 35.3035 73.993 34.1253 73.5596C32.9817 73.0549 31.7131 72.9044 30.4831 73.1274C29.2531 73.3504 28.1181 73.9368 27.2245 74.8109L26.997 75.0384C26.2927 75.7435 25.4564 76.3028 24.5357 76.6844C23.6151 77.0661 22.6284 77.2625 21.6318 77.2625C20.6352 77.2625 19.6484 77.0661 18.7278 76.6844C17.8072 76.3028 16.9709 75.7435 16.2666 75.0384C15.5615 74.3341 15.0022 73.4977 14.6205 72.5771C14.2389 71.6565 14.0425 70.6698 14.0425 69.6732C14.0425 68.6766 14.2389 67.6898 14.6205 66.7692C15.0022 65.8486 15.5615 65.0123 16.2666 64.308L16.4941 64.0805C17.3682 63.1869 17.9546 62.0519 18.1776 60.8219C18.4006 59.5919 18.2501 58.3233 17.7453 57.1796C17.2647 56.0582 16.4666 55.1017 15.4493 54.4281C14.4321 53.7544 13.24 53.3928 12.0199 53.388H11.3753C9.3641 53.388 7.43525 52.589 6.0131 51.1669C4.59095 49.7447 3.79199 47.8159 3.79199 45.8046C3.79199 43.7934 4.59095 41.8646 6.0131 40.4424C7.43525 39.0203 9.3641 38.2213 11.3753 38.2213H11.7166C12.9716 38.1919 14.1888 37.7857 15.2098 37.0554C16.2309 36.3251 17.0087 35.3045 17.442 34.1263C17.9467 32.9827 18.0973 31.7141 17.8743 30.4841C17.6512 29.2541 17.0649 28.1191 16.1907 27.2255L15.9632 26.998C15.2582 26.2937 14.6988 25.4573 14.3172 24.5367C13.9356 23.6161 13.7392 22.6293 13.7392 21.6328C13.7392 20.6362 13.9356 19.6494 14.3172 18.7288C14.6988 17.8082 15.2582 16.9718 15.9632 16.2676C16.6675 15.5625 17.5039 15.0031 18.4245 14.6215C19.3451 14.2399 20.3319 14.0435 21.3285 14.0435C22.325 14.0435 23.3118 14.2399 24.2324 14.6215C25.153 15.0031 25.9894 15.5625 26.6937 16.2676L26.9212 16.4951C27.8148 17.3692 28.9498 17.9555 30.1798 18.1786C31.4098 18.4016 32.6784 18.251 33.822 17.7463H34.1253C35.2468 17.2657 36.2032 16.4676 36.8769 15.4503C37.5506 14.4331 37.9121 13.241 37.917 12.0209V11.3763C37.917 9.36508 38.716 7.43623 40.1381 6.01408C41.5603 4.59192 43.4891 3.79297 45.5003 3.79297C47.5116 3.79297 49.4404 4.59192 50.8626 6.01408C52.2847 7.43623 53.0837 9.36508 53.0837 11.3763V11.7176C53.0885 12.9377 53.4501 14.1297 54.1237 15.147C54.7974 16.1643 55.7539 16.9623 56.8753 17.443C58.019 17.9477 59.2876 18.0983 60.5176 17.8752C61.7476 17.6522 62.8825 17.0658 63.7762 16.1917L64.0037 15.9642C64.7079 15.2591 65.5443 14.6998 66.4649 14.3182C67.3855 13.9366 68.3723 13.7401 69.3689 13.7401C70.3654 13.7401 71.3522 13.9366 72.2728 14.3182C73.1934 14.6998 74.0298 15.2591 74.7341 15.9642C75.4391 16.6685 75.9985 17.5049 76.3801 18.4255C76.7617 19.3461 76.9582 20.3329 76.9582 21.3294C76.9582 22.326 76.7617 23.3128 76.3801 24.2334C75.9985 25.154 75.4391 25.9903 74.7341 26.6946L74.5066 26.9221C73.6325 27.8158 73.0461 28.9507 72.8231 30.1807C72.6 31.4107 72.7506 32.6793 73.2553 33.823V34.1263C73.736 35.2478 74.5341 36.2042 75.5513 36.8779C76.5686 37.5516 77.7606 37.9131 78.9807 37.918H79.6253C81.6366 37.918 83.5654 38.7169 84.9876 40.1391C86.4097 41.5612 87.2087 43.4901 87.2087 45.5013C87.2087 47.5125 86.4097 49.4414 84.9876 50.8635C83.5654 52.2857 81.6366 53.0846 79.6253 53.0846H79.2841C78.064 53.0895 76.8719 53.451 75.8547 54.1247C74.8374 54.7984 74.0393 55.7548 73.5587 56.8763V56.8763Z" stroke="#8AABC4" stroke-width="4" stroke-linecap="round" stroke-linejoin="round"/>
</svg>
