<svg xmlns="http://www.w3.org/2000/svg" width="90" height="89" viewBox="0 0 90 89" fill="none">
  <g opacity="0.67">
    <path d="M46.2043 87.5869C45.605 87.933 44.8666 87.933 44.2672 87.5869L8.63306 67.0136C8.0337 66.6675 7.66448 66.0281 7.66448 65.336L7.66447 24.1893C7.66447 23.4971 8.03369 22.8577 8.63305 22.5116L44.2672 1.93824C44.8666 1.5922 45.605 1.5922 46.2043 1.93824L81.8385 22.5116C82.4378 22.8577 82.807 23.4971 82.807 24.1892V65.3359C82.807 66.0281 82.4378 66.6675 81.8385 67.0136L46.2043 87.5869Z" fill="#8aabc4"/>
    <path d="M45.2357 23.5258C33.507 23.5258 23.9991 33.0338 23.9991 44.7624C23.9991 56.4911 33.507 65.999 45.2357 65.999C56.9643 65.999 66.4723 56.4911 66.4723 44.7624C66.4723 33.0338 56.9643 23.5258 45.2357 23.5258Z" fill="white"/>
  </g>
</svg>