<svg width="144" height="144" viewBox="0 0 144 144" fill="none" xmlns="http://www.w3.org/2000/svg">
<path d="M72 15.75C60.8748 15.75 49.9995 19.049 40.7492 25.2298C31.4989 31.4107 24.2892 40.1957 20.0318 50.4741C15.7744 60.7524 14.6604 72.0624 16.8309 82.9738C19.0013 93.8853 24.3586 103.908 32.2253 111.775C40.092 119.641 50.1148 124.999 61.0262 127.169C71.9376 129.34 83.2476 128.226 93.526 123.968C103.804 119.711 112.589 112.501 118.77 103.251C124.951 94.0006 128.25 83.1252 128.25 72C128.234 57.0866 122.302 42.7887 111.757 32.2433C101.211 21.698 86.9134 15.7664 72 15.75ZM72 123.75C61.7648 123.75 51.7595 120.715 43.2493 115.029C34.739 109.342 28.1061 101.26 24.1893 91.8039C20.2724 82.3478 19.2476 71.9426 21.2444 61.9041C23.2412 51.8656 28.1699 42.6446 35.4073 35.4072C42.6446 28.1699 51.8656 23.2411 61.9041 21.2444C71.9426 19.2476 82.3478 20.2724 91.8039 24.1892C101.26 28.1061 109.342 34.739 115.029 43.2492C120.715 51.7595 123.75 61.7648 123.75 72C123.735 85.7204 118.278 98.8746 108.576 108.576C98.8746 118.278 85.7204 123.735 72 123.75ZM72 33.75C64.4349 33.75 57.0396 35.9933 50.7495 40.1963C44.4593 44.3993 39.5567 50.3731 36.6616 57.3624C33.7666 64.3516 33.0091 72.0424 34.485 79.4622C35.9609 86.882 39.6038 93.6975 44.9532 99.0469C50.3026 104.396 57.1181 108.039 64.5378 109.515C71.9576 110.991 79.6484 110.233 86.6377 107.338C93.627 104.443 99.6008 99.5408 103.804 93.2506C108.007 86.9604 110.25 79.5651 110.25 72C110.24 61.8587 106.206 52.1357 99.0354 44.9647C91.8643 37.7937 82.1414 33.7604 72 33.75ZM72 105.75C65.3249 105.75 58.7997 103.771 53.2495 100.062C47.6994 96.3536 43.3736 91.0826 40.8191 84.9156C38.2646 78.7486 37.5963 71.9626 38.8985 65.4157C40.2008 58.8688 43.4152 52.8552 48.1352 48.1352C52.8552 43.4151 58.8689 40.2008 65.4157 38.8985C71.9626 37.5963 78.7486 38.2646 84.9156 40.8191C91.0826 43.3735 96.3536 47.6994 100.062 53.2495C103.771 58.7997 105.75 65.3249 105.75 72C105.74 80.9479 102.18 89.5263 95.8534 95.8534C89.5263 102.18 80.9479 105.74 72 105.75Z" fill="#8AABC4"/>
</svg>
