<svg width="213" height="61" viewBox="0 0 213 61" fill="none" xmlns="http://www.w3.org/2000/svg">
<path fill-rule="evenodd" clip-rule="evenodd" d="M27.1544 28.5265C27.1452 13.7855 15.192 1.8387 0.449219 1.83871L0.449219 0.15625L212.078 0.159997V1.83869C197.33 1.83869 185.373 13.7947 185.373 28.5434V43.6077C185.373 52.6838 178.016 60.0417 168.939 60.0417H43.5882C34.5118 60.0417 27.1544 52.6838 27.1544 43.6077V28.5265Z" fill="#26292B"/>
<path d="M66.3711 28.2266C67.2826 28.2266 68.002 28.0443 68.5293 27.6797C69.0632 27.3151 69.3301 26.6576 69.3301 25.707C69.3301 24.6849 68.959 23.9883 68.2168 23.6172C67.8197 23.4219 67.2891 23.3242 66.625 23.3242H61.8789V28.2266H66.3711ZM59.9355 21.6543H66.5762C67.6699 21.6543 68.5716 21.8138 69.2812 22.1328C70.6289 22.7448 71.3027 23.8743 71.3027 25.5215C71.3027 26.3809 71.1237 27.084 70.7656 27.6309C70.4141 28.1777 69.9193 28.6172 69.2812 28.9492C69.8411 29.1771 70.2611 29.4766 70.541 29.8477C70.8275 30.2188 70.987 30.821 71.0195 31.6543L71.0879 33.5781C71.1074 34.125 71.153 34.5319 71.2246 34.7988C71.3418 35.2546 71.5501 35.5475 71.8496 35.6777V36H69.4668C69.4017 35.8763 69.3496 35.7168 69.3105 35.5215C69.2715 35.3262 69.2389 34.9486 69.2129 34.3887L69.0957 31.9961C69.0501 31.0586 68.7018 30.4303 68.0508 30.1113C67.6797 29.9355 67.097 29.8477 66.3027 29.8477H61.8789V36H59.9355V21.6543ZM78.2754 25.3066C79.0176 25.3066 79.737 25.4824 80.4336 25.834C81.1302 26.179 81.6608 26.6283 82.0254 27.1816C82.377 27.709 82.6113 28.3242 82.7285 29.0273C82.8327 29.5091 82.8848 30.2773 82.8848 31.332H75.2188C75.2513 32.3932 75.502 33.2461 75.9707 33.8906C76.4395 34.5286 77.1654 34.8477 78.1484 34.8477C79.0664 34.8477 79.7988 34.5449 80.3457 33.9395C80.6582 33.5879 80.8796 33.181 81.0098 32.7188H82.7383C82.6927 33.1029 82.5397 33.5326 82.2793 34.0078C82.0254 34.4766 81.7389 34.8607 81.4199 35.1602C80.8861 35.681 80.2253 36.0326 79.4375 36.2148C79.0143 36.319 78.5358 36.3711 78.002 36.3711C76.6999 36.3711 75.5964 35.8991 74.6914 34.9551C73.7865 34.0046 73.334 32.6764 73.334 30.9707C73.334 29.291 73.7897 27.9271 74.7012 26.8789C75.6126 25.8307 76.804 25.3066 78.2754 25.3066ZM81.0781 29.9355C81.0065 29.1738 80.8405 28.5651 80.5801 28.1094C80.0983 27.263 79.2943 26.8398 78.168 26.8398C77.3607 26.8398 76.6836 27.1328 76.1367 27.7188C75.5898 28.2982 75.3001 29.0371 75.2676 29.9355H81.0781ZM86.0977 32.7188C86.1497 33.3047 86.2962 33.7539 86.5371 34.0664C86.9798 34.6328 87.748 34.916 88.8418 34.916C89.4928 34.916 90.0658 34.776 90.5605 34.4961C91.0553 34.2096 91.3027 33.7702 91.3027 33.1777C91.3027 32.7285 91.1042 32.3867 90.707 32.1523C90.4531 32.0091 89.9518 31.8431 89.2031 31.6543L87.8066 31.3027C86.9147 31.0814 86.2572 30.834 85.834 30.5605C85.0788 30.0853 84.7012 29.4277 84.7012 28.5879C84.7012 27.5983 85.056 26.7975 85.7656 26.1855C86.4818 25.5736 87.4421 25.2676 88.6465 25.2676C90.222 25.2676 91.3581 25.7298 92.0547 26.6543C92.4909 27.2402 92.7025 27.8717 92.6895 28.5488H91.0293C90.9967 28.1517 90.8568 27.7904 90.6094 27.4648C90.2057 27.0026 89.5059 26.7715 88.5098 26.7715C87.8457 26.7715 87.3411 26.8984 86.9961 27.1523C86.6576 27.4062 86.4883 27.7415 86.4883 28.1582C86.4883 28.6139 86.7129 28.9785 87.1621 29.252C87.4225 29.4147 87.8066 29.5579 88.3145 29.6816L89.4766 29.9648C90.7396 30.2708 91.5859 30.5671 92.0156 30.8535C92.6992 31.3027 93.041 32.0091 93.041 32.9727C93.041 33.9036 92.6862 34.7077 91.9766 35.3848C91.2734 36.0618 90.1992 36.4004 88.7539 36.4004C87.1979 36.4004 86.0944 36.0488 85.4434 35.3457C84.7988 34.6361 84.4538 33.7604 84.4082 32.7188H86.0977ZM99.2031 34.8672C100.368 34.8672 101.166 34.4277 101.596 33.5488C102.032 32.6634 102.25 31.6803 102.25 30.5996C102.25 29.623 102.094 28.8288 101.781 28.2168C101.286 27.2533 100.434 26.7715 99.2227 26.7715C98.1484 26.7715 97.3672 27.1816 96.8789 28.002C96.3906 28.8223 96.1465 29.8118 96.1465 30.9707C96.1465 32.084 96.3906 33.0117 96.8789 33.7539C97.3672 34.4961 98.1419 34.8672 99.2031 34.8672ZM99.2715 25.2383C100.619 25.2383 101.758 25.6875 102.689 26.5859C103.62 27.4844 104.086 28.806 104.086 30.5508C104.086 32.237 103.676 33.6302 102.855 34.7305C102.035 35.8307 100.762 36.3809 99.0371 36.3809C97.5983 36.3809 96.4557 35.8958 95.6094 34.9258C94.763 33.9492 94.3398 32.6406 94.3398 31C94.3398 29.2422 94.7858 27.8424 95.6777 26.8008C96.5697 25.7591 97.7676 25.2383 99.2715 25.2383ZM107.943 25.541V32.4844C107.943 33.0182 108.028 33.4544 108.197 33.793C108.51 34.418 109.092 34.7305 109.945 34.7305C111.169 34.7305 112.003 34.1836 112.445 33.0898C112.686 32.5039 112.807 31.6999 112.807 30.6777V25.541H114.564V36H112.904L112.924 34.457C112.696 34.8542 112.413 35.1895 112.074 35.4629C111.404 36.0098 110.59 36.2832 109.633 36.2832C108.142 36.2832 107.126 35.7852 106.586 34.7891C106.293 34.2552 106.146 33.5423 106.146 32.6504V25.541H107.943ZM117.367 25.541H119.037V27.3477C119.174 26.9961 119.509 26.5697 120.043 26.0684C120.577 25.5605 121.192 25.3066 121.889 25.3066C121.921 25.3066 121.977 25.3099 122.055 25.3164C122.133 25.3229 122.266 25.3359 122.455 25.3555V27.2109C122.351 27.1914 122.253 27.1784 122.162 27.1719C122.077 27.1654 121.983 27.1621 121.879 27.1621C120.993 27.1621 120.313 27.4486 119.838 28.0215C119.363 28.5879 119.125 29.2422 119.125 29.9844V36H117.367V25.541ZM128.012 25.2383C129.19 25.2383 130.147 25.5247 130.883 26.0977C131.625 26.6706 132.071 27.6569 132.221 29.0566H130.512C130.408 28.4121 130.17 27.8783 129.799 27.4551C129.428 27.0254 128.832 26.8105 128.012 26.8105C126.892 26.8105 126.091 27.3574 125.609 28.4512C125.297 29.1608 125.141 30.0365 125.141 31.0781C125.141 32.1263 125.362 33.0085 125.805 33.7246C126.247 34.4408 126.944 34.7988 127.895 34.7988C128.624 34.7988 129.2 34.5775 129.623 34.1348C130.053 33.6855 130.349 33.0736 130.512 32.2988H132.221C132.025 33.6855 131.537 34.7012 130.756 35.3457C129.975 35.9837 128.975 36.3027 127.758 36.3027C126.391 36.3027 125.3 35.8047 124.486 34.8086C123.673 33.806 123.266 32.556 123.266 31.0586C123.266 29.2227 123.712 27.7936 124.604 26.7715C125.495 25.7493 126.632 25.2383 128.012 25.2383ZM138.334 25.3066C139.076 25.3066 139.796 25.4824 140.492 25.834C141.189 26.179 141.719 26.6283 142.084 27.1816C142.436 27.709 142.67 28.3242 142.787 29.0273C142.891 29.5091 142.943 30.2773 142.943 31.332H135.277C135.31 32.3932 135.561 33.2461 136.029 33.8906C136.498 34.5286 137.224 34.8477 138.207 34.8477C139.125 34.8477 139.857 34.5449 140.404 33.9395C140.717 33.5879 140.938 33.181 141.068 32.7188H142.797C142.751 33.1029 142.598 33.5326 142.338 34.0078C142.084 34.4766 141.798 34.8607 141.479 35.1602C140.945 35.681 140.284 36.0326 139.496 36.2148C139.073 36.319 138.594 36.3711 138.061 36.3711C136.758 36.3711 135.655 35.8991 134.75 34.9551C133.845 34.0046 133.393 32.6764 133.393 30.9707C133.393 29.291 133.848 27.9271 134.76 26.8789C135.671 25.8307 136.863 25.3066 138.334 25.3066ZM141.137 29.9355C141.065 29.1738 140.899 28.5651 140.639 28.1094C140.157 27.263 139.353 26.8398 138.227 26.8398C137.419 26.8398 136.742 27.1328 136.195 27.7188C135.648 28.2982 135.359 29.0371 135.326 29.9355H141.137ZM146.156 32.7188C146.208 33.3047 146.355 33.7539 146.596 34.0664C147.038 34.6328 147.807 34.916 148.9 34.916C149.551 34.916 150.124 34.776 150.619 34.4961C151.114 34.2096 151.361 33.7702 151.361 33.1777C151.361 32.7285 151.163 32.3867 150.766 32.1523C150.512 32.0091 150.01 31.8431 149.262 31.6543L147.865 31.3027C146.973 31.0814 146.316 30.834 145.893 30.5605C145.137 30.0853 144.76 29.4277 144.76 28.5879C144.76 27.5983 145.115 26.7975 145.824 26.1855C146.54 25.5736 147.501 25.2676 148.705 25.2676C150.281 25.2676 151.417 25.7298 152.113 26.6543C152.549 27.2402 152.761 27.8717 152.748 28.5488H151.088C151.055 28.1517 150.915 27.7904 150.668 27.4648C150.264 27.0026 149.564 26.7715 148.568 26.7715C147.904 26.7715 147.4 26.8984 147.055 27.1523C146.716 27.4062 146.547 27.7415 146.547 28.1582C146.547 28.6139 146.771 28.9785 147.221 29.252C147.481 29.4147 147.865 29.5579 148.373 29.6816L149.535 29.9648C150.798 30.2708 151.645 30.5671 152.074 30.8535C152.758 31.3027 153.1 32.0091 153.1 32.9727C153.1 33.9036 152.745 34.7077 152.035 35.3848C151.332 36.0618 150.258 36.4004 148.812 36.4004C147.257 36.4004 146.153 36.0488 145.502 35.3457C144.857 34.6361 144.512 33.7604 144.467 32.7188H146.156Z" fill="#9CA0A4"/>
</svg>
