<svg width="214" height="61" viewBox="0 0 214 61" fill="none" xmlns="http://www.w3.org/2000/svg">
<path fill-rule="evenodd" clip-rule="evenodd" d="M26.9311 28.6103C26.9219 13.7446 14.8675 1.69669 5.49975e-07 1.69669L0 0L213.419 0.00377875V1.69667C198.546 1.69667 186.488 13.7539 186.488 28.6273V43.8191C186.488 52.972 179.069 60.3921 169.916 60.3921H43.504C34.3507 60.3921 26.9311 52.972 26.9311 43.8191V28.6103Z" fill="#26292B"/>
<path d="M70.9336 30.3711C70.9792 31.1849 71.1712 31.8457 71.5098 32.3535C72.1543 33.304 73.2904 33.7793 74.918 33.7793C75.6471 33.7793 76.3112 33.6751 76.9102 33.4668C78.069 33.0632 78.6484 32.3405 78.6484 31.2988C78.6484 30.5176 78.4043 29.9609 77.916 29.6289C77.4212 29.3034 76.6465 29.0202 75.5918 28.7793L73.6484 28.3398C72.3789 28.0534 71.4805 27.7376 70.9531 27.3926C70.0417 26.7936 69.5859 25.8984 69.5859 24.707C69.5859 23.418 70.0319 22.36 70.9238 21.5332C71.8158 20.7064 73.0788 20.293 74.7129 20.293C76.2168 20.293 77.4928 20.6576 78.541 21.3867C79.5957 22.1094 80.123 23.2682 80.123 24.8633H78.2969C78.1992 24.0951 77.9909 23.5059 77.6719 23.0957C77.0794 22.347 76.0736 21.9727 74.6543 21.9727C73.5085 21.9727 72.6849 22.2135 72.1836 22.6953C71.6823 23.1771 71.4316 23.737 71.4316 24.375C71.4316 25.0781 71.7246 25.5924 72.3105 25.918C72.6947 26.1263 73.5638 26.3867 74.918 26.6992L76.9297 27.1582C77.8997 27.3796 78.6484 27.6823 79.1758 28.0664C80.0872 28.737 80.543 29.7103 80.543 30.9863C80.543 32.5749 79.9635 33.7109 78.8047 34.3945C77.6523 35.0781 76.3112 35.4199 74.7812 35.4199C72.9974 35.4199 71.6009 34.9642 70.5918 34.0527C69.5827 33.1478 69.0879 31.9206 69.1074 30.3711H70.9336ZM87.125 24.3066C87.8672 24.3066 88.5866 24.4824 89.2832 24.834C89.9798 25.179 90.5104 25.6283 90.875 26.1816C91.2266 26.709 91.4609 27.3242 91.5781 28.0273C91.6823 28.5091 91.7344 29.2773 91.7344 30.332H84.0684C84.1009 31.3932 84.3516 32.2461 84.8203 32.8906C85.2891 33.5286 86.015 33.8477 86.998 33.8477C87.916 33.8477 88.6484 33.5449 89.1953 32.9395C89.5078 32.5879 89.7292 32.181 89.8594 31.7188H91.5879C91.5423 32.1029 91.3893 32.5326 91.1289 33.0078C90.875 33.4766 90.5885 33.8607 90.2695 34.1602C89.7357 34.681 89.0749 35.0326 88.2871 35.2148C87.8639 35.319 87.3854 35.3711 86.8516 35.3711C85.5495 35.3711 84.446 34.8991 83.541 33.9551C82.6361 33.0046 82.1836 31.6764 82.1836 29.9707C82.1836 28.291 82.6393 26.9271 83.5508 25.8789C84.4622 24.8307 85.6536 24.3066 87.125 24.3066ZM89.9277 28.9355C89.8561 28.1738 89.6901 27.5651 89.4297 27.1094C88.9479 26.263 88.1439 25.8398 87.0176 25.8398C86.2103 25.8398 85.5332 26.1328 84.9863 26.7188C84.4395 27.2982 84.1497 28.0371 84.1172 28.9355H89.9277ZM93.9512 24.541H95.6211V26.3477C95.7578 25.9961 96.0931 25.5697 96.627 25.0684C97.1608 24.5605 97.776 24.3066 98.4727 24.3066C98.5052 24.3066 98.5605 24.3099 98.6387 24.3164C98.7168 24.3229 98.8503 24.3359 99.0391 24.3555V26.2109C98.9349 26.1914 98.8372 26.1784 98.7461 26.1719C98.6615 26.1654 98.5671 26.1621 98.4629 26.1621C97.5775 26.1621 96.8971 26.4486 96.4219 27.0215C95.9466 27.5879 95.709 28.2422 95.709 28.9844V35H93.9512V24.541ZM101.422 24.541L104.215 33.0566L107.135 24.541H109.059L105.113 35H103.238L99.3809 24.541H101.422ZM110.562 24.5898H112.35V35H110.562V24.5898ZM110.562 20.6543H112.35V22.6465H110.562V20.6543ZM119.049 24.2383C120.227 24.2383 121.184 24.5247 121.92 25.0977C122.662 25.6706 123.108 26.6569 123.258 28.0566H121.549C121.445 27.4121 121.207 26.8783 120.836 26.4551C120.465 26.0254 119.869 25.8105 119.049 25.8105C117.929 25.8105 117.128 26.3574 116.646 27.4512C116.334 28.1608 116.178 29.0365 116.178 30.0781C116.178 31.1263 116.399 32.0085 116.842 32.7246C117.285 33.4408 117.981 33.7988 118.932 33.7988C119.661 33.7988 120.237 33.5775 120.66 33.1348C121.09 32.6855 121.386 32.0736 121.549 31.2988H123.258C123.062 32.6855 122.574 33.7012 121.793 34.3457C121.012 34.9837 120.012 35.3027 118.795 35.3027C117.428 35.3027 116.337 34.8047 115.523 33.8086C114.71 32.806 114.303 31.556 114.303 30.0586C114.303 28.2227 114.749 26.7936 115.641 25.7715C116.533 24.7493 117.669 24.2383 119.049 24.2383ZM129.371 24.3066C130.113 24.3066 130.833 24.4824 131.529 24.834C132.226 25.179 132.757 25.6283 133.121 26.1816C133.473 26.709 133.707 27.3242 133.824 28.0273C133.928 28.5091 133.98 29.2773 133.98 30.332H126.314C126.347 31.3932 126.598 32.2461 127.066 32.8906C127.535 33.5286 128.261 33.8477 129.244 33.8477C130.162 33.8477 130.895 33.5449 131.441 32.9395C131.754 32.5879 131.975 32.181 132.105 31.7188H133.834C133.788 32.1029 133.635 32.5326 133.375 33.0078C133.121 33.4766 132.835 33.8607 132.516 34.1602C131.982 34.681 131.321 35.0326 130.533 35.2148C130.11 35.319 129.632 35.3711 129.098 35.3711C127.796 35.3711 126.692 34.8991 125.787 33.9551C124.882 33.0046 124.43 31.6764 124.43 29.9707C124.43 28.291 124.885 26.9271 125.797 25.8789C126.708 24.8307 127.9 24.3066 129.371 24.3066ZM132.174 28.9355C132.102 28.1738 131.936 27.5651 131.676 27.1094C131.194 26.263 130.39 25.8398 129.264 25.8398C128.456 25.8398 127.779 26.1328 127.232 26.7188C126.686 27.2982 126.396 28.0371 126.363 28.9355H132.174ZM137.193 31.7188C137.245 32.3047 137.392 32.7539 137.633 33.0664C138.076 33.6328 138.844 33.916 139.938 33.916C140.589 33.916 141.161 33.776 141.656 33.4961C142.151 33.2096 142.398 32.7702 142.398 32.1777C142.398 31.7285 142.2 31.3867 141.803 31.1523C141.549 31.0091 141.048 30.8431 140.299 30.6543L138.902 30.3027C138.01 30.0814 137.353 29.834 136.93 29.5605C136.174 29.0853 135.797 28.4277 135.797 27.5879C135.797 26.5983 136.152 25.7975 136.861 25.1855C137.577 24.5736 138.538 24.2676 139.742 24.2676C141.318 24.2676 142.454 24.7298 143.15 25.6543C143.587 26.2402 143.798 26.8717 143.785 27.5488H142.125C142.092 27.1517 141.952 26.7904 141.705 26.4648C141.301 26.0026 140.602 25.7715 139.605 25.7715C138.941 25.7715 138.437 25.8984 138.092 26.1523C137.753 26.4062 137.584 26.7415 137.584 27.1582C137.584 27.6139 137.809 27.9785 138.258 28.252C138.518 28.4147 138.902 28.5579 139.41 28.6816L140.572 28.9648C141.835 29.2708 142.682 29.5671 143.111 29.8535C143.795 30.3027 144.137 31.0091 144.137 31.9727C144.137 32.9036 143.782 33.7077 143.072 34.3848C142.369 35.0618 141.295 35.4004 139.85 35.4004C138.294 35.4004 137.19 35.0488 136.539 34.3457C135.895 33.6361 135.549 32.7604 135.504 31.7188H137.193Z" fill="#9CA0A4"/>
</svg>
