<svg width="91" height="91" viewBox="0 0 91 91" fill="none" xmlns="http://www.w3.org/2000/svg">
<g id="SVG">
<g id="Mask group">
<mask id="mask0_1_25" style="mask-type:alpha" maskUnits="userSpaceOnUse" x="0" y="8" width="90" height="74">
<g id="Group">
<path id="Vector" d="M89.7373 8.03754H0.628479V81.5262H89.7373V8.03754Z" fill="#97D28B"/>
</g>
</mask>
<g mask="url(#mask0_1_25)">
<g id="Group_2">
<path id="Vector_2" d="M26.4383 16.5471C26.4383 13.1643 29.1805 10.4221 32.5633 10.4221H40.4437C43.8264 10.4221 46.5687 13.1643 46.5687 16.5471V72.6931C46.5687 76.0758 43.8264 78.8181 40.4437 78.8181H32.5633C29.1805 78.8181 26.4383 76.0758 26.4383 72.6931V16.5471Z" fill="#97D28B" fill-opacity="0.1"/>
<path id="Vector_3" opacity="0.5" fill-rule="evenodd" clip-rule="evenodd" d="M15.7307 44.6445H7.85037C5.5952 44.6445 3.76702 46.4727 3.76702 48.7279V72.6923C3.76702 74.9475 5.5952 76.7756 7.85037 76.7756H15.7307C17.9859 76.7756 19.8141 74.9475 19.8141 72.6923V48.7279C19.8141 46.4727 17.9859 44.6445 15.7307 44.6445ZM7.85037 42.6029C4.46761 42.6029 1.72534 45.3451 1.72534 48.7279V72.6923C1.72534 76.0751 4.4676 78.8174 7.85037 78.8174H15.7307C19.1135 78.8174 21.8558 76.0751 21.8558 72.6923V48.7279C21.8558 45.3451 19.1135 42.6029 15.7307 42.6029H7.85037Z" fill="#97D28B"/>
<path id="Vector_4" fill-rule="evenodd" clip-rule="evenodd" d="M40.4437 12.4637H32.5633C30.3081 12.4637 28.4799 14.2919 28.4799 16.5471V72.6931C28.4799 74.9483 30.3081 76.7764 32.5633 76.7764H40.4437C42.6988 76.7764 44.527 74.9483 44.527 72.6931V16.5471C44.527 14.2919 42.6988 12.4637 40.4437 12.4637ZM32.5633 10.4221C29.1805 10.4221 26.4383 13.1643 26.4383 16.5471V72.6931C26.4383 76.0758 29.1805 78.8181 32.5633 78.8181H40.4437C43.8264 78.8181 46.5687 76.0758 46.5687 72.6931V16.5471C46.5687 13.1643 43.8264 10.4221 40.4437 10.4221H32.5633Z" fill="#97D28B"/>
<path id="Vector_5" opacity="0.5" fill-rule="evenodd" clip-rule="evenodd" d="M65.1651 25.586H57.2848C55.0297 25.586 53.2015 27.4142 53.2015 29.6694V72.6931C53.2015 74.9482 55.0296 76.7764 57.2848 76.7764H65.1651C67.4203 76.7764 69.2485 74.9482 69.2485 72.6931V29.6694C69.2485 27.4142 67.4203 25.586 65.1651 25.586ZM57.2848 23.5444C53.902 23.5444 51.1597 26.2867 51.1597 29.6694V72.6931C51.1597 76.0758 53.902 78.8181 57.2848 78.8181H65.1651C68.5479 78.8181 71.2902 76.0758 71.2902 72.6931V29.6694C71.2902 26.2867 68.5479 23.5444 65.1651 23.5444H57.2848Z" fill="#97D28B"/>
</g>
</g>
</g>
</g>
</svg>
