<svg width="405" height="84" viewBox="0 0 405 84" fill="none" xmlns="http://www.w3.org/2000/svg">
<path d="M23 0H382.05V59.8C382.05 73.0548 371.305 83.8 358.05 83.8H47C33.7452 83.8 23 73.0548 23 59.8V0Z" fill="#17244A"/>
<g clip-path="url(#clip0_487_729)">
<g clip-path="url(#clip1_487_729)">
<g clip-path="url(#clip2_487_729)">
<path fill-rule="evenodd" clip-rule="evenodd" d="M404.391 0C391.777 1.10277e-06 381.551 10.2259 381.551 22.84L381.551 1.99674e-06L404.391 0Z" fill="#17244A"/>
</g>
</g>
</g>
<g clip-path="url(#clip3_487_729)">
<g clip-path="url(#clip4_487_729)">
<g clip-path="url(#clip5_487_729)">
<path fill-rule="evenodd" clip-rule="evenodd" d="M404.391 0C391.777 1.10277e-06 381.551 10.2259 381.551 22.84L381.551 1.99674e-06L404.391 0Z" fill="#17244A"/>
</g>
</g>
</g>
<g clip-path="url(#clip6_487_729)">
<g clip-path="url(#clip7_487_729)">
<g clip-path="url(#clip8_487_729)">
<path fill-rule="evenodd" clip-rule="evenodd" d="M0.660156 1.99674e-06C13.2743 8.93969e-07 23.5002 10.2259 23.5002 22.84V0L0.660156 1.99674e-06Z" fill="#17244A"/>
</g>
</g>
</g>
<path d="M145.355 32.7852V34.8359H139.555V50H137.188V34.8359H131.387V32.7852H145.355ZM146.387 37.4492H148.391V39.6172C148.555 39.1953 148.957 38.6836 149.598 38.082C150.238 37.4727 150.977 37.168 151.812 37.168C151.852 37.168 151.918 37.1719 152.012 37.1797C152.105 37.1875 152.266 37.2031 152.492 37.2266V39.4531C152.367 39.4297 152.25 39.4141 152.141 39.4062C152.039 39.3984 151.926 39.3945 151.801 39.3945C150.738 39.3945 149.922 39.7383 149.352 40.4258C148.781 41.1055 148.496 41.8906 148.496 42.7812V50H146.387V37.4492ZM155.938 46.6602C155.938 47.2695 156.16 47.75 156.605 48.1016C157.051 48.4531 157.578 48.6289 158.188 48.6289C158.93 48.6289 159.648 48.457 160.344 48.1133C161.516 47.543 162.102 46.6094 162.102 45.3125V43.6133C161.844 43.7773 161.512 43.9141 161.105 44.0234C160.699 44.1328 160.301 44.2109 159.91 44.2578L158.633 44.4219C157.867 44.5234 157.293 44.6836 156.91 44.9023C156.262 45.2695 155.938 45.8555 155.938 46.6602ZM161.047 42.3945C161.531 42.332 161.855 42.1289 162.02 41.7852C162.113 41.5977 162.16 41.3281 162.16 40.9766C162.16 40.2578 161.902 39.7383 161.387 39.418C160.879 39.0898 160.148 38.9258 159.195 38.9258C158.094 38.9258 157.312 39.2227 156.852 39.8164C156.594 40.1445 156.426 40.6328 156.348 41.2812H154.379C154.418 39.7344 154.918 38.6602 155.879 38.0586C156.848 37.4492 157.969 37.1445 159.242 37.1445C160.719 37.1445 161.918 37.4258 162.84 37.9883C163.754 38.5508 164.211 39.4258 164.211 40.6133V47.8438C164.211 48.0625 164.254 48.2383 164.34 48.3711C164.434 48.5039 164.625 48.5703 164.914 48.5703C165.008 48.5703 165.113 48.5664 165.23 48.5586C165.348 48.543 165.473 48.5234 165.605 48.5V50.0586C165.277 50.1523 165.027 50.2109 164.855 50.2344C164.684 50.2578 164.449 50.2695 164.152 50.2695C163.426 50.2695 162.898 50.0117 162.57 49.4961C162.398 49.2227 162.277 48.8359 162.207 48.3359C161.777 48.8984 161.16 49.3867 160.355 49.8008C159.551 50.2148 158.664 50.4219 157.695 50.4219C156.531 50.4219 155.578 50.0703 154.836 49.3672C154.102 48.6562 153.734 47.7695 153.734 46.707C153.734 45.543 154.098 44.6406 154.824 44C155.551 43.3594 156.504 42.9648 157.684 42.8164L161.047 42.3945ZM172.52 37.0859C173.934 37.0859 175.082 37.4297 175.965 38.1172C176.855 38.8047 177.391 39.9883 177.57 41.668H175.52C175.395 40.8945 175.109 40.2539 174.664 39.7461C174.219 39.2305 173.504 38.9727 172.52 38.9727C171.176 38.9727 170.215 39.6289 169.637 40.9414C169.262 41.793 169.074 42.8438 169.074 44.0938C169.074 45.3516 169.34 46.4102 169.871 47.2695C170.402 48.1289 171.238 48.5586 172.379 48.5586C173.254 48.5586 173.945 48.293 174.453 47.7617C174.969 47.2227 175.324 46.4883 175.52 45.5586H177.57C177.336 47.2227 176.75 48.4414 175.812 49.2148C174.875 49.9805 173.676 50.3633 172.215 50.3633C170.574 50.3633 169.266 49.7656 168.289 48.5703C167.312 47.3672 166.824 45.8672 166.824 44.0703C166.824 41.8672 167.359 40.1523 168.43 38.9258C169.5 37.6992 170.863 37.0859 172.52 37.0859ZM179.633 32.7852H181.66V42.7812L187.074 37.4492H189.77L184.965 42.1484L190.039 50H187.344L183.43 43.6719L181.66 45.2891V50H179.633V32.7852ZM206.645 40.6719C207.738 40.6719 208.602 40.4531 209.234 40.0156C209.875 39.5781 210.195 38.7891 210.195 37.6484C210.195 36.4219 209.75 35.5859 208.859 35.1406C208.383 34.9062 207.746 34.7891 206.949 34.7891H201.254V40.6719H206.645ZM198.922 32.7852H206.891C208.203 32.7852 209.285 32.9766 210.137 33.3594C211.754 34.0938 212.562 35.4492 212.562 37.4258C212.562 38.457 212.348 39.3008 211.918 39.957C211.496 40.6133 210.902 41.1406 210.137 41.5391C210.809 41.8125 211.312 42.1719 211.648 42.6172C211.992 43.0625 212.184 43.7852 212.223 44.7852L212.305 47.0938C212.328 47.75 212.383 48.2383 212.469 48.5586C212.609 49.1055 212.859 49.457 213.219 49.6133V50H210.359C210.281 49.8516 210.219 49.6602 210.172 49.4258C210.125 49.1914 210.086 48.7383 210.055 48.0664L209.914 45.1953C209.859 44.0703 209.441 43.3164 208.66 42.9336C208.215 42.7227 207.516 42.6172 206.562 42.6172H201.254V50H198.922V32.7852ZM220.93 37.168C221.82 37.168 222.684 37.3789 223.52 37.8008C224.355 38.2148 224.992 38.7539 225.43 39.418C225.852 40.0508 226.133 40.7891 226.273 41.6328C226.398 42.2109 226.461 43.1328 226.461 44.3984H217.262C217.301 45.6719 217.602 46.6953 218.164 47.4688C218.727 48.2344 219.598 48.6172 220.777 48.6172C221.879 48.6172 222.758 48.2539 223.414 47.5273C223.789 47.1055 224.055 46.6172 224.211 46.0625H226.285C226.23 46.5234 226.047 47.0391 225.734 47.6094C225.43 48.1719 225.086 48.6328 224.703 48.9922C224.062 49.6172 223.27 50.0391 222.324 50.2578C221.816 50.3828 221.242 50.4453 220.602 50.4453C219.039 50.4453 217.715 49.8789 216.629 48.7461C215.543 47.6055 215 46.0117 215 43.9648C215 41.9492 215.547 40.3125 216.641 39.0547C217.734 37.7969 219.164 37.168 220.93 37.168ZM224.293 42.7227C224.207 41.8086 224.008 41.0781 223.695 40.5312C223.117 39.5156 222.152 39.0078 220.801 39.0078C219.832 39.0078 219.02 39.3594 218.363 40.0625C217.707 40.7578 217.359 41.6445 217.32 42.7227H224.293ZM233.902 37.0859C235.316 37.0859 236.465 37.4297 237.348 38.1172C238.238 38.8047 238.773 39.9883 238.953 41.668H236.902C236.777 40.8945 236.492 40.2539 236.047 39.7461C235.602 39.2305 234.887 38.9727 233.902 38.9727C232.559 38.9727 231.598 39.6289 231.02 40.9414C230.645 41.793 230.457 42.8438 230.457 44.0938C230.457 45.3516 230.723 46.4102 231.254 47.2695C231.785 48.1289 232.621 48.5586 233.762 48.5586C234.637 48.5586 235.328 48.293 235.836 47.7617C236.352 47.2227 236.707 46.4883 236.902 45.5586H238.953C238.719 47.2227 238.133 48.4414 237.195 49.2148C236.258 49.9805 235.059 50.3633 233.598 50.3633C231.957 50.3633 230.648 49.7656 229.672 48.5703C228.695 47.3672 228.207 45.8672 228.207 44.0703C228.207 41.8672 228.742 40.1523 229.812 38.9258C230.883 37.6992 232.246 37.0859 233.902 37.0859ZM246.043 48.6406C247.441 48.6406 248.398 48.1133 248.914 47.0586C249.438 45.9961 249.699 44.8164 249.699 43.5195C249.699 42.3477 249.512 41.3945 249.137 40.6602C248.543 39.5039 247.52 38.9258 246.066 38.9258C244.777 38.9258 243.84 39.418 243.254 40.4023C242.668 41.3867 242.375 42.5742 242.375 43.9648C242.375 45.3008 242.668 46.4141 243.254 47.3047C243.84 48.1953 244.77 48.6406 246.043 48.6406ZM246.125 37.0859C247.742 37.0859 249.109 37.625 250.227 38.7031C251.344 39.7812 251.902 41.3672 251.902 43.4609C251.902 45.4844 251.41 47.1562 250.426 48.4766C249.441 49.7969 247.914 50.457 245.844 50.457C244.117 50.457 242.746 49.875 241.73 48.7109C240.715 47.5391 240.207 45.9688 240.207 44C240.207 41.8906 240.742 40.2109 241.812 38.9609C242.883 37.7109 244.32 37.0859 246.125 37.0859ZM254.48 37.4492H256.484V39.6172C256.648 39.1953 257.051 38.6836 257.691 38.082C258.332 37.4727 259.07 37.168 259.906 37.168C259.945 37.168 260.012 37.1719 260.105 37.1797C260.199 37.1875 260.359 37.2031 260.586 37.2266V39.4531C260.461 39.4297 260.344 39.4141 260.234 39.4062C260.133 39.3984 260.02 39.3945 259.895 39.3945C258.832 39.3945 258.016 39.7383 257.445 40.4258C256.875 41.1055 256.59 41.8906 256.59 42.7812V50H254.48V37.4492ZM263.75 43.8711C263.75 45.2148 264.035 46.3398 264.605 47.2461C265.176 48.1523 266.09 48.6055 267.348 48.6055C268.324 48.6055 269.125 48.1875 269.75 47.3516C270.383 46.5078 270.699 45.3008 270.699 43.7305C270.699 42.1445 270.375 40.9727 269.727 40.2148C269.078 39.4492 268.277 39.0664 267.324 39.0664C266.262 39.0664 265.398 39.4727 264.734 40.2852C264.078 41.0977 263.75 42.293 263.75 43.8711ZM266.926 37.2266C267.887 37.2266 268.691 37.4297 269.34 37.8359C269.715 38.0703 270.141 38.4805 270.617 39.0664V32.7266H272.645V50H270.746V48.2539C270.254 49.0273 269.672 49.5859 269 49.9297C268.328 50.2734 267.559 50.4453 266.691 50.4453C265.293 50.4453 264.082 49.8594 263.059 48.6875C262.035 47.5078 261.523 45.9414 261.523 43.9883C261.523 42.1602 261.988 40.5781 262.918 39.2422C263.855 37.8984 265.191 37.2266 266.926 37.2266Z" fill="white"/>
<defs>
<clipPath id="clip0_487_729">
<rect width="22.84" height="22.84" fill="white" transform="translate(381.551)"/>
</clipPath>
<clipPath id="clip1_487_729">
<rect width="22.84" height="22.84" fill="white" transform="translate(381.551)"/>
</clipPath>
<clipPath id="clip2_487_729">
<rect width="22.84" height="22.84" fill="white" transform="translate(381.551)"/>
</clipPath>
<clipPath id="clip3_487_729">
<rect width="22.84" height="22.84" fill="white" transform="translate(381.551)"/>
</clipPath>
<clipPath id="clip4_487_729">
<rect width="22.84" height="22.84" fill="white" transform="translate(381.551)"/>
</clipPath>
<clipPath id="clip5_487_729">
<rect width="22.84" height="22.84" fill="white" transform="translate(381.551)"/>
</clipPath>
<clipPath id="clip6_487_729">
<rect width="22.84" height="22.84" fill="white" transform="translate(0.660156)"/>
</clipPath>
<clipPath id="clip7_487_729">
<rect width="22.84" height="22.84" fill="white" transform="translate(0.660156)"/>
</clipPath>
<clipPath id="clip8_487_729">
<rect width="22.84" height="22.84" fill="white" transform="translate(0.660156)"/>
</clipPath>
</defs>
</svg>
