<svg xmlns="http://www.w3.org/2000/svg" width="29" height="20" viewBox="0 0 29 20" fill="none">
  <path d="M22.2074 11.2485C20.9411 11.2485 19.7545 10.7444 18.6764 9.92393L18.939 8.76564L18.9504 8.72273C19.1841 7.4894 19.9257 5.41936 22.2074 5.41936C23.9185 5.41936 25.3104 6.72791 25.3104 8.3366C25.3046 9.93995 23.9129 11.2485 22.2074 11.2485ZM22.2074 2.46467C19.2925 2.46467 17.0338 4.24505 16.1155 7.17296C14.7122 5.19416 13.6512 2.81862 13.0296 0.818359H9.89228V8.4921C9.89228 10.0043 8.58036 11.2376 6.97179 11.2376C5.36322 11.2376 4.0514 10.0043 4.0514 8.4921V0.818359H0.913854V8.4921C0.90244 11.6346 3.62331 14.2139 6.96585 14.2139C10.3085 14.2139 13.0294 11.6346 13.0294 8.4921V7.20519C13.6396 8.40096 14.3869 9.6075 15.2938 10.6801L13.3715 19.1741H16.583L17.9747 13.0127C19.1953 13.7473 20.5986 14.2086 22.2072 14.2086C25.6467 14.2086 28.4475 11.5595 28.4475 8.32583C28.4475 5.09758 25.6469 2.46467 22.2074 2.46467Z" fill="#8aabc4" fill-opacity="0.8"/>
</svg>