<svg width="58" height="73" viewBox="0 0 58 73" fill="none" xmlns="http://www.w3.org/2000/svg">
<path d="M28.5714 73C20.3728 70.5646 13.5605 65.5973 8.13469 58.098C2.71156 50.5959 0 42.1456 0 32.7469V10.6735L28.5714 0L57.1428 10.6735V32.7469C57.1428 42.1456 54.4313 50.5946 49.0082 58.0939C43.5823 65.5959 36.7701 70.5646 28.5714 73ZM28.5714 68.6653C35.6463 66.4204 41.4966 61.9306 46.1224 55.1959C50.7483 48.4612 53.0612 40.9782 53.0612 32.7469V13.4612L28.5714 4.35918L4.08163 13.4612V32.7469C4.08163 40.9782 6.39456 48.4612 11.0204 55.1959C15.6463 61.9306 21.4966 66.4204 28.5714 68.6653Z" fill="#8AABC4"/>
<circle cx="28.5" cy="34.5" r="12.5" fill="#61717E"/>
<path fill-rule="evenodd" clip-rule="evenodd" d="M22.6642 32.7477C22.9946 32.4174 23.5301 32.4174 23.8604 32.7477L30.5063 39.3935C30.8366 39.7238 30.8366 40.2594 30.5063 40.5897C30.1759 40.92 29.6404 40.92 29.3101 40.5897L22.6642 33.9439C22.3339 33.6136 22.3339 33.078 22.6642 32.7477Z" fill="#8AABC4"/>
<path fill-rule="evenodd" clip-rule="evenodd" d="M45.6104 24.2894C45.9408 24.6197 45.9408 25.1552 45.6104 25.4856L30.5063 40.5897C30.1759 40.92 29.6404 40.92 29.3101 40.5897C28.9798 40.2594 28.9798 39.7238 29.3101 39.3935L44.4142 24.2894C44.7446 23.959 45.2801 23.959 45.6104 24.2894Z" fill="#8AABC4"/>
</svg>
