<svg width="78" height="68" viewBox="0 0 78 68" fill="none" xmlns="http://www.w3.org/2000/svg">
<path d="M77.4252 33.0329L58.9765 0.970985C58.8055 0.675471 58.5596 0.430174 58.2638 0.259736C57.9679 0.0892985 57.6324 -0.000278945 57.2909 6.52526e-07H20.3935C20.052 -0.000278945 19.7165 0.0892985 19.4206 0.259736C19.1247 0.430174 18.8789 0.675471 18.7078 0.970985L0.259134 33.0329C0.089372 33.3269 0 33.6605 0 34C0 34.3395 0.089372 34.6731 0.259134 34.9671L18.7078 67.029C19.0574 67.631 19.6982 68 20.3935 68H57.2909C57.6324 68.0003 57.9679 67.9107 58.2638 67.7403C58.5596 67.5698 58.8055 67.3245 58.9765 67.029L77.4252 34.9671C77.595 34.6731 77.6844 34.3395 77.6844 34C77.6844 33.6605 77.595 33.3269 77.4252 33.0329ZM56.1684 64.1199H21.5159L4.1858 34L21.5198 3.88005H56.1723L73.4986 34L56.1684 64.1199Z" fill="#8AABC4"/>
<path d="M56.9226 34.4789C56.9226 44.2295 49.0183 52.1338 39.2677 52.1338C29.5172 52.1338 21.6128 44.2295 21.6128 34.4789C21.6128 24.7284 29.5172 16.824 39.2677 16.824C49.0183 16.824 56.9226 24.7284 56.9226 34.4789Z" stroke="#61717E" stroke-width="3"/>
</svg>
